<svg width="32" height="32" viewBox="0 0 32 32" fill="none" xmlns="http://www.w3.org/2000/svg">
<rect width="32" height="32" rx="16" fill="#591A0B"/>
<path d="M20.3886 12.6786V11.8668C18.4197 11.8668 16.9353 13.5392 15.9861 15.5405C15.0353 13.5392 13.551 11.8668 11.5835 11.8668V12.6786C11.789 12.6786 11.9899 12.7045 12.1846 12.7502V21.9908H11.4149V22.8026H13.7028V21.9908H13.0004V13.0853C14.103 13.7341 14.974 15.0836 15.5567 16.5579C15.0277 17.982 14.7532 19.4548 14.7532 20.5469C14.7532 21.1683 14.8345 21.6709 14.9924 22.0425C15.2638 22.6746 15.7039 22.7919 15.9661 22.8026V22.8041C15.9723 22.8041 15.9799 22.8026 15.9845 22.8026C15.9907 22.8026 15.9983 22.8041 16.0029 22.8041V22.8026C16.2652 22.7934 16.7053 22.6761 16.9767 22.0425C17.1362 21.6709 17.2159 21.1683 17.2159 20.5469C17.2159 19.4548 16.9414 17.982 16.4124 16.5579C17.0319 14.9937 17.975 13.5681 19.1757 12.9741V21.9923H18.4733V22.8041H20.7612V21.9923H19.9915V12.7121C20.1249 12.6923 20.2552 12.6786 20.3886 12.6786ZM16.4016 20.5469C16.4016 21.1835 16.3066 21.5384 16.2268 21.7257C16.1272 21.9603 16.0321 21.9877 15.9861 21.9908C15.9401 21.9877 15.8465 21.9603 15.7453 21.7257C15.6656 21.5399 15.5705 21.1835 15.5705 20.5469C15.5705 19.7701 15.7147 18.8136 15.9861 17.8358C16.2575 18.8121 16.4016 19.7701 16.4016 20.5469Z" fill="#EAE6E1"/>
<path d="M15.9102 7.09387C13.9872 7.09387 12.2566 8.31244 11.6013 10.0913H8.92914V24.9912H23.0482V10.0913H20.2191C19.5638 8.31091 17.8347 7.09387 15.9102 7.09387ZM22.2298 24.1768H9.74908V10.9073H12.2058L12.292 10.6133C12.7566 9.02123 14.2457 7.90829 15.9117 7.90829C17.5778 7.90829 19.0654 9.0197 19.5299 10.6133L19.6161 10.9073H22.2298V24.1768Z" fill="#EAE6E1"/>
<path d="M23.6324 9.39515H20.6801C19.802 7.57329 17.9419 6.40002 15.9227 6.40002C13.9036 6.40002 12.0435 7.57329 11.1654 9.39515H8.36915H8.26666V9.49764V25.6083V25.7108H8.36915H23.6308H23.7333V25.6083V9.49917V9.39668H23.6324V9.39515ZM23.3249 25.3024H8.67815V9.80664H11.2327H11.3628H11.4285L11.4561 9.74698L11.5111 9.62919C12.3096 7.91747 14.0428 6.80998 15.9243 6.80998C17.8058 6.80998 19.5389 7.91594 20.3374 9.62919L20.3925 9.74698L20.42 9.80664H20.4858H20.6158H23.3264V25.3024H23.3249Z" fill="#EAE6E1"/>
</svg>
