<svg xmlns="http://www.w3.org/2000/svg" width="343" height="178" viewBox="0 0 343 178" fill="none">
    <rect width="343" height="178" fill="#EAE6E1" />
    <rect x="0.5" y="0.5" width="342" height="177" stroke="#CDBCAE" stroke-opacity="0.45" />
    <rect x="12" y="20" width="319" height="41" fill="white" fill-opacity="0.6" />
    <rect x="12.5" y="20.5" width="318" height="40" stroke="#CDBCAE" stroke-opacity="0.4" />
    <path d="M26.763 34.608C26.247 34.608 25.7985 34.4805 25.4175 34.2255C25.0395 33.9675 24.762 33.603 24.585 33.132L25.125 32.898C25.278 33.285 25.488 33.57 25.755 33.753C26.022 33.933 26.358 34.023 26.763 34.023C27.159 34.023 27.4785 33.915 27.7215 33.699C27.9645 33.48 28.086 33.177 28.086 32.79C28.086 32.388 27.9555 32.0745 27.6945 31.8495C27.4335 31.6245 27.102 31.512 26.7 31.512H25.935V30.936H26.61C26.817 30.936 27.0135 30.8865 27.1995 30.7875C27.3885 30.6885 27.5415 30.5535 27.6585 30.3825C27.7755 30.2085 27.834 30.012 27.834 29.793C27.834 29.445 27.732 29.172 27.528 28.974C27.327 28.776 27.069 28.677 26.754 28.677C26.448 28.677 26.1615 28.764 25.8945 28.938C25.6275 29.112 25.428 29.346 25.296 29.64L24.756 29.424C24.861 29.154 25.014 28.92 25.215 28.722C25.419 28.521 25.653 28.3665 25.917 28.2585C26.184 28.1475 26.463 28.092 26.754 28.092C27.099 28.092 27.402 28.1595 27.663 28.2945C27.924 28.4295 28.1265 28.6215 28.2705 28.8705C28.4175 29.1195 28.491 29.415 28.491 29.757C28.491 30.084 28.4025 30.375 28.2255 30.63C28.0485 30.882 27.807 31.065 27.501 31.179C27.906 31.299 28.215 31.4955 28.428 31.7685C28.644 32.0415 28.752 32.376 28.752 32.772C28.752 33.144 28.6665 33.468 28.4955 33.744C28.3275 34.017 28.0935 34.23 27.7935 34.383C27.4935 34.533 27.15 34.608 26.763 34.608ZM31.8499 34.608C31.5289 34.608 31.2469 34.551 31.0039 34.437C30.7609 34.32 30.5704 34.146 30.4324 33.915C30.2974 33.684 30.2299 33.396 30.2299 33.051C30.2299 32.697 30.3109 32.409 30.4729 32.187C30.6379 31.962 30.8509 31.797 31.1119 31.692C31.3759 31.584 31.6579 31.53 31.9579 31.53C32.1799 31.53 32.3944 31.554 32.6014 31.602C32.8114 31.647 33.0289 31.731 33.2539 31.854V31.467C33.2539 31.158 33.2059 30.9225 33.1099 30.7605C33.0139 30.5985 32.8879 30.489 32.7319 30.432C32.5789 30.372 32.4169 30.342 32.2459 30.342C32.0029 30.342 31.7449 30.396 31.4719 30.504C31.2019 30.609 30.9739 30.72 30.7879 30.837L30.6079 30.297C30.8029 30.18 31.0519 30.0675 31.3549 29.9595C31.6579 29.8485 31.9759 29.793 32.3089 29.793C32.4739 29.793 32.6449 29.8155 32.8219 29.8605C32.9989 29.9055 33.1639 29.9865 33.3169 30.1035C33.4729 30.2175 33.5989 30.378 33.6949 30.585C33.7909 30.792 33.8389 31.059 33.8389 31.386V34.5H33.2539V34.05C33.0709 34.215 32.8594 34.35 32.6194 34.455C32.3824 34.557 32.1259 34.608 31.8499 34.608ZM31.9129 34.059C32.2189 34.059 32.4844 33.984 32.7094 33.834C32.9344 33.681 33.1159 33.519 33.2539 33.348V32.457C33.1069 32.358 32.9209 32.271 32.6959 32.196C32.4709 32.118 32.2459 32.079 32.0209 32.079C31.6969 32.079 31.4149 32.1585 31.1749 32.3175C30.9349 32.4735 30.8149 32.718 30.8149 33.051C30.8149 33.351 30.9094 33.594 31.0984 33.78C31.2904 33.966 31.5619 34.059 31.9129 34.059ZM37.5938 34.608C37.1588 34.608 36.7868 34.497 36.4778 34.275C36.1718 34.053 35.9378 33.759 35.7758 33.393C35.6138 33.027 35.5328 32.628 35.5328 32.196C35.5328 31.686 35.6183 31.2525 35.7893 30.8955C35.9603 30.5355 36.2003 30.2625 36.5093 30.0765C36.8183 29.8875 37.1798 29.793 37.5938 29.793C37.9328 29.793 38.2448 29.871 38.5298 30.027C38.8148 30.183 39.0428 30.4245 39.2138 30.7515C39.3878 31.0785 39.4748 31.5 39.4748 32.016C39.4748 32.064 39.4733 32.1255 39.4703 32.2005C39.4703 32.2725 39.4658 32.358 39.4568 32.457H36.0368V31.89H38.8358C38.8358 31.479 38.7683 31.164 38.6333 30.945C38.4983 30.723 38.3333 30.57 38.1383 30.486C37.9463 30.402 37.7648 30.36 37.5938 30.36C37.1138 30.36 36.7583 30.513 36.5273 30.819C36.2963 31.125 36.1808 31.533 36.1808 32.043C36.1808 32.658 36.3083 33.1425 36.5633 33.4965C36.8183 33.8475 37.1708 34.023 37.6208 34.023C37.7978 34.023 37.9793 33.996 38.1653 33.942C38.3513 33.885 38.5358 33.792 38.7188 33.663L39.0608 34.086C38.8718 34.233 38.6498 34.3575 38.3948 34.4595C38.1398 34.5585 37.8728 34.608 37.5938 34.608ZM42.8967 34.608C42.4467 34.608 42.0507 34.5075 41.7087 34.3065C41.3667 34.1055 41.1117 33.819 40.9437 33.447L41.4927 33.249C41.6247 33.513 41.8077 33.711 42.0417 33.843C42.2787 33.975 42.5637 34.041 42.8967 34.041C43.2297 34.041 43.4937 33.969 43.6887 33.825C43.8867 33.678 43.9857 33.486 43.9857 33.249C43.9857 33.015 43.8837 32.8245 43.6797 32.6775C43.4757 32.5305 43.1937 32.457 42.8337 32.457H42.0687V31.89H42.8337C43.1217 31.89 43.3542 31.8135 43.5312 31.6605C43.7082 31.5075 43.7967 31.308 43.7967 31.062C43.7967 30.837 43.7127 30.6645 43.5447 30.5445C43.3797 30.4215 43.1577 30.36 42.8787 30.36C42.5877 30.36 42.3372 30.42 42.1272 30.54C41.9202 30.66 41.7597 30.846 41.6457 31.098L41.1057 30.864C41.2467 30.522 41.4747 30.258 41.7897 30.072C42.1077 29.886 42.4707 29.793 42.8787 29.793C43.3437 29.793 43.7202 29.9085 44.0082 30.1395C44.2992 30.3705 44.4447 30.678 44.4447 31.062C44.4447 31.281 44.3877 31.482 44.2737 31.665C44.1627 31.848 43.9767 32.001 43.7157 32.124C44.0367 32.223 44.2692 32.376 44.4132 32.583C44.5602 32.787 44.6337 33.009 44.6337 33.249C44.6337 33.654 44.4747 33.9825 44.1567 34.2345C43.8387 34.4835 43.4187 34.608 42.8967 34.608ZM45.7336 35.922V33.942H46.1746C46.2886 33.873 46.3831 33.771 46.4581 33.636C46.5331 33.498 46.5826 33.321 46.6066 33.105L46.9576 29.901H49.9096V33.942H50.6476V35.661L50.0176 35.922V34.5H46.3636V35.661L45.7336 35.922ZM46.9666 33.933H49.2796V30.468H47.5336L47.2276 33.177C47.2096 33.339 47.1766 33.483 47.1286 33.609C47.0806 33.735 47.0266 33.843 46.9666 33.933Z" fill="#574030" />
    <path d="M25.274 49.5C25.274 48.9583 25.3347 48.4925 25.456 48.1025C25.5773 47.7125 25.7485 47.3702 25.9695 47.0755C26.1948 46.7765 26.4592 46.497 26.7625 46.237C27.0658 45.977 27.4017 45.7083 27.77 45.431C28.108 45.1753 28.4222 44.9197 28.7125 44.664C29.0072 44.4083 29.2433 44.131 29.421 43.832C29.603 43.533 29.694 43.1907 29.694 42.805C29.694 42.311 29.5467 41.8972 29.252 41.5635C28.9617 41.2298 28.5587 41.063 28.043 41.063C27.497 41.063 27.0593 41.1995 26.73 41.4725C26.4007 41.7412 26.184 42.0943 26.08 42.532L25.274 42.168C25.3607 41.8127 25.5297 41.4898 25.781 41.1995C26.0323 40.9092 26.3508 40.6773 26.7365 40.504C27.1222 40.3307 27.562 40.244 28.056 40.244C28.5977 40.244 29.0613 40.3502 29.447 40.5625C29.8327 40.7748 30.1273 41.0738 30.331 41.4595C30.539 41.8408 30.643 42.2893 30.643 42.805C30.643 43.338 30.5282 43.7973 30.2985 44.183C30.0732 44.5687 29.7742 44.9175 29.4015 45.2295C29.0288 45.5415 28.628 45.8513 28.199 46.159C27.8913 46.38 27.588 46.6162 27.289 46.8675C26.9943 47.1188 26.7473 47.3897 26.548 47.68C26.353 47.9703 26.249 48.2867 26.236 48.629H30.721V49.5H25.274ZM35.7547 49.656C35.1827 49.656 34.6714 49.5368 34.2207 49.2985C33.7744 49.0558 33.4212 48.7308 33.1612 48.3235C32.9056 47.9118 32.7777 47.4503 32.7777 46.939C32.7777 46.3713 32.9294 45.8622 33.2327 45.4115C33.5361 44.9565 33.9217 44.6423 34.3897 44.469C34.0084 44.3 33.7137 44.0422 33.5057 43.6955C33.2977 43.3445 33.1937 42.9783 33.1937 42.597C33.1937 42.1767 33.3042 41.7888 33.5252 41.4335C33.7506 41.0738 34.0561 40.7857 34.4417 40.569C34.8274 40.3523 35.2651 40.244 35.7547 40.244C36.2444 40.244 36.6821 40.3523 37.0677 40.569C37.4534 40.7857 37.7567 41.0738 37.9777 41.4335C38.2031 41.7888 38.3157 42.1767 38.3157 42.597C38.3157 42.9783 38.2161 43.3445 38.0167 43.6955C37.8217 44.0422 37.5184 44.3 37.1067 44.469C37.5877 44.651 37.9777 44.9673 38.2767 45.418C38.5801 45.8643 38.7317 46.3713 38.7317 46.939C38.7317 47.4503 38.6017 47.9118 38.3417 48.3235C38.0861 48.7308 37.7329 49.0558 37.2822 49.2985C36.8359 49.5368 36.3267 49.656 35.7547 49.656ZM35.7547 48.837C36.3354 48.837 36.8186 48.6593 37.2042 48.304C37.5899 47.9487 37.7827 47.4633 37.7827 46.848C37.7827 46.4753 37.6982 46.133 37.5292 45.821C37.3602 45.509 37.1241 45.2598 36.8207 45.0735C36.5174 44.8872 36.1621 44.794 35.7547 44.794C35.3474 44.794 34.9921 44.8872 34.6887 45.0735C34.3854 45.2598 34.1492 45.509 33.9802 45.821C33.8112 46.133 33.7267 46.4753 33.7267 46.848C33.7267 47.4633 33.9196 47.9487 34.3052 48.304C34.6952 48.6593 35.1784 48.837 35.7547 48.837ZM35.7547 44.196C36.2574 44.196 36.6561 44.0508 36.9507 43.7605C37.2454 43.4702 37.3927 43.1083 37.3927 42.675C37.3927 42.1853 37.2367 41.7953 36.9247 41.505C36.6127 41.2103 36.2227 41.063 35.7547 41.063C35.2867 41.063 34.8967 41.2103 34.5847 41.505C34.2727 41.7953 34.1167 42.1853 34.1167 42.675C34.1167 43.1083 34.2641 43.4702 34.5587 43.7605C34.8577 44.0508 35.2564 44.196 35.7547 44.196ZM43.5055 49.682C43.2715 49.682 43.0765 49.5975 42.9205 49.4285C42.7645 49.2595 42.6865 49.071 42.6865 48.863C42.6865 48.655 42.7645 48.4665 42.9205 48.2975C43.0765 48.1285 43.2715 48.044 43.5055 48.044C43.7395 48.044 43.9345 48.1285 44.0905 48.2975C44.2465 48.4665 44.3245 48.655 44.3245 48.863C44.3245 49.071 44.2465 49.2595 44.0905 49.4285C43.9345 49.5975 43.7395 49.682 43.5055 49.682ZM50.8142 49.5V41.648L48.8122 42.376V41.479L51.7242 40.348V49.5H50.8142ZM48.5522 49.5V48.629H53.9602V49.5H48.5522ZM59.007 49.656C58.4133 49.656 57.915 49.5195 57.512 49.2465C57.1133 48.9735 56.7948 48.6095 56.5565 48.1545C56.3181 47.6995 56.147 47.1947 56.043 46.64C55.939 46.081 55.887 45.5177 55.887 44.95C55.887 44.5687 55.9151 44.1635 55.9715 43.7345C56.0278 43.3055 56.1231 42.8852 56.2575 42.4735C56.3918 42.0618 56.576 41.6892 56.81 41.3555C57.0483 41.0175 57.3473 40.7488 57.707 40.5495C58.0666 40.3458 58.5 40.244 59.007 40.244C59.6006 40.244 60.0968 40.3827 60.4955 40.66C60.8985 40.9373 61.2191 41.3057 61.4575 41.765C61.6958 42.2243 61.867 42.7313 61.971 43.286C62.075 43.8407 62.127 44.3953 62.127 44.95C62.127 45.3357 62.0988 45.743 62.0425 46.172C61.9861 46.601 61.8886 47.0213 61.75 47.433C61.6156 47.8447 61.4293 48.2195 61.191 48.5575C60.9526 48.8912 60.6536 49.1577 60.294 49.357C59.9386 49.5563 59.5096 49.656 59.007 49.656ZM59.007 48.837C59.462 48.837 59.8303 48.7157 60.112 48.473C60.3936 48.2303 60.6103 47.914 60.762 47.524C60.9136 47.134 61.0155 46.7137 61.0675 46.263C61.1238 45.808 61.152 45.3703 61.152 44.95C61.152 44.4777 61.1195 44.0118 61.0545 43.5525C60.9895 43.0932 60.879 42.6772 60.723 42.3045C60.567 41.9275 60.3481 41.6263 60.0665 41.401C59.7891 41.1757 59.436 41.063 59.007 41.063C58.552 41.063 58.1815 41.1865 57.8955 41.4335C57.6095 41.6762 57.3906 41.9947 57.239 42.389C57.0873 42.779 56.9811 43.2015 56.9205 43.6565C56.8641 44.1072 56.836 44.5383 56.836 44.95C56.836 45.4267 56.8685 45.8968 56.9335 46.3605C56.9985 46.8198 57.109 47.2358 57.265 47.6085C57.4253 47.9812 57.6463 48.2802 57.928 48.5055C58.214 48.7265 58.5736 48.837 59.007 48.837ZM59.007 45.782C58.773 45.782 58.578 45.6975 58.422 45.5285C58.266 45.3595 58.188 45.171 58.188 44.963C58.188 44.755 58.266 44.5665 58.422 44.3975C58.578 44.2285 58.773 44.144 59.007 44.144C59.241 44.144 59.436 44.2285 59.592 44.3975C59.748 44.5665 59.826 44.755 59.826 44.963C59.826 45.171 59.748 45.3595 59.592 45.5285C59.436 45.6975 59.241 45.782 59.007 45.782ZM66.7577 49.682C66.5237 49.682 66.3287 49.5975 66.1727 49.4285C66.0167 49.2595 65.9387 49.071 65.9387 48.863C65.9387 48.655 66.0167 48.4665 66.1727 48.2975C66.3287 48.1285 66.5237 48.044 66.7577 48.044C66.9917 48.044 67.1867 48.1285 67.3427 48.2975C67.4987 48.4665 67.5767 48.655 67.5767 48.863C67.5767 49.071 67.4987 49.2595 67.3427 49.4285C67.1867 49.5975 66.9917 49.682 66.7577 49.682ZM71.7785 49.5C71.7785 48.9583 71.8391 48.4925 71.9605 48.1025C72.0818 47.7125 72.253 47.3702 72.474 47.0755C72.6993 46.7765 72.9636 46.497 73.267 46.237C73.5703 45.977 73.9061 45.7083 74.2745 45.431C74.6125 45.1753 74.9266 44.9197 75.217 44.664C75.5116 44.4083 75.7478 44.131 75.9255 43.832C76.1075 43.533 76.1985 43.1907 76.1985 42.805C76.1985 42.311 76.0511 41.8972 75.7565 41.5635C75.4661 41.2298 75.0631 41.063 74.5475 41.063C74.0015 41.063 73.5638 41.1995 73.2345 41.4725C72.9051 41.7412 72.6885 42.0943 72.5845 42.532L71.7785 42.168C71.8651 41.8127 72.0341 41.4898 72.2855 41.1995C72.5368 40.9092 72.8553 40.6773 73.241 40.504C73.6266 40.3307 74.0665 40.244 74.5605 40.244C75.1021 40.244 75.5658 40.3502 75.9515 40.5625C76.3371 40.7748 76.6318 41.0738 76.8355 41.4595C77.0435 41.8408 77.1475 42.2893 77.1475 42.805C77.1475 43.338 77.0326 43.7973 76.803 44.183C76.5776 44.5687 76.2786 44.9175 75.906 45.2295C75.5333 45.5415 75.1325 45.8513 74.7035 46.159C74.3958 46.38 74.0925 46.6162 73.7935 46.8675C73.4988 47.1188 73.2518 47.3897 73.0525 47.68C72.8575 47.9703 72.7535 48.2867 72.7405 48.629H77.2255V49.5H71.7785ZM82.2592 49.656C81.6655 49.656 81.1672 49.5195 80.7642 49.2465C80.3655 48.9735 80.047 48.6095 79.8087 48.1545C79.5704 47.6995 79.3992 47.1947 79.2952 46.64C79.1912 46.081 79.1392 45.5177 79.1392 44.95C79.1392 44.5687 79.1674 44.1635 79.2237 43.7345C79.28 43.3055 79.3754 42.8852 79.5097 42.4735C79.644 42.0618 79.8282 41.6892 80.0622 41.3555C80.3005 41.0175 80.5995 40.7488 80.9592 40.5495C81.3189 40.3458 81.7522 40.244 82.2592 40.244C82.8529 40.244 83.349 40.3827 83.7477 40.66C84.1507 40.9373 84.4714 41.3057 84.7097 41.765C84.948 42.2243 85.1192 42.7313 85.2232 43.286C85.3272 43.8407 85.3792 44.3953 85.3792 44.95C85.3792 45.3357 85.351 45.743 85.2947 46.172C85.2384 46.601 85.1409 47.0213 85.0022 47.433C84.8679 47.8447 84.6815 48.2195 84.4432 48.5575C84.2049 48.8912 83.9059 49.1577 83.5462 49.357C83.1909 49.5563 82.7619 49.656 82.2592 49.656ZM82.2592 48.837C82.7142 48.837 83.0825 48.7157 83.3642 48.473C83.6459 48.2303 83.8625 47.914 84.0142 47.524C84.1659 47.134 84.2677 46.7137 84.3197 46.263C84.376 45.808 84.4042 45.3703 84.4042 44.95C84.4042 44.4777 84.3717 44.0118 84.3067 43.5525C84.2417 43.0932 84.1312 42.6772 83.9752 42.3045C83.8192 41.9275 83.6004 41.6263 83.3187 41.401C83.0414 41.1757 82.6882 41.063 82.2592 41.063C81.8042 41.063 81.4337 41.1865 81.1477 41.4335C80.8617 41.6762 80.6429 41.9947 80.4912 42.389C80.3395 42.779 80.2334 43.2015 80.1727 43.6565C80.1164 44.1072 80.0882 44.5383 80.0882 44.95C80.0882 45.4267 80.1207 45.8968 80.1857 46.3605C80.2507 46.8198 80.3612 47.2358 80.5172 47.6085C80.6775 47.9812 80.8985 48.2802 81.1802 48.5055C81.4662 48.7265 81.8259 48.837 82.2592 48.837ZM82.2592 45.782C82.0252 45.782 81.8302 45.6975 81.6742 45.5285C81.5182 45.3595 81.4402 45.171 81.4402 44.963C81.4402 44.755 81.5182 44.5665 81.6742 44.3975C81.8302 44.2285 82.0252 44.144 82.2592 44.144C82.4932 44.144 82.6882 44.2285 82.8442 44.3975C83.0002 44.5665 83.0782 44.755 83.0782 44.963C83.0782 45.171 83.0002 45.3595 82.8442 45.5285C82.6882 45.6975 82.4932 45.782 82.2592 45.782ZM87.2799 49.5C87.2799 48.9583 87.3406 48.4925 87.4619 48.1025C87.5833 47.7125 87.7544 47.3702 87.9754 47.0755C88.2008 46.7765 88.4651 46.497 88.7684 46.237C89.0718 45.977 89.4076 45.7083 89.7759 45.431C90.1139 45.1753 90.4281 44.9197 90.7184 44.664C91.0131 44.4083 91.2493 44.131 91.4269 43.832C91.6089 43.533 91.6999 43.1907 91.6999 42.805C91.6999 42.311 91.5526 41.8972 91.2579 41.5635C90.9676 41.2298 90.5646 41.063 90.0489 41.063C89.5029 41.063 89.0653 41.1995 88.7359 41.4725C88.4066 41.7412 88.1899 42.0943 88.0859 42.532L87.2799 42.168C87.3666 41.8127 87.5356 41.4898 87.7869 41.1995C88.0383 40.9092 88.3568 40.6773 88.7424 40.504C89.1281 40.3307 89.5679 40.244 90.0619 40.244C90.6036 40.244 91.0673 40.3502 91.4529 40.5625C91.8386 40.7748 92.1333 41.0738 92.3369 41.4595C92.5449 41.8408 92.6489 42.2893 92.6489 42.805C92.6489 43.338 92.5341 43.7973 92.3044 44.183C92.0791 44.5687 91.7801 44.9175 91.4074 45.2295C91.0348 45.5415 90.6339 45.8513 90.2049 46.159C89.8973 46.38 89.5939 46.6162 89.2949 46.8675C89.0003 47.1188 88.7533 47.3897 88.5539 47.68C88.3589 47.9703 88.2549 48.2867 88.2419 48.629H92.7269V49.5H87.2799ZM97.5657 49.656C97.1367 49.656 96.7467 49.5975 96.3957 49.4805C96.0447 49.3635 95.7435 49.2162 95.4922 49.0385C95.2409 48.8608 95.048 48.681 94.9137 48.499L95.4467 47.836C95.7024 48.1133 95.9927 48.3495 96.3177 48.5445C96.6427 48.7395 97.0544 48.837 97.5527 48.837C97.96 48.837 98.3197 48.7373 98.6317 48.538C98.948 48.3343 99.195 48.0657 99.3727 47.732C99.5547 47.394 99.6457 47.0257 99.6457 46.627C99.6457 46.2327 99.5742 45.873 99.4312 45.548C99.2925 45.223 99.0889 44.9652 98.8202 44.7745C98.5559 44.5795 98.2374 44.482 97.8647 44.482C97.4314 44.482 97.0609 44.5795 96.7532 44.7745C96.4499 44.9652 96.2137 45.158 96.0447 45.353L95.2777 45.119L96.0187 40.4H100.127V41.219H96.7467L96.2267 44.391C96.4564 44.144 96.7272 43.9555 97.0392 43.8255C97.3512 43.6912 97.6914 43.624 98.0597 43.624C98.5494 43.624 98.9849 43.7475 99.3662 43.9945C99.7519 44.2415 100.055 44.586 100.276 45.028C100.497 45.4657 100.608 45.9727 100.608 46.549C100.608 46.9303 100.538 47.3052 100.4 47.6735C100.265 48.0418 100.068 48.3755 99.8082 48.6745C99.5482 48.9735 99.2297 49.2118 98.8527 49.3895C98.4757 49.5672 98.0467 49.656 97.5657 49.656Z" fill="#574030" />
    <g clip-path="url(#clip0_1580_22795)">
        <path d="M317.333 33.8333H315V32.5H314.333V33.8333H307.667V32.5H307V33.8333H304.667C304.225 33.8339 303.801 34.0096 303.489 34.3221C303.176 34.6345 303.001 35.0581 303 35.5V48.5H319V35.5C319 34.5813 318.252 33.8333 317.333 33.8333ZM304.667 34.5H317.333C317.885 34.5 318.333 34.9487 318.333 35.5V37.8333H303.667V35.5C303.667 34.9487 304.115 34.5 304.667 34.5ZM303.667 47.8333V38.5H318.333V47.8333H303.667Z" fill="#574030" />
        <path d="M309 41.166H310.333V41.8327H309V41.166ZM311.666 41.166H313V41.8327H311.666V41.166ZM314.333 41.166H315.666V41.8327H314.333V41.166ZM309 44.4993H310.333V45.166H309V44.4993ZM306.333 41.166H307.666V41.8327H306.333V41.166ZM306.333 44.4993H307.666V45.166H306.333V44.4993ZM311.666 44.4993H313V45.166H311.666V44.4993ZM314.333 44.4993H315.666V45.166H314.333V44.4993Z" fill="#574030" />
    </g>
    <rect x="12" y="69" width="319" height="41" fill="white" fill-opacity="0.6" />
    <rect x="12.5" y="69.5" width="318" height="40" stroke="#CDBCAE" stroke-opacity="0.4" />
    <path d="M26.763 83.608C26.247 83.608 25.7985 83.4805 25.4175 83.2255C25.0395 82.9675 24.762 82.603 24.585 82.132L25.125 81.898C25.278 82.285 25.488 82.57 25.755 82.753C26.022 82.933 26.358 83.023 26.763 83.023C27.159 83.023 27.4785 82.915 27.7215 82.699C27.9645 82.48 28.086 82.177 28.086 81.79C28.086 81.388 27.9555 81.0745 27.6945 80.8495C27.4335 80.6245 27.102 80.512 26.7 80.512H25.935V79.936H26.61C26.817 79.936 27.0135 79.8865 27.1995 79.7875C27.3885 79.6885 27.5415 79.5535 27.6585 79.3825C27.7755 79.2085 27.834 79.012 27.834 78.793C27.834 78.445 27.732 78.172 27.528 77.974C27.327 77.776 27.069 77.677 26.754 77.677C26.448 77.677 26.1615 77.764 25.8945 77.938C25.6275 78.112 25.428 78.346 25.296 78.64L24.756 78.424C24.861 78.154 25.014 77.92 25.215 77.722C25.419 77.521 25.653 77.3665 25.917 77.2585C26.184 77.1475 26.463 77.092 26.754 77.092C27.099 77.092 27.402 77.1595 27.663 77.2945C27.924 77.4295 28.1265 77.6215 28.2705 77.8705C28.4175 78.1195 28.491 78.415 28.491 78.757C28.491 79.084 28.4025 79.375 28.2255 79.63C28.0485 79.882 27.807 80.065 27.501 80.179C27.906 80.299 28.215 80.4955 28.428 80.7685C28.644 81.0415 28.752 81.376 28.752 81.772C28.752 82.144 28.6665 82.468 28.4955 82.744C28.3275 83.017 28.0935 83.23 27.7935 83.383C27.4935 83.533 27.15 83.608 26.763 83.608ZM31.8499 83.608C31.5289 83.608 31.2469 83.551 31.0039 83.437C30.7609 83.32 30.5704 83.146 30.4324 82.915C30.2974 82.684 30.2299 82.396 30.2299 82.051C30.2299 81.697 30.3109 81.409 30.4729 81.187C30.6379 80.962 30.8509 80.797 31.1119 80.692C31.3759 80.584 31.6579 80.53 31.9579 80.53C32.1799 80.53 32.3944 80.554 32.6014 80.602C32.8114 80.647 33.0289 80.731 33.2539 80.854V80.467C33.2539 80.158 33.2059 79.9225 33.1099 79.7605C33.0139 79.5985 32.8879 79.489 32.7319 79.432C32.5789 79.372 32.4169 79.342 32.2459 79.342C32.0029 79.342 31.7449 79.396 31.4719 79.504C31.2019 79.609 30.9739 79.72 30.7879 79.837L30.6079 79.297C30.8029 79.18 31.0519 79.0675 31.3549 78.9595C31.6579 78.8485 31.9759 78.793 32.3089 78.793C32.4739 78.793 32.6449 78.8155 32.8219 78.8605C32.9989 78.9055 33.1639 78.9865 33.3169 79.1035C33.4729 79.2175 33.5989 79.378 33.6949 79.585C33.7909 79.792 33.8389 80.059 33.8389 80.386V83.5H33.2539V83.05C33.0709 83.215 32.8594 83.35 32.6194 83.455C32.3824 83.557 32.1259 83.608 31.8499 83.608ZM31.9129 83.059C32.2189 83.059 32.4844 82.984 32.7094 82.834C32.9344 82.681 33.1159 82.519 33.2539 82.348V81.457C33.1069 81.358 32.9209 81.271 32.6959 81.196C32.4709 81.118 32.2459 81.079 32.0209 81.079C31.6969 81.079 31.4149 81.1585 31.1749 81.3175C30.9349 81.4735 30.8149 81.718 30.8149 82.051C30.8149 82.351 30.9094 82.594 31.0984 82.78C31.2904 82.966 31.5619 83.059 31.9129 83.059ZM37.5938 83.608C37.1588 83.608 36.7868 83.497 36.4778 83.275C36.1718 83.053 35.9378 82.759 35.7758 82.393C35.6138 82.027 35.5328 81.628 35.5328 81.196C35.5328 80.686 35.6183 80.2525 35.7893 79.8955C35.9603 79.5355 36.2003 79.2625 36.5093 79.0765C36.8183 78.8875 37.1798 78.793 37.5938 78.793C37.9328 78.793 38.2448 78.871 38.5298 79.027C38.8148 79.183 39.0428 79.4245 39.2138 79.7515C39.3878 80.0785 39.4748 80.5 39.4748 81.016C39.4748 81.064 39.4733 81.1255 39.4703 81.2005C39.4703 81.2725 39.4658 81.358 39.4568 81.457H36.0368V80.89H38.8358C38.8358 80.479 38.7683 80.164 38.6333 79.945C38.4983 79.723 38.3333 79.57 38.1383 79.486C37.9463 79.402 37.7648 79.36 37.5938 79.36C37.1138 79.36 36.7583 79.513 36.5273 79.819C36.2963 80.125 36.1808 80.533 36.1808 81.043C36.1808 81.658 36.3083 82.1425 36.5633 82.4965C36.8183 82.8475 37.1708 83.023 37.6208 83.023C37.7978 83.023 37.9793 82.996 38.1653 82.942C38.3513 82.885 38.5358 82.792 38.7188 82.663L39.0608 83.086C38.8718 83.233 38.6498 83.3575 38.3948 83.4595C38.1398 83.5585 37.8728 83.608 37.5938 83.608ZM42.8967 83.608C42.4467 83.608 42.0507 83.5075 41.7087 83.3065C41.3667 83.1055 41.1117 82.819 40.9437 82.447L41.4927 82.249C41.6247 82.513 41.8077 82.711 42.0417 82.843C42.2787 82.975 42.5637 83.041 42.8967 83.041C43.2297 83.041 43.4937 82.969 43.6887 82.825C43.8867 82.678 43.9857 82.486 43.9857 82.249C43.9857 82.015 43.8837 81.8245 43.6797 81.6775C43.4757 81.5305 43.1937 81.457 42.8337 81.457H42.0687V80.89H42.8337C43.1217 80.89 43.3542 80.8135 43.5312 80.6605C43.7082 80.5075 43.7967 80.308 43.7967 80.062C43.7967 79.837 43.7127 79.6645 43.5447 79.5445C43.3797 79.4215 43.1577 79.36 42.8787 79.36C42.5877 79.36 42.3372 79.42 42.1272 79.54C41.9202 79.66 41.7597 79.846 41.6457 80.098L41.1057 79.864C41.2467 79.522 41.4747 79.258 41.7897 79.072C42.1077 78.886 42.4707 78.793 42.8787 78.793C43.3437 78.793 43.7202 78.9085 44.0082 79.1395C44.2992 79.3705 44.4447 79.678 44.4447 80.062C44.4447 80.281 44.3877 80.482 44.2737 80.665C44.1627 80.848 43.9767 81.001 43.7157 81.124C44.0367 81.223 44.2692 81.376 44.4132 81.583C44.5602 81.787 44.6337 82.009 44.6337 82.249C44.6337 82.654 44.4747 82.9825 44.1567 83.2345C43.8387 83.4835 43.4187 83.608 42.8967 83.608ZM45.7336 84.922V82.942H46.1746C46.2886 82.873 46.3831 82.771 46.4581 82.636C46.5331 82.498 46.5826 82.321 46.6066 82.105L46.9576 78.901H49.9096V82.942H50.6476V84.661L50.0176 84.922V83.5H46.3636V84.661L45.7336 84.922ZM46.9666 82.933H49.2796V79.468H47.5336L47.2276 82.177C47.2096 82.339 47.1766 82.483 47.1286 82.609C47.0806 82.735 47.0266 82.843 46.9666 82.933Z" fill="#574030" />
    <path d="M25.274 98.5C25.274 97.9583 25.3347 97.4925 25.456 97.1025C25.5773 96.7125 25.7485 96.3702 25.9695 96.0755C26.1948 95.7765 26.4592 95.497 26.7625 95.237C27.0658 94.977 27.4017 94.7083 27.77 94.431C28.108 94.1753 28.4222 93.9197 28.7125 93.664C29.0072 93.4083 29.2433 93.131 29.421 92.832C29.603 92.533 29.694 92.1907 29.694 91.805C29.694 91.311 29.5467 90.8972 29.252 90.5635C28.9617 90.2298 28.5587 90.063 28.043 90.063C27.497 90.063 27.0593 90.1995 26.73 90.4725C26.4007 90.7412 26.184 91.0943 26.08 91.532L25.274 91.168C25.3607 90.8127 25.5297 90.4898 25.781 90.1995C26.0323 89.9092 26.3508 89.6773 26.7365 89.504C27.1222 89.3307 27.562 89.244 28.056 89.244C28.5977 89.244 29.0613 89.3502 29.447 89.5625C29.8327 89.7748 30.1273 90.0738 30.331 90.4595C30.539 90.8408 30.643 91.2893 30.643 91.805C30.643 92.338 30.5282 92.7973 30.2985 93.183C30.0732 93.5687 29.7742 93.9175 29.4015 94.2295C29.0288 94.5415 28.628 94.8513 28.199 95.159C27.8913 95.38 27.588 95.6162 27.289 95.8675C26.9943 96.1188 26.7473 96.3897 26.548 96.68C26.353 96.9703 26.249 97.2867 26.236 97.629H30.721V98.5H25.274ZM35.7547 98.656C35.1827 98.656 34.6714 98.5368 34.2207 98.2985C33.7744 98.0558 33.4212 97.7308 33.1612 97.3235C32.9056 96.9118 32.7777 96.4503 32.7777 95.939C32.7777 95.3713 32.9294 94.8622 33.2327 94.4115C33.5361 93.9565 33.9217 93.6423 34.3897 93.469C34.0084 93.3 33.7137 93.0422 33.5057 92.6955C33.2977 92.3445 33.1937 91.9783 33.1937 91.597C33.1937 91.1767 33.3042 90.7888 33.5252 90.4335C33.7506 90.0738 34.0561 89.7857 34.4417 89.569C34.8274 89.3523 35.2651 89.244 35.7547 89.244C36.2444 89.244 36.6821 89.3523 37.0677 89.569C37.4534 89.7857 37.7567 90.0738 37.9777 90.4335C38.2031 90.7888 38.3157 91.1767 38.3157 91.597C38.3157 91.9783 38.2161 92.3445 38.0167 92.6955C37.8217 93.0422 37.5184 93.3 37.1067 93.469C37.5877 93.651 37.9777 93.9673 38.2767 94.418C38.5801 94.8643 38.7317 95.3713 38.7317 95.939C38.7317 96.4503 38.6017 96.9118 38.3417 97.3235C38.0861 97.7308 37.7329 98.0558 37.2822 98.2985C36.8359 98.5368 36.3267 98.656 35.7547 98.656ZM35.7547 97.837C36.3354 97.837 36.8186 97.6593 37.2042 97.304C37.5899 96.9487 37.7827 96.4633 37.7827 95.848C37.7827 95.4753 37.6982 95.133 37.5292 94.821C37.3602 94.509 37.1241 94.2598 36.8207 94.0735C36.5174 93.8872 36.1621 93.794 35.7547 93.794C35.3474 93.794 34.9921 93.8872 34.6887 94.0735C34.3854 94.2598 34.1492 94.509 33.9802 94.821C33.8112 95.133 33.7267 95.4753 33.7267 95.848C33.7267 96.4633 33.9196 96.9487 34.3052 97.304C34.6952 97.6593 35.1784 97.837 35.7547 97.837ZM35.7547 93.196C36.2574 93.196 36.6561 93.0508 36.9507 92.7605C37.2454 92.4702 37.3927 92.1083 37.3927 91.675C37.3927 91.1853 37.2367 90.7953 36.9247 90.505C36.6127 90.2103 36.2227 90.063 35.7547 90.063C35.2867 90.063 34.8967 90.2103 34.5847 90.505C34.2727 90.7953 34.1167 91.1853 34.1167 91.675C34.1167 92.1083 34.2641 92.4702 34.5587 92.7605C34.8577 93.0508 35.2564 93.196 35.7547 93.196ZM43.5055 98.682C43.2715 98.682 43.0765 98.5975 42.9205 98.4285C42.7645 98.2595 42.6865 98.071 42.6865 97.863C42.6865 97.655 42.7645 97.4665 42.9205 97.2975C43.0765 97.1285 43.2715 97.044 43.5055 97.044C43.7395 97.044 43.9345 97.1285 44.0905 97.2975C44.2465 97.4665 44.3245 97.655 44.3245 97.863C44.3245 98.071 44.2465 98.2595 44.0905 98.4285C43.9345 98.5975 43.7395 98.682 43.5055 98.682ZM50.8142 98.5V90.648L48.8122 91.376V90.479L51.7242 89.348V98.5H50.8142ZM48.5522 98.5V97.629H53.9602V98.5H48.5522ZM59.007 98.656C58.4133 98.656 57.915 98.5195 57.512 98.2465C57.1133 97.9735 56.7948 97.6095 56.5565 97.1545C56.3181 96.6995 56.147 96.1947 56.043 95.64C55.939 95.081 55.887 94.5177 55.887 93.95C55.887 93.5687 55.9151 93.1635 55.9715 92.7345C56.0278 92.3055 56.1231 91.8852 56.2575 91.4735C56.3918 91.0618 56.576 90.6892 56.81 90.3555C57.0483 90.0175 57.3473 89.7488 57.707 89.5495C58.0666 89.3458 58.5 89.244 59.007 89.244C59.6006 89.244 60.0968 89.3827 60.4955 89.66C60.8985 89.9373 61.2191 90.3057 61.4575 90.765C61.6958 91.2243 61.867 91.7313 61.971 92.286C62.075 92.8407 62.127 93.3953 62.127 93.95C62.127 94.3357 62.0988 94.743 62.0425 95.172C61.9861 95.601 61.8886 96.0213 61.75 96.433C61.6156 96.8447 61.4293 97.2195 61.191 97.5575C60.9526 97.8912 60.6536 98.1577 60.294 98.357C59.9386 98.5563 59.5096 98.656 59.007 98.656ZM59.007 97.837C59.462 97.837 59.8303 97.7157 60.112 97.473C60.3936 97.2303 60.6103 96.914 60.762 96.524C60.9136 96.134 61.0155 95.7137 61.0675 95.263C61.1238 94.808 61.152 94.3703 61.152 93.95C61.152 93.4777 61.1195 93.0118 61.0545 92.5525C60.9895 92.0932 60.879 91.6772 60.723 91.3045C60.567 90.9275 60.3481 90.6263 60.0665 90.401C59.7891 90.1757 59.436 90.063 59.007 90.063C58.552 90.063 58.1815 90.1865 57.8955 90.4335C57.6095 90.6762 57.3906 90.9947 57.239 91.389C57.0873 91.779 56.9811 92.2015 56.9205 92.6565C56.8641 93.1072 56.836 93.5383 56.836 93.95C56.836 94.4267 56.8685 94.8968 56.9335 95.3605C56.9985 95.8198 57.109 96.2358 57.265 96.6085C57.4253 96.9812 57.6463 97.2802 57.928 97.5055C58.214 97.7265 58.5736 97.837 59.007 97.837ZM59.007 94.782C58.773 94.782 58.578 94.6975 58.422 94.5285C58.266 94.3595 58.188 94.171 58.188 93.963C58.188 93.755 58.266 93.5665 58.422 93.3975C58.578 93.2285 58.773 93.144 59.007 93.144C59.241 93.144 59.436 93.2285 59.592 93.3975C59.748 93.5665 59.826 93.755 59.826 93.963C59.826 94.171 59.748 94.3595 59.592 94.5285C59.436 94.6975 59.241 94.782 59.007 94.782ZM66.7577 98.682C66.5237 98.682 66.3287 98.5975 66.1727 98.4285C66.0167 98.2595 65.9387 98.071 65.9387 97.863C65.9387 97.655 66.0167 97.4665 66.1727 97.2975C66.3287 97.1285 66.5237 97.044 66.7577 97.044C66.9917 97.044 67.1867 97.1285 67.3427 97.2975C67.4987 97.4665 67.5767 97.655 67.5767 97.863C67.5767 98.071 67.4987 98.2595 67.3427 98.4285C67.1867 98.5975 66.9917 98.682 66.7577 98.682ZM71.7785 98.5C71.7785 97.9583 71.8391 97.4925 71.9605 97.1025C72.0818 96.7125 72.253 96.3702 72.474 96.0755C72.6993 95.7765 72.9636 95.497 73.267 95.237C73.5703 94.977 73.9061 94.7083 74.2745 94.431C74.6125 94.1753 74.9266 93.9197 75.217 93.664C75.5116 93.4083 75.7478 93.131 75.9255 92.832C76.1075 92.533 76.1985 92.1907 76.1985 91.805C76.1985 91.311 76.0511 90.8972 75.7565 90.5635C75.4661 90.2298 75.0631 90.063 74.5475 90.063C74.0015 90.063 73.5638 90.1995 73.2345 90.4725C72.9051 90.7412 72.6885 91.0943 72.5845 91.532L71.7785 91.168C71.8651 90.8127 72.0341 90.4898 72.2855 90.1995C72.5368 89.9092 72.8553 89.6773 73.241 89.504C73.6266 89.3307 74.0665 89.244 74.5605 89.244C75.1021 89.244 75.5658 89.3502 75.9515 89.5625C76.3371 89.7748 76.6318 90.0738 76.8355 90.4595C77.0435 90.8408 77.1475 91.2893 77.1475 91.805C77.1475 92.338 77.0326 92.7973 76.803 93.183C76.5776 93.5687 76.2786 93.9175 75.906 94.2295C75.5333 94.5415 75.1325 94.8513 74.7035 95.159C74.3958 95.38 74.0925 95.6162 73.7935 95.8675C73.4988 96.1188 73.2518 96.3897 73.0525 96.68C72.8575 96.9703 72.7535 97.2867 72.7405 97.629H77.2255V98.5H71.7785ZM82.2592 98.656C81.6655 98.656 81.1672 98.5195 80.7642 98.2465C80.3655 97.9735 80.047 97.6095 79.8087 97.1545C79.5704 96.6995 79.3992 96.1947 79.2952 95.64C79.1912 95.081 79.1392 94.5177 79.1392 93.95C79.1392 93.5687 79.1674 93.1635 79.2237 92.7345C79.28 92.3055 79.3754 91.8852 79.5097 91.4735C79.644 91.0618 79.8282 90.6892 80.0622 90.3555C80.3005 90.0175 80.5995 89.7488 80.9592 89.5495C81.3189 89.3458 81.7522 89.244 82.2592 89.244C82.8529 89.244 83.349 89.3827 83.7477 89.66C84.1507 89.9373 84.4714 90.3057 84.7097 90.765C84.948 91.2243 85.1192 91.7313 85.2232 92.286C85.3272 92.8407 85.3792 93.3953 85.3792 93.95C85.3792 94.3357 85.351 94.743 85.2947 95.172C85.2384 95.601 85.1409 96.0213 85.0022 96.433C84.8679 96.8447 84.6815 97.2195 84.4432 97.5575C84.2049 97.8912 83.9059 98.1577 83.5462 98.357C83.1909 98.5563 82.7619 98.656 82.2592 98.656ZM82.2592 97.837C82.7142 97.837 83.0825 97.7157 83.3642 97.473C83.6459 97.2303 83.8625 96.914 84.0142 96.524C84.1659 96.134 84.2677 95.7137 84.3197 95.263C84.376 94.808 84.4042 94.3703 84.4042 93.95C84.4042 93.4777 84.3717 93.0118 84.3067 92.5525C84.2417 92.0932 84.1312 91.6772 83.9752 91.3045C83.8192 90.9275 83.6004 90.6263 83.3187 90.401C83.0414 90.1757 82.6882 90.063 82.2592 90.063C81.8042 90.063 81.4337 90.1865 81.1477 90.4335C80.8617 90.6762 80.6429 90.9947 80.4912 91.389C80.3395 91.779 80.2334 92.2015 80.1727 92.6565C80.1164 93.1072 80.0882 93.5383 80.0882 93.95C80.0882 94.4267 80.1207 94.8968 80.1857 95.3605C80.2507 95.8198 80.3612 96.2358 80.5172 96.6085C80.6775 96.9812 80.8985 97.2802 81.1802 97.5055C81.4662 97.7265 81.8259 97.837 82.2592 97.837ZM82.2592 94.782C82.0252 94.782 81.8302 94.6975 81.6742 94.5285C81.5182 94.3595 81.4402 94.171 81.4402 93.963C81.4402 93.755 81.5182 93.5665 81.6742 93.3975C81.8302 93.2285 82.0252 93.144 82.2592 93.144C82.4932 93.144 82.6882 93.2285 82.8442 93.3975C83.0002 93.5665 83.0782 93.755 83.0782 93.963C83.0782 94.171 83.0002 94.3595 82.8442 94.5285C82.6882 94.6975 82.4932 94.782 82.2592 94.782ZM87.2799 98.5C87.2799 97.9583 87.3406 97.4925 87.4619 97.1025C87.5833 96.7125 87.7544 96.3702 87.9754 96.0755C88.2008 95.7765 88.4651 95.497 88.7684 95.237C89.0718 94.977 89.4076 94.7083 89.7759 94.431C90.1139 94.1753 90.4281 93.9197 90.7184 93.664C91.0131 93.4083 91.2493 93.131 91.4269 92.832C91.6089 92.533 91.6999 92.1907 91.6999 91.805C91.6999 91.311 91.5526 90.8972 91.2579 90.5635C90.9676 90.2298 90.5646 90.063 90.0489 90.063C89.5029 90.063 89.0653 90.1995 88.7359 90.4725C88.4066 90.7412 88.1899 91.0943 88.0859 91.532L87.2799 91.168C87.3666 90.8127 87.5356 90.4898 87.7869 90.1995C88.0383 89.9092 88.3568 89.6773 88.7424 89.504C89.1281 89.3307 89.5679 89.244 90.0619 89.244C90.6036 89.244 91.0673 89.3502 91.4529 89.5625C91.8386 89.7748 92.1333 90.0738 92.3369 90.4595C92.5449 90.8408 92.6489 91.2893 92.6489 91.805C92.6489 92.338 92.5341 92.7973 92.3044 93.183C92.0791 93.5687 91.7801 93.9175 91.4074 94.2295C91.0348 94.5415 90.6339 94.8513 90.2049 95.159C89.8973 95.38 89.5939 95.6162 89.2949 95.8675C89.0003 96.1188 88.7533 96.3897 88.5539 96.68C88.3589 96.9703 88.2549 97.2867 88.2419 97.629H92.7269V98.5H87.2799ZM97.5657 98.656C97.1367 98.656 96.7467 98.5975 96.3957 98.4805C96.0447 98.3635 95.7435 98.2162 95.4922 98.0385C95.2409 97.8608 95.048 97.681 94.9137 97.499L95.4467 96.836C95.7024 97.1133 95.9927 97.3495 96.3177 97.5445C96.6427 97.7395 97.0544 97.837 97.5527 97.837C97.96 97.837 98.3197 97.7373 98.6317 97.538C98.948 97.3343 99.195 97.0657 99.3727 96.732C99.5547 96.394 99.6457 96.0257 99.6457 95.627C99.6457 95.2327 99.5742 94.873 99.4312 94.548C99.2925 94.223 99.0889 93.9652 98.8202 93.7745C98.5559 93.5795 98.2374 93.482 97.8647 93.482C97.4314 93.482 97.0609 93.5795 96.7532 93.7745C96.4499 93.9652 96.2137 94.158 96.0447 94.353L95.2777 94.119L96.0187 89.4H100.127V90.219H96.7467L96.2267 93.391C96.4564 93.144 96.7272 92.9555 97.0392 92.8255C97.3512 92.6912 97.6914 92.624 98.0597 92.624C98.5494 92.624 98.9849 92.7475 99.3662 92.9945C99.7519 93.2415 100.055 93.586 100.276 94.028C100.497 94.4657 100.608 94.9727 100.608 95.549C100.608 95.9303 100.538 96.3052 100.4 96.6735C100.265 97.0418 100.068 97.3755 99.8082 97.6745C99.5482 97.9735 99.2297 98.2118 98.8527 98.3895C98.4757 98.5672 98.0467 98.656 97.5657 98.656Z" fill="#574030" />
    <g clip-path="url(#clip1_1580_22795)">
        <path d="M317.333 82.8333H315V81.5H314.333V82.8333H307.667V81.5H307V82.8333H304.667C304.225 82.8339 303.801 83.0096 303.489 83.3221C303.176 83.6345 303.001 84.0581 303 84.5V97.5H319V84.5C319 83.5813 318.252 82.8333 317.333 82.8333ZM304.667 83.5H317.333C317.885 83.5 318.333 83.9487 318.333 84.5V86.8333H303.667V84.5C303.667 83.9487 304.115 83.5 304.667 83.5ZM303.667 96.8333V87.5H318.333V96.8333H303.667Z" fill="#574030" />
        <path d="M309 90.166H310.333V90.8327H309V90.166ZM311.666 90.166H313V90.8327H311.666V90.166ZM314.333 90.166H315.666V90.8327H314.333V90.166ZM309 93.4993H310.333V94.166H309V93.4993ZM306.333 90.166H307.666V90.8327H306.333V90.166ZM306.333 93.4993H307.666V94.166H306.333V93.4993ZM311.666 93.4993H313V94.166H311.666V93.4993ZM314.333 93.4993H315.666V94.166H314.333V93.4993Z" fill="#574030" />
    </g>
    <rect width="319" height="40" transform="translate(12 118)" fill="#591A0B" />
    <path d="M124.043 141.156C123.228 141.156 122.537 140.959 121.97 140.564C121.402 140.166 121.001 139.637 120.767 138.978L121.846 138.517C122.058 139.028 122.344 139.405 122.704 139.648C123.064 139.886 123.51 140.005 124.043 140.005C124.572 140.005 124.999 139.869 125.324 139.596C125.649 139.323 125.811 138.944 125.811 138.458C125.811 137.969 125.649 137.579 125.324 137.288C124.999 136.994 124.535 136.846 123.933 136.846H122.717V135.696H123.868C124.167 135.696 124.437 135.635 124.68 135.514C124.923 135.388 125.116 135.219 125.259 135.007C125.402 134.79 125.473 134.545 125.473 134.272C125.473 133.843 125.339 133.508 125.07 133.265C124.806 133.018 124.453 132.894 124.011 132.894C123.582 132.894 123.198 133.009 122.86 133.239C122.526 133.469 122.273 133.768 122.1 134.136L121.014 133.7C121.17 133.315 121.391 132.975 121.677 132.68C121.967 132.385 122.31 132.156 122.704 131.991C123.098 131.826 123.532 131.744 124.004 131.744C124.559 131.744 125.04 131.85 125.447 132.062C125.854 132.27 126.169 132.561 126.39 132.933C126.615 133.306 126.728 133.737 126.728 134.227C126.728 134.669 126.606 135.07 126.364 135.429C126.125 135.785 125.792 136.047 125.363 136.216C125.887 136.363 126.303 136.632 126.611 137.022C126.918 137.408 127.072 137.882 127.072 138.445C127.072 139.004 126.944 139.488 126.689 139.895C126.437 140.298 126.084 140.61 125.629 140.831C125.174 141.048 124.645 141.156 124.043 141.156ZM128.349 141L131.339 131.9H132.418L135.421 141H134.127L132.119 134.545C132.101 134.489 132.075 134.405 132.041 134.292C132.01 134.175 131.98 134.056 131.95 133.934C131.919 133.813 131.896 133.711 131.878 133.629C131.861 133.711 131.837 133.813 131.807 133.934C131.776 134.056 131.746 134.173 131.716 134.286C131.69 134.398 131.666 134.485 131.644 134.545L129.655 141H128.349ZM130 138.822L130.344 137.718H133.419L133.763 138.822H130ZM137.256 133.044V131.9H142.294V133.044H137.256ZM136.944 141V131.9H138.173V135.696H140.077C140.81 135.696 141.397 135.826 141.839 136.086C142.281 136.346 142.599 136.68 142.794 137.087C142.989 137.494 143.087 137.915 143.087 138.348C143.087 138.781 142.989 139.202 142.794 139.609C142.599 140.012 142.281 140.346 141.839 140.61C141.397 140.87 140.81 141 140.077 141H136.944ZM138.173 139.823H140.149C140.565 139.823 140.896 139.758 141.143 139.628C141.39 139.494 141.568 139.316 141.676 139.095C141.789 138.87 141.845 138.621 141.845 138.348C141.845 138.071 141.789 137.819 141.676 137.594C141.568 137.369 141.39 137.191 141.143 137.061C140.896 136.927 140.565 136.859 140.149 136.859H138.173V139.823ZM144.825 141V131.9H147.737C148.478 131.9 149.063 132.034 149.492 132.303C149.926 132.572 150.233 132.916 150.415 133.336C150.602 133.757 150.695 134.194 150.695 134.649C150.695 134.961 150.641 135.28 150.532 135.605C150.424 135.926 150.253 136.222 150.019 136.495C149.785 136.764 149.479 136.981 149.102 137.145C148.73 137.31 148.275 137.392 147.737 137.392H146.054V141H144.825ZM146.054 136.255H147.815C148.223 136.255 148.548 136.175 148.79 136.014C149.033 135.85 149.206 135.644 149.31 135.397C149.419 135.15 149.473 134.901 149.473 134.649C149.473 134.42 149.425 134.181 149.33 133.934C149.234 133.683 149.065 133.471 148.823 133.297C148.584 133.124 148.249 133.037 147.815 133.037H146.054V136.255ZM155.527 141.156C154.951 141.156 154.459 141.024 154.051 140.759C153.648 140.491 153.321 140.131 153.07 139.68C152.819 139.23 152.634 138.725 152.517 138.166C152.4 137.607 152.342 137.035 152.342 136.45C152.342 135.861 152.4 135.286 152.517 134.727C152.634 134.168 152.819 133.666 153.07 133.219C153.321 132.769 153.648 132.411 154.051 132.147C154.459 131.878 154.951 131.744 155.527 131.744C156.108 131.744 156.599 131.878 157.002 132.147C157.41 132.411 157.739 132.769 157.99 133.219C158.242 133.666 158.426 134.168 158.543 134.727C158.66 135.286 158.718 135.861 158.718 136.45C158.718 137.035 158.66 137.607 158.543 138.166C158.426 138.725 158.242 139.23 157.99 139.68C157.739 140.131 157.41 140.491 157.002 140.759C156.599 141.024 156.108 141.156 155.527 141.156ZM155.527 140.012C155.874 140.012 156.168 139.908 156.411 139.7C156.654 139.492 156.851 139.217 157.002 138.874C157.154 138.528 157.265 138.144 157.334 137.724C157.403 137.304 157.438 136.879 157.438 136.45C157.438 135.986 157.403 135.542 157.334 135.117C157.265 134.688 157.154 134.307 157.002 133.973C156.851 133.64 156.654 133.375 156.411 133.18C156.168 132.985 155.874 132.888 155.527 132.888C155.18 132.888 154.886 132.992 154.643 133.2C154.4 133.404 154.203 133.679 154.051 134.025C153.904 134.368 153.794 134.749 153.72 135.169C153.651 135.59 153.616 136.017 153.616 136.45C153.616 136.909 153.651 137.353 153.72 137.782C153.794 138.207 153.904 138.588 154.051 138.926C154.203 139.26 154.4 139.524 154.643 139.719C154.886 139.914 155.18 140.012 155.527 140.012ZM160.587 141V131.9H161.815V135.709H165V131.9H166.229V141H165V136.866H161.815V141H160.587ZM168.467 141V131.9H169.637V138.016C169.637 138.081 169.635 138.155 169.631 138.237C169.631 138.32 169.627 138.422 169.618 138.543C169.653 138.465 169.696 138.374 169.748 138.27C169.8 138.166 169.841 138.084 169.871 138.023L172.887 131.9H174.109V141H172.933V134.922C172.933 134.849 172.935 134.769 172.939 134.682C172.944 134.591 172.95 134.496 172.959 134.396C172.924 134.47 172.881 134.561 172.829 134.669C172.777 134.773 172.731 134.86 172.692 134.929L169.657 141H168.467ZM176.348 141V131.9H179.26C180.001 131.9 180.586 132.034 181.015 132.303C181.449 132.572 181.756 132.916 181.938 133.336C182.125 133.757 182.218 134.194 182.218 134.649C182.218 134.961 182.164 135.28 182.055 135.605C181.947 135.926 181.776 136.222 181.542 136.495C181.308 136.764 181.002 136.981 180.625 137.145C180.253 137.31 179.798 137.392 179.26 137.392H177.577V141H176.348ZM177.577 136.255H179.338C179.746 136.255 180.071 136.175 180.313 136.014C180.556 135.85 180.729 135.644 180.833 135.397C180.942 135.15 180.996 134.901 180.996 134.649C180.996 134.42 180.948 134.181 180.853 133.934C180.757 133.683 180.588 133.471 180.346 133.297C180.107 133.124 179.772 133.037 179.338 133.037H177.577V136.255ZM187.05 141.156C186.474 141.156 185.982 141.024 185.574 140.759C185.171 140.491 184.844 140.131 184.593 139.68C184.342 139.23 184.157 138.725 184.04 138.166C183.923 137.607 183.865 137.035 183.865 136.45C183.865 135.861 183.923 135.286 184.04 134.727C184.157 134.168 184.342 133.666 184.593 133.219C184.844 132.769 185.171 132.411 185.574 132.147C185.982 131.878 186.474 131.744 187.05 131.744C187.631 131.744 188.122 131.878 188.525 132.147C188.933 132.411 189.262 132.769 189.513 133.219C189.765 133.666 189.949 134.168 190.066 134.727C190.183 135.286 190.241 135.861 190.241 136.45C190.241 137.035 190.183 137.607 190.066 138.166C189.949 138.725 189.765 139.23 189.513 139.68C189.262 140.131 188.933 140.491 188.525 140.759C188.122 141.024 187.631 141.156 187.05 141.156ZM187.05 140.012C187.397 140.012 187.691 139.908 187.934 139.7C188.177 139.492 188.374 139.217 188.525 138.874C188.677 138.528 188.788 138.144 188.857 137.724C188.926 137.304 188.961 136.879 188.961 136.45C188.961 135.986 188.926 135.542 188.857 135.117C188.788 134.688 188.677 134.307 188.525 133.973C188.374 133.64 188.177 133.375 187.934 133.18C187.691 132.985 187.397 132.888 187.05 132.888C186.703 132.888 186.409 132.992 186.166 133.2C185.923 133.404 185.726 133.679 185.574 134.025C185.427 134.368 185.317 134.749 185.243 135.169C185.174 135.59 185.139 136.017 185.139 136.45C185.139 136.909 185.174 137.353 185.243 137.782C185.317 138.207 185.427 138.588 185.574 138.926C185.726 139.26 185.923 139.524 186.166 139.719C186.409 139.914 186.703 140.012 187.05 140.012ZM192.11 141V131.9H194.833C195.557 131.9 196.127 132.017 196.543 132.251C196.959 132.485 197.251 132.786 197.42 133.154C197.594 133.518 197.68 133.902 197.68 134.305C197.68 134.734 197.565 135.115 197.336 135.449C197.11 135.778 196.79 136.03 196.374 136.203C196.876 136.346 197.273 136.612 197.563 137.002C197.854 137.388 197.999 137.852 197.999 138.393C197.999 138.705 197.949 139.015 197.849 139.323C197.754 139.631 197.591 139.912 197.362 140.168C197.132 140.419 196.827 140.621 196.445 140.772C196.068 140.924 195.598 141 195.035 141H192.11ZM193.338 139.875H195.165C195.594 139.875 195.927 139.804 196.166 139.661C196.404 139.518 196.569 139.338 196.66 139.121C196.755 138.9 196.803 138.673 196.803 138.439C196.803 138.166 196.746 137.908 196.634 137.665C196.525 137.418 196.324 137.219 196.029 137.067C195.735 136.911 195.312 136.833 194.762 136.833H193.338V139.875ZM193.338 135.728H194.619C195.243 135.728 195.709 135.603 196.016 135.351C196.328 135.096 196.484 134.76 196.484 134.344C196.484 134.132 196.443 133.924 196.361 133.72C196.278 133.516 196.122 133.349 195.893 133.219C195.663 133.089 195.329 133.024 194.892 133.024H193.338V135.728ZM199.275 141L202.265 131.9H203.344L206.347 141H205.054L203.045 134.545C203.028 134.489 203.002 134.405 202.967 134.292C202.937 134.175 202.907 134.056 202.876 133.934C202.846 133.813 202.822 133.711 202.805 133.629C202.788 133.711 202.764 133.813 202.733 133.934C202.703 134.056 202.673 134.173 202.642 134.286C202.616 134.398 202.593 134.485 202.571 134.545L200.582 141H199.275ZM200.926 138.822L201.271 137.718H204.345L204.69 138.822H200.926ZM210.075 141V133.076H207.455V131.9H213.929V133.076H211.303V141H210.075ZM215.752 141V131.9H216.98V135.696H218.885C219.617 135.696 220.204 135.826 220.646 136.086C221.088 136.346 221.407 136.68 221.602 137.087C221.797 137.494 221.894 137.915 221.894 138.348C221.894 138.781 221.797 139.202 221.602 139.609C221.407 140.012 221.088 140.346 220.646 140.61C220.204 140.87 219.617 141 218.885 141H215.752ZM216.98 139.823H218.956C219.372 139.823 219.704 139.758 219.951 139.628C220.198 139.494 220.376 139.316 220.484 139.095C220.597 138.87 220.653 138.621 220.653 138.348C220.653 138.071 220.597 137.819 220.484 137.594C220.376 137.369 220.198 137.191 219.951 137.061C219.704 136.927 219.372 136.859 218.956 136.859H216.98V139.823Z" fill="#EAE6E1" />
    <defs>
        <clipPath id="clip0_1580_22795">
            <rect width="16" height="16" fill="white" transform="translate(303 32.5)" />
        </clipPath>
        <clipPath id="clip1_1580_22795">
            <rect width="16" height="16" fill="white" transform="translate(303 81.5)" />
        </clipPath>
    </defs>
</svg>