<svg xmlns="http://www.w3.org/2000/svg" width="1090" height="71" viewBox="0 0 1090 71" fill="none">
    <rect width="1090" height="71" fill="#EAE6E1" />
    <rect x="0.5" y="0.5" width="1089" height="70" stroke="#CDBCAE" stroke-opacity="0.45" />
    <rect x="12" y="12" width="403.5" height="47" fill="white" fill-opacity="0.6" />
    <rect x="12.5" y="12.5" width="402.5" height="46" stroke="#CDBCAE" stroke-opacity="0.4" />
    <path d="M26.763 29.608C26.247 29.608 25.7985 29.4805 25.4175 29.2255C25.0395 28.9675 24.762 28.603 24.585 28.132L25.125 27.898C25.278 28.285 25.488 28.57 25.755 28.753C26.022 28.933 26.358 29.023 26.763 29.023C27.159 29.023 27.4785 28.915 27.7215 28.699C27.9645 28.48 28.086 28.177 28.086 27.79C28.086 27.388 27.9555 27.0745 27.6945 26.8495C27.4335 26.6245 27.102 26.512 26.7 26.512H25.935V25.936H26.61C26.817 25.936 27.0135 25.8865 27.1995 25.7875C27.3885 25.6885 27.5415 25.5535 27.6585 25.3825C27.7755 25.2085 27.834 25.012 27.834 24.793C27.834 24.445 27.732 24.172 27.528 23.974C27.327 23.776 27.069 23.677 26.754 23.677C26.448 23.677 26.1615 23.764 25.8945 23.938C25.6275 24.112 25.428 24.346 25.296 24.64L24.756 24.424C24.861 24.154 25.014 23.92 25.215 23.722C25.419 23.521 25.653 23.3665 25.917 23.2585C26.184 23.1475 26.463 23.092 26.754 23.092C27.099 23.092 27.402 23.1595 27.663 23.2945C27.924 23.4295 28.1265 23.6215 28.2705 23.8705C28.4175 24.1195 28.491 24.415 28.491 24.757C28.491 25.084 28.4025 25.375 28.2255 25.63C28.0485 25.882 27.807 26.065 27.501 26.179C27.906 26.299 28.215 26.4955 28.428 26.7685C28.644 27.0415 28.752 27.376 28.752 27.772C28.752 28.144 28.6665 28.468 28.4955 28.744C28.3275 29.017 28.0935 29.23 27.7935 29.383C27.4935 29.533 27.15 29.608 26.763 29.608ZM31.8499 29.608C31.5289 29.608 31.2469 29.551 31.0039 29.437C30.7609 29.32 30.5704 29.146 30.4324 28.915C30.2974 28.684 30.2299 28.396 30.2299 28.051C30.2299 27.697 30.3109 27.409 30.4729 27.187C30.6379 26.962 30.8509 26.797 31.1119 26.692C31.3759 26.584 31.6579 26.53 31.9579 26.53C32.1799 26.53 32.3944 26.554 32.6014 26.602C32.8114 26.647 33.0289 26.731 33.2539 26.854V26.467C33.2539 26.158 33.2059 25.9225 33.1099 25.7605C33.0139 25.5985 32.8879 25.489 32.7319 25.432C32.5789 25.372 32.4169 25.342 32.2459 25.342C32.0029 25.342 31.7449 25.396 31.4719 25.504C31.2019 25.609 30.9739 25.72 30.7879 25.837L30.6079 25.297C30.8029 25.18 31.0519 25.0675 31.3549 24.9595C31.6579 24.8485 31.9759 24.793 32.3089 24.793C32.4739 24.793 32.6449 24.8155 32.8219 24.8605C32.9989 24.9055 33.1639 24.9865 33.3169 25.1035C33.4729 25.2175 33.5989 25.378 33.6949 25.585C33.7909 25.792 33.8389 26.059 33.8389 26.386V29.5H33.2539V29.05C33.0709 29.215 32.8594 29.35 32.6194 29.455C32.3824 29.557 32.1259 29.608 31.8499 29.608ZM31.9129 29.059C32.2189 29.059 32.4844 28.984 32.7094 28.834C32.9344 28.681 33.1159 28.519 33.2539 28.348V27.457C33.1069 27.358 32.9209 27.271 32.6959 27.196C32.4709 27.118 32.2459 27.079 32.0209 27.079C31.6969 27.079 31.4149 27.1585 31.1749 27.3175C30.9349 27.4735 30.8149 27.718 30.8149 28.051C30.8149 28.351 30.9094 28.594 31.0984 28.78C31.2904 28.966 31.5619 29.059 31.9129 29.059ZM37.5938 29.608C37.1588 29.608 36.7868 29.497 36.4778 29.275C36.1718 29.053 35.9378 28.759 35.7758 28.393C35.6138 28.027 35.5328 27.628 35.5328 27.196C35.5328 26.686 35.6183 26.2525 35.7893 25.8955C35.9603 25.5355 36.2003 25.2625 36.5093 25.0765C36.8183 24.8875 37.1798 24.793 37.5938 24.793C37.9328 24.793 38.2448 24.871 38.5298 25.027C38.8148 25.183 39.0428 25.4245 39.2138 25.7515C39.3878 26.0785 39.4748 26.5 39.4748 27.016C39.4748 27.064 39.4733 27.1255 39.4703 27.2005C39.4703 27.2725 39.4658 27.358 39.4568 27.457H36.0368V26.89H38.8358C38.8358 26.479 38.7683 26.164 38.6333 25.945C38.4983 25.723 38.3333 25.57 38.1383 25.486C37.9463 25.402 37.7648 25.36 37.5938 25.36C37.1138 25.36 36.7583 25.513 36.5273 25.819C36.2963 26.125 36.1808 26.533 36.1808 27.043C36.1808 27.658 36.3083 28.1425 36.5633 28.4965C36.8183 28.8475 37.1708 29.023 37.6208 29.023C37.7978 29.023 37.9793 28.996 38.1653 28.942C38.3513 28.885 38.5358 28.792 38.7188 28.663L39.0608 29.086C38.8718 29.233 38.6498 29.3575 38.3948 29.4595C38.1398 29.5585 37.8728 29.608 37.5938 29.608ZM42.8967 29.608C42.4467 29.608 42.0507 29.5075 41.7087 29.3065C41.3667 29.1055 41.1117 28.819 40.9437 28.447L41.4927 28.249C41.6247 28.513 41.8077 28.711 42.0417 28.843C42.2787 28.975 42.5637 29.041 42.8967 29.041C43.2297 29.041 43.4937 28.969 43.6887 28.825C43.8867 28.678 43.9857 28.486 43.9857 28.249C43.9857 28.015 43.8837 27.8245 43.6797 27.6775C43.4757 27.5305 43.1937 27.457 42.8337 27.457H42.0687V26.89H42.8337C43.1217 26.89 43.3542 26.8135 43.5312 26.6605C43.7082 26.5075 43.7967 26.308 43.7967 26.062C43.7967 25.837 43.7127 25.6645 43.5447 25.5445C43.3797 25.4215 43.1577 25.36 42.8787 25.36C42.5877 25.36 42.3372 25.42 42.1272 25.54C41.9202 25.66 41.7597 25.846 41.6457 26.098L41.1057 25.864C41.2467 25.522 41.4747 25.258 41.7897 25.072C42.1077 24.886 42.4707 24.793 42.8787 24.793C43.3437 24.793 43.7202 24.9085 44.0082 25.1395C44.2992 25.3705 44.4447 25.678 44.4447 26.062C44.4447 26.281 44.3877 26.482 44.2737 26.665C44.1627 26.848 43.9767 27.001 43.7157 27.124C44.0367 27.223 44.2692 27.376 44.4132 27.583C44.5602 27.787 44.6337 28.009 44.6337 28.249C44.6337 28.654 44.4747 28.9825 44.1567 29.2345C43.8387 29.4835 43.4187 29.608 42.8967 29.608ZM45.7336 30.922V28.942H46.1746C46.2886 28.873 46.3831 28.771 46.4581 28.636C46.5331 28.498 46.5826 28.321 46.6066 28.105L46.9576 24.901H49.9096V28.942H50.6476V30.661L50.0176 30.922V29.5H46.3636V30.661L45.7336 30.922ZM46.9666 28.933H49.2796V25.468H47.5336L47.2276 28.177C47.2096 28.339 47.1766 28.483 47.1286 28.609C47.0806 28.735 47.0266 28.843 46.9666 28.933Z" fill="#574030" />
    <path d="M25.274 44.5C25.274 43.9583 25.3347 43.4925 25.456 43.1025C25.5773 42.7125 25.7485 42.3702 25.9695 42.0755C26.1948 41.7765 26.4592 41.497 26.7625 41.237C27.0658 40.977 27.4017 40.7083 27.77 40.431C28.108 40.1753 28.4222 39.9197 28.7125 39.664C29.0072 39.4083 29.2433 39.131 29.421 38.832C29.603 38.533 29.694 38.1907 29.694 37.805C29.694 37.311 29.5467 36.8972 29.252 36.5635C28.9617 36.2298 28.5587 36.063 28.043 36.063C27.497 36.063 27.0593 36.1995 26.73 36.4725C26.4007 36.7412 26.184 37.0943 26.08 37.532L25.274 37.168C25.3607 36.8127 25.5297 36.4898 25.781 36.1995C26.0323 35.9092 26.3508 35.6773 26.7365 35.504C27.1222 35.3307 27.562 35.244 28.056 35.244C28.5977 35.244 29.0613 35.3502 29.447 35.5625C29.8327 35.7748 30.1273 36.0738 30.331 36.4595C30.539 36.8408 30.643 37.2893 30.643 37.805C30.643 38.338 30.5282 38.7973 30.2985 39.183C30.0732 39.5687 29.7742 39.9175 29.4015 40.2295C29.0288 40.5415 28.628 40.8513 28.199 41.159C27.8913 41.38 27.588 41.6162 27.289 41.8675C26.9943 42.1188 26.7473 42.3897 26.548 42.68C26.353 42.9703 26.249 43.2867 26.236 43.629H30.721V44.5H25.274ZM35.7547 44.656C35.1827 44.656 34.6714 44.5368 34.2207 44.2985C33.7744 44.0558 33.4212 43.7308 33.1612 43.3235C32.9056 42.9118 32.7777 42.4503 32.7777 41.939C32.7777 41.3713 32.9294 40.8622 33.2327 40.4115C33.5361 39.9565 33.9217 39.6423 34.3897 39.469C34.0084 39.3 33.7137 39.0422 33.5057 38.6955C33.2977 38.3445 33.1937 37.9783 33.1937 37.597C33.1937 37.1767 33.3042 36.7888 33.5252 36.4335C33.7506 36.0738 34.0561 35.7857 34.4417 35.569C34.8274 35.3523 35.2651 35.244 35.7547 35.244C36.2444 35.244 36.6821 35.3523 37.0677 35.569C37.4534 35.7857 37.7567 36.0738 37.9777 36.4335C38.2031 36.7888 38.3157 37.1767 38.3157 37.597C38.3157 37.9783 38.2161 38.3445 38.0167 38.6955C37.8217 39.0422 37.5184 39.3 37.1067 39.469C37.5877 39.651 37.9777 39.9673 38.2767 40.418C38.5801 40.8643 38.7317 41.3713 38.7317 41.939C38.7317 42.4503 38.6017 42.9118 38.3417 43.3235C38.0861 43.7308 37.7329 44.0558 37.2822 44.2985C36.8359 44.5368 36.3267 44.656 35.7547 44.656ZM35.7547 43.837C36.3354 43.837 36.8186 43.6593 37.2042 43.304C37.5899 42.9487 37.7827 42.4633 37.7827 41.848C37.7827 41.4753 37.6982 41.133 37.5292 40.821C37.3602 40.509 37.1241 40.2598 36.8207 40.0735C36.5174 39.8872 36.1621 39.794 35.7547 39.794C35.3474 39.794 34.9921 39.8872 34.6887 40.0735C34.3854 40.2598 34.1492 40.509 33.9802 40.821C33.8112 41.133 33.7267 41.4753 33.7267 41.848C33.7267 42.4633 33.9196 42.9487 34.3052 43.304C34.6952 43.6593 35.1784 43.837 35.7547 43.837ZM35.7547 39.196C36.2574 39.196 36.6561 39.0508 36.9507 38.7605C37.2454 38.4702 37.3927 38.1083 37.3927 37.675C37.3927 37.1853 37.2367 36.7953 36.9247 36.505C36.6127 36.2103 36.2227 36.063 35.7547 36.063C35.2867 36.063 34.8967 36.2103 34.5847 36.505C34.2727 36.7953 34.1167 37.1853 34.1167 37.675C34.1167 38.1083 34.2641 38.4702 34.5587 38.7605C34.8577 39.0508 35.2564 39.196 35.7547 39.196ZM43.5055 44.682C43.2715 44.682 43.0765 44.5975 42.9205 44.4285C42.7645 44.2595 42.6865 44.071 42.6865 43.863C42.6865 43.655 42.7645 43.4665 42.9205 43.2975C43.0765 43.1285 43.2715 43.044 43.5055 43.044C43.7395 43.044 43.9345 43.1285 44.0905 43.2975C44.2465 43.4665 44.3245 43.655 44.3245 43.863C44.3245 44.071 44.2465 44.2595 44.0905 44.4285C43.9345 44.5975 43.7395 44.682 43.5055 44.682ZM50.8142 44.5V36.648L48.8122 37.376V36.479L51.7242 35.348V44.5H50.8142ZM48.5522 44.5V43.629H53.9602V44.5H48.5522ZM59.007 44.656C58.4133 44.656 57.915 44.5195 57.512 44.2465C57.1133 43.9735 56.7948 43.6095 56.5565 43.1545C56.3181 42.6995 56.147 42.1947 56.043 41.64C55.939 41.081 55.887 40.5177 55.887 39.95C55.887 39.5687 55.9151 39.1635 55.9715 38.7345C56.0278 38.3055 56.1231 37.8852 56.2575 37.4735C56.3918 37.0618 56.576 36.6892 56.81 36.3555C57.0483 36.0175 57.3473 35.7488 57.707 35.5495C58.0666 35.3458 58.5 35.244 59.007 35.244C59.6006 35.244 60.0968 35.3827 60.4955 35.66C60.8985 35.9373 61.2191 36.3057 61.4575 36.765C61.6958 37.2243 61.867 37.7313 61.971 38.286C62.075 38.8407 62.127 39.3953 62.127 39.95C62.127 40.3357 62.0988 40.743 62.0425 41.172C61.9861 41.601 61.8886 42.0213 61.75 42.433C61.6156 42.8447 61.4293 43.2195 61.191 43.5575C60.9526 43.8912 60.6536 44.1577 60.294 44.357C59.9386 44.5563 59.5096 44.656 59.007 44.656ZM59.007 43.837C59.462 43.837 59.8303 43.7157 60.112 43.473C60.3936 43.2303 60.6103 42.914 60.762 42.524C60.9136 42.134 61.0155 41.7137 61.0675 41.263C61.1238 40.808 61.152 40.3703 61.152 39.95C61.152 39.4777 61.1195 39.0118 61.0545 38.5525C60.9895 38.0932 60.879 37.6772 60.723 37.3045C60.567 36.9275 60.3481 36.6263 60.0665 36.401C59.7891 36.1757 59.436 36.063 59.007 36.063C58.552 36.063 58.1815 36.1865 57.8955 36.4335C57.6095 36.6762 57.3906 36.9947 57.239 37.389C57.0873 37.779 56.9811 38.2015 56.9205 38.6565C56.8641 39.1072 56.836 39.5383 56.836 39.95C56.836 40.4267 56.8685 40.8968 56.9335 41.3605C56.9985 41.8198 57.109 42.2358 57.265 42.6085C57.4253 42.9812 57.6463 43.2802 57.928 43.5055C58.214 43.7265 58.5736 43.837 59.007 43.837ZM59.007 40.782C58.773 40.782 58.578 40.6975 58.422 40.5285C58.266 40.3595 58.188 40.171 58.188 39.963C58.188 39.755 58.266 39.5665 58.422 39.3975C58.578 39.2285 58.773 39.144 59.007 39.144C59.241 39.144 59.436 39.2285 59.592 39.3975C59.748 39.5665 59.826 39.755 59.826 39.963C59.826 40.171 59.748 40.3595 59.592 40.5285C59.436 40.6975 59.241 40.782 59.007 40.782ZM66.7577 44.682C66.5237 44.682 66.3287 44.5975 66.1727 44.4285C66.0167 44.2595 65.9387 44.071 65.9387 43.863C65.9387 43.655 66.0167 43.4665 66.1727 43.2975C66.3287 43.1285 66.5237 43.044 66.7577 43.044C66.9917 43.044 67.1867 43.1285 67.3427 43.2975C67.4987 43.4665 67.5767 43.655 67.5767 43.863C67.5767 44.071 67.4987 44.2595 67.3427 44.4285C67.1867 44.5975 66.9917 44.682 66.7577 44.682ZM71.7785 44.5C71.7785 43.9583 71.8391 43.4925 71.9605 43.1025C72.0818 42.7125 72.253 42.3702 72.474 42.0755C72.6993 41.7765 72.9636 41.497 73.267 41.237C73.5703 40.977 73.9061 40.7083 74.2745 40.431C74.6125 40.1753 74.9266 39.9197 75.217 39.664C75.5116 39.4083 75.7478 39.131 75.9255 38.832C76.1075 38.533 76.1985 38.1907 76.1985 37.805C76.1985 37.311 76.0511 36.8972 75.7565 36.5635C75.4661 36.2298 75.0631 36.063 74.5475 36.063C74.0015 36.063 73.5638 36.1995 73.2345 36.4725C72.9051 36.7412 72.6885 37.0943 72.5845 37.532L71.7785 37.168C71.8651 36.8127 72.0341 36.4898 72.2855 36.1995C72.5368 35.9092 72.8553 35.6773 73.241 35.504C73.6266 35.3307 74.0665 35.244 74.5605 35.244C75.1021 35.244 75.5658 35.3502 75.9515 35.5625C76.3371 35.7748 76.6318 36.0738 76.8355 36.4595C77.0435 36.8408 77.1475 37.2893 77.1475 37.805C77.1475 38.338 77.0326 38.7973 76.803 39.183C76.5776 39.5687 76.2786 39.9175 75.906 40.2295C75.5333 40.5415 75.1325 40.8513 74.7035 41.159C74.3958 41.38 74.0925 41.6162 73.7935 41.8675C73.4988 42.1188 73.2518 42.3897 73.0525 42.68C72.8575 42.9703 72.7535 43.2867 72.7405 43.629H77.2255V44.5H71.7785ZM82.2592 44.656C81.6655 44.656 81.1672 44.5195 80.7642 44.2465C80.3655 43.9735 80.047 43.6095 79.8087 43.1545C79.5704 42.6995 79.3992 42.1947 79.2952 41.64C79.1912 41.081 79.1392 40.5177 79.1392 39.95C79.1392 39.5687 79.1674 39.1635 79.2237 38.7345C79.28 38.3055 79.3754 37.8852 79.5097 37.4735C79.644 37.0618 79.8282 36.6892 80.0622 36.3555C80.3005 36.0175 80.5995 35.7488 80.9592 35.5495C81.3189 35.3458 81.7522 35.244 82.2592 35.244C82.8529 35.244 83.349 35.3827 83.7477 35.66C84.1507 35.9373 84.4714 36.3057 84.7097 36.765C84.948 37.2243 85.1192 37.7313 85.2232 38.286C85.3272 38.8407 85.3792 39.3953 85.3792 39.95C85.3792 40.3357 85.351 40.743 85.2947 41.172C85.2384 41.601 85.1409 42.0213 85.0022 42.433C84.8679 42.8447 84.6815 43.2195 84.4432 43.5575C84.2049 43.8912 83.9059 44.1577 83.5462 44.357C83.1909 44.5563 82.7619 44.656 82.2592 44.656ZM82.2592 43.837C82.7142 43.837 83.0825 43.7157 83.3642 43.473C83.6459 43.2303 83.8625 42.914 84.0142 42.524C84.1659 42.134 84.2677 41.7137 84.3197 41.263C84.376 40.808 84.4042 40.3703 84.4042 39.95C84.4042 39.4777 84.3717 39.0118 84.3067 38.5525C84.2417 38.0932 84.1312 37.6772 83.9752 37.3045C83.8192 36.9275 83.6004 36.6263 83.3187 36.401C83.0414 36.1757 82.6882 36.063 82.2592 36.063C81.8042 36.063 81.4337 36.1865 81.1477 36.4335C80.8617 36.6762 80.6429 36.9947 80.4912 37.389C80.3395 37.779 80.2334 38.2015 80.1727 38.6565C80.1164 39.1072 80.0882 39.5383 80.0882 39.95C80.0882 40.4267 80.1207 40.8968 80.1857 41.3605C80.2507 41.8198 80.3612 42.2358 80.5172 42.6085C80.6775 42.9812 80.8985 43.2802 81.1802 43.5055C81.4662 43.7265 81.8259 43.837 82.2592 43.837ZM82.2592 40.782C82.0252 40.782 81.8302 40.6975 81.6742 40.5285C81.5182 40.3595 81.4402 40.171 81.4402 39.963C81.4402 39.755 81.5182 39.5665 81.6742 39.3975C81.8302 39.2285 82.0252 39.144 82.2592 39.144C82.4932 39.144 82.6882 39.2285 82.8442 39.3975C83.0002 39.5665 83.0782 39.755 83.0782 39.963C83.0782 40.171 83.0002 40.3595 82.8442 40.5285C82.6882 40.6975 82.4932 40.782 82.2592 40.782ZM87.2799 44.5C87.2799 43.9583 87.3406 43.4925 87.4619 43.1025C87.5833 42.7125 87.7544 42.3702 87.9754 42.0755C88.2008 41.7765 88.4651 41.497 88.7684 41.237C89.0718 40.977 89.4076 40.7083 89.7759 40.431C90.1139 40.1753 90.4281 39.9197 90.7184 39.664C91.0131 39.4083 91.2493 39.131 91.4269 38.832C91.6089 38.533 91.6999 38.1907 91.6999 37.805C91.6999 37.311 91.5526 36.8972 91.2579 36.5635C90.9676 36.2298 90.5646 36.063 90.0489 36.063C89.5029 36.063 89.0653 36.1995 88.7359 36.4725C88.4066 36.7412 88.1899 37.0943 88.0859 37.532L87.2799 37.168C87.3666 36.8127 87.5356 36.4898 87.7869 36.1995C88.0383 35.9092 88.3568 35.6773 88.7424 35.504C89.1281 35.3307 89.5679 35.244 90.0619 35.244C90.6036 35.244 91.0673 35.3502 91.4529 35.5625C91.8386 35.7748 92.1333 36.0738 92.3369 36.4595C92.5449 36.8408 92.6489 37.2893 92.6489 37.805C92.6489 38.338 92.5341 38.7973 92.3044 39.183C92.0791 39.5687 91.7801 39.9175 91.4074 40.2295C91.0348 40.5415 90.6339 40.8513 90.2049 41.159C89.8973 41.38 89.5939 41.6162 89.2949 41.8675C89.0003 42.1188 88.7533 42.3897 88.5539 42.68C88.3589 42.9703 88.2549 43.2867 88.2419 43.629H92.7269V44.5H87.2799ZM97.5657 44.656C97.1367 44.656 96.7467 44.5975 96.3957 44.4805C96.0447 44.3635 95.7435 44.2162 95.4922 44.0385C95.2409 43.8608 95.048 43.681 94.9137 43.499L95.4467 42.836C95.7024 43.1133 95.9927 43.3495 96.3177 43.5445C96.6427 43.7395 97.0544 43.837 97.5527 43.837C97.96 43.837 98.3197 43.7373 98.6317 43.538C98.948 43.3343 99.195 43.0657 99.3727 42.732C99.5547 42.394 99.6457 42.0257 99.6457 41.627C99.6457 41.2327 99.5742 40.873 99.4312 40.548C99.2925 40.223 99.0889 39.9652 98.8202 39.7745C98.5559 39.5795 98.2374 39.482 97.8647 39.482C97.4314 39.482 97.0609 39.5795 96.7532 39.7745C96.4499 39.9652 96.2137 40.158 96.0447 40.353L95.2777 40.119L96.0187 35.4H100.127V36.219H96.7467L96.2267 39.391C96.4564 39.144 96.7272 38.9555 97.0392 38.8255C97.3512 38.6912 97.6914 38.624 98.0597 38.624C98.5494 38.624 98.9849 38.7475 99.3662 38.9945C99.7519 39.2415 100.055 39.586 100.276 40.028C100.497 40.4657 100.608 40.9727 100.608 41.549C100.608 41.9303 100.538 42.3052 100.4 42.6735C100.265 43.0418 100.068 43.3755 99.8082 43.6745C99.5482 43.9735 99.2297 44.2118 98.8527 44.3895C98.4757 44.5672 98.0467 44.656 97.5657 44.656Z" fill="#574030" />
    <g clip-path="url(#clip0_1580_21895)">
        <path d="M401.833 28.8333H399.5V27.5H398.833V28.8333H392.167V27.5H391.5V28.8333H389.167C388.725 28.8339 388.301 29.0096 387.989 29.3221C387.676 29.6345 387.501 30.0581 387.5 30.5V43.5H403.5V30.5C403.5 29.5813 402.752 28.8333 401.833 28.8333ZM389.167 29.5H401.833C402.385 29.5 402.833 29.9487 402.833 30.5V32.8333H388.167V30.5C388.167 29.9487 388.615 29.5 389.167 29.5ZM388.167 42.8333V33.5H402.833V42.8333H388.167Z" fill="#574030" />
        <path d="M393.5 36.166H394.833V36.8327H393.5V36.166ZM396.166 36.166H397.5V36.8327H396.166V36.166ZM398.833 36.166H400.166V36.8327H398.833V36.166ZM393.5 39.4993H394.833V40.166H393.5V39.4993ZM390.833 36.166H392.166V36.8327H390.833V36.166ZM390.833 39.4993H392.166V40.166H390.833V39.4993ZM396.166 39.4993H397.5V40.166H396.166V39.4993ZM398.833 39.4993H400.166V40.166H398.833V39.4993Z" fill="#574030" />
    </g>
    <rect x="433.5" y="12" width="403.5" height="47" fill="white" fill-opacity="0.6" />
    <rect x="434" y="12.5" width="402.5" height="46" stroke="#CDBCAE" stroke-opacity="0.4" />
    <path d="M448.263 29.608C447.747 29.608 447.299 29.4805 446.918 29.2255C446.54 28.9675 446.262 28.603 446.085 28.132L446.625 27.898C446.778 28.285 446.988 28.57 447.255 28.753C447.522 28.933 447.858 29.023 448.263 29.023C448.659 29.023 448.979 28.915 449.222 28.699C449.465 28.48 449.586 28.177 449.586 27.79C449.586 27.388 449.456 27.0745 449.195 26.8495C448.934 26.6245 448.602 26.512 448.2 26.512H447.435V25.936H448.11C448.317 25.936 448.514 25.8865 448.7 25.7875C448.889 25.6885 449.042 25.5535 449.159 25.3825C449.276 25.2085 449.334 25.012 449.334 24.793C449.334 24.445 449.232 24.172 449.028 23.974C448.827 23.776 448.569 23.677 448.254 23.677C447.948 23.677 447.662 23.764 447.395 23.938C447.128 24.112 446.928 24.346 446.796 24.64L446.256 24.424C446.361 24.154 446.514 23.92 446.715 23.722C446.919 23.521 447.153 23.3665 447.417 23.2585C447.684 23.1475 447.963 23.092 448.254 23.092C448.599 23.092 448.902 23.1595 449.163 23.2945C449.424 23.4295 449.627 23.6215 449.771 23.8705C449.918 24.1195 449.991 24.415 449.991 24.757C449.991 25.084 449.903 25.375 449.726 25.63C449.549 25.882 449.307 26.065 449.001 26.179C449.406 26.299 449.715 26.4955 449.928 26.7685C450.144 27.0415 450.252 27.376 450.252 27.772C450.252 28.144 450.167 28.468 449.996 28.744C449.828 29.017 449.594 29.23 449.294 29.383C448.994 29.533 448.65 29.608 448.263 29.608ZM453.35 29.608C453.029 29.608 452.747 29.551 452.504 29.437C452.261 29.32 452.07 29.146 451.932 28.915C451.797 28.684 451.73 28.396 451.73 28.051C451.73 27.697 451.811 27.409 451.973 27.187C452.138 26.962 452.351 26.797 452.612 26.692C452.876 26.584 453.158 26.53 453.458 26.53C453.68 26.53 453.894 26.554 454.101 26.602C454.311 26.647 454.529 26.731 454.754 26.854V26.467C454.754 26.158 454.706 25.9225 454.61 25.7605C454.514 25.5985 454.388 25.489 454.232 25.432C454.079 25.372 453.917 25.342 453.746 25.342C453.503 25.342 453.245 25.396 452.972 25.504C452.702 25.609 452.474 25.72 452.288 25.837L452.108 25.297C452.303 25.18 452.552 25.0675 452.855 24.9595C453.158 24.8485 453.476 24.793 453.809 24.793C453.974 24.793 454.145 24.8155 454.322 24.8605C454.499 24.9055 454.664 24.9865 454.817 25.1035C454.973 25.2175 455.099 25.378 455.195 25.585C455.291 25.792 455.339 26.059 455.339 26.386V29.5H454.754V29.05C454.571 29.215 454.359 29.35 454.119 29.455C453.882 29.557 453.626 29.608 453.35 29.608ZM453.413 29.059C453.719 29.059 453.984 28.984 454.209 28.834C454.434 28.681 454.616 28.519 454.754 28.348V27.457C454.607 27.358 454.421 27.271 454.196 27.196C453.971 27.118 453.746 27.079 453.521 27.079C453.197 27.079 452.915 27.1585 452.675 27.3175C452.435 27.4735 452.315 27.718 452.315 28.051C452.315 28.351 452.409 28.594 452.598 28.78C452.79 28.966 453.062 29.059 453.413 29.059ZM459.094 29.608C458.659 29.608 458.287 29.497 457.978 29.275C457.672 29.053 457.438 28.759 457.276 28.393C457.114 28.027 457.033 27.628 457.033 27.196C457.033 26.686 457.118 26.2525 457.289 25.8955C457.46 25.5355 457.7 25.2625 458.009 25.0765C458.318 24.8875 458.68 24.793 459.094 24.793C459.433 24.793 459.745 24.871 460.03 25.027C460.315 25.183 460.543 25.4245 460.714 25.7515C460.888 26.0785 460.975 26.5 460.975 27.016C460.975 27.064 460.973 27.1255 460.97 27.2005C460.97 27.2725 460.966 27.358 460.957 27.457H457.537V26.89H460.336C460.336 26.479 460.268 26.164 460.133 25.945C459.998 25.723 459.833 25.57 459.638 25.486C459.446 25.402 459.265 25.36 459.094 25.36C458.614 25.36 458.258 25.513 458.027 25.819C457.796 26.125 457.681 26.533 457.681 27.043C457.681 27.658 457.808 28.1425 458.063 28.4965C458.318 28.8475 458.671 29.023 459.121 29.023C459.298 29.023 459.479 28.996 459.665 28.942C459.851 28.885 460.036 28.792 460.219 28.663L460.561 29.086C460.372 29.233 460.15 29.3575 459.895 29.4595C459.64 29.5585 459.373 29.608 459.094 29.608ZM464.397 29.608C463.947 29.608 463.551 29.5075 463.209 29.3065C462.867 29.1055 462.612 28.819 462.444 28.447L462.993 28.249C463.125 28.513 463.308 28.711 463.542 28.843C463.779 28.975 464.064 29.041 464.397 29.041C464.73 29.041 464.994 28.969 465.189 28.825C465.387 28.678 465.486 28.486 465.486 28.249C465.486 28.015 465.384 27.8245 465.18 27.6775C464.976 27.5305 464.694 27.457 464.334 27.457H463.569V26.89H464.334C464.622 26.89 464.854 26.8135 465.031 26.6605C465.208 26.5075 465.297 26.308 465.297 26.062C465.297 25.837 465.213 25.6645 465.045 25.5445C464.88 25.4215 464.658 25.36 464.379 25.36C464.088 25.36 463.837 25.42 463.627 25.54C463.42 25.66 463.26 25.846 463.146 26.098L462.606 25.864C462.747 25.522 462.975 25.258 463.29 25.072C463.608 24.886 463.971 24.793 464.379 24.793C464.844 24.793 465.22 24.9085 465.508 25.1395C465.799 25.3705 465.945 25.678 465.945 26.062C465.945 26.281 465.888 26.482 465.774 26.665C465.663 26.848 465.477 27.001 465.216 27.124C465.537 27.223 465.769 27.376 465.913 27.583C466.06 27.787 466.134 28.009 466.134 28.249C466.134 28.654 465.975 28.9825 465.657 29.2345C465.339 29.4835 464.919 29.608 464.397 29.608ZM467.234 30.922V28.942H467.675C467.789 28.873 467.883 28.771 467.958 28.636C468.033 28.498 468.083 28.321 468.107 28.105L468.458 24.901H471.41V28.942H472.148V30.661L471.518 30.922V29.5H467.864V30.661L467.234 30.922ZM468.467 28.933H470.78V25.468H469.034L468.728 28.177C468.71 28.339 468.677 28.483 468.629 28.609C468.581 28.735 468.527 28.843 468.467 28.933Z" fill="#574030" />
    <path d="M446.774 44.5C446.774 43.9583 446.835 43.4925 446.956 43.1025C447.077 42.7125 447.249 42.3702 447.47 42.0755C447.695 41.7765 447.959 41.497 448.263 41.237C448.566 40.977 448.902 40.7083 449.27 40.431C449.608 40.1753 449.922 39.9197 450.213 39.664C450.507 39.4083 450.743 39.131 450.921 38.832C451.103 38.533 451.194 38.1907 451.194 37.805C451.194 37.311 451.047 36.8972 450.752 36.5635C450.462 36.2298 450.059 36.063 449.543 36.063C448.997 36.063 448.559 36.1995 448.23 36.4725C447.901 36.7412 447.684 37.0943 447.58 37.532L446.774 37.168C446.861 36.8127 447.03 36.4898 447.281 36.1995C447.532 35.9092 447.851 35.6773 448.237 35.504C448.622 35.3307 449.062 35.244 449.556 35.244C450.098 35.244 450.561 35.3502 450.947 35.5625C451.333 35.7748 451.627 36.0738 451.831 36.4595C452.039 36.8408 452.143 37.2893 452.143 37.805C452.143 38.338 452.028 38.7973 451.799 39.183C451.573 39.5687 451.274 39.9175 450.902 40.2295C450.529 40.5415 450.128 40.8513 449.699 41.159C449.391 41.38 449.088 41.6162 448.789 41.8675C448.494 42.1188 448.247 42.3897 448.048 42.68C447.853 42.9703 447.749 43.2867 447.736 43.629H452.221V44.5H446.774ZM457.255 44.656C456.683 44.656 456.171 44.5368 455.721 44.2985C455.274 44.0558 454.921 43.7308 454.661 43.3235C454.406 42.9118 454.278 42.4503 454.278 41.939C454.278 41.3713 454.429 40.8622 454.733 40.4115C455.036 39.9565 455.422 39.6423 455.89 39.469C455.508 39.3 455.214 39.0422 455.006 38.6955C454.798 38.3445 454.694 37.9783 454.694 37.597C454.694 37.1767 454.804 36.7888 455.025 36.4335C455.251 36.0738 455.556 35.7857 455.942 35.569C456.327 35.3523 456.765 35.244 457.255 35.244C457.744 35.244 458.182 35.3523 458.568 35.569C458.953 35.7857 459.257 36.0738 459.478 36.4335C459.703 36.7888 459.816 37.1767 459.816 37.597C459.816 37.9783 459.716 38.3445 459.517 38.6955C459.322 39.0422 459.018 39.3 458.607 39.469C459.088 39.651 459.478 39.9673 459.777 40.418C460.08 40.8643 460.232 41.3713 460.232 41.939C460.232 42.4503 460.102 42.9118 459.842 43.3235C459.586 43.7308 459.233 44.0558 458.782 44.2985C458.336 44.5368 457.827 44.656 457.255 44.656ZM457.255 43.837C457.835 43.837 458.319 43.6593 458.704 43.304C459.09 42.9487 459.283 42.4633 459.283 41.848C459.283 41.4753 459.198 41.133 459.029 40.821C458.86 40.509 458.624 40.2598 458.321 40.0735C458.017 39.8872 457.662 39.794 457.255 39.794C456.847 39.794 456.492 39.8872 456.189 40.0735C455.885 40.2598 455.649 40.509 455.48 40.821C455.311 41.133 455.227 41.4753 455.227 41.848C455.227 42.4633 455.42 42.9487 455.805 43.304C456.195 43.6593 456.678 43.837 457.255 43.837ZM457.255 39.196C457.757 39.196 458.156 39.0508 458.451 38.7605C458.745 38.4702 458.893 38.1083 458.893 37.675C458.893 37.1853 458.737 36.7953 458.425 36.505C458.113 36.2103 457.723 36.063 457.255 36.063C456.787 36.063 456.397 36.2103 456.085 36.505C455.773 36.7953 455.617 37.1853 455.617 37.675C455.617 38.1083 455.764 38.4702 456.059 38.7605C456.358 39.0508 456.756 39.196 457.255 39.196ZM465.005 44.682C464.771 44.682 464.576 44.5975 464.42 44.4285C464.264 44.2595 464.186 44.071 464.186 43.863C464.186 43.655 464.264 43.4665 464.42 43.2975C464.576 43.1285 464.771 43.044 465.005 43.044C465.239 43.044 465.434 43.1285 465.59 43.2975C465.746 43.4665 465.824 43.655 465.824 43.863C465.824 44.071 465.746 44.2595 465.59 44.4285C465.434 44.5975 465.239 44.682 465.005 44.682ZM472.314 44.5V36.648L470.312 37.376V36.479L473.224 35.348V44.5H472.314ZM470.052 44.5V43.629H475.46V44.5H470.052ZM480.507 44.656C479.913 44.656 479.415 44.5195 479.012 44.2465C478.613 43.9735 478.295 43.6095 478.056 43.1545C477.818 42.6995 477.647 42.1947 477.543 41.64C477.439 41.081 477.387 40.5177 477.387 39.95C477.387 39.5687 477.415 39.1635 477.471 38.7345C477.528 38.3055 477.623 37.8852 477.757 37.4735C477.892 37.0618 478.076 36.6892 478.31 36.3555C478.548 36.0175 478.847 35.7488 479.207 35.5495C479.567 35.3458 480 35.244 480.507 35.244C481.101 35.244 481.597 35.3827 481.995 35.66C482.398 35.9373 482.719 36.3057 482.957 36.765C483.196 37.2243 483.367 37.7313 483.471 38.286C483.575 38.8407 483.627 39.3953 483.627 39.95C483.627 40.3357 483.599 40.743 483.542 41.172C483.486 41.601 483.389 42.0213 483.25 42.433C483.116 42.8447 482.929 43.2195 482.691 43.5575C482.453 43.8912 482.154 44.1577 481.794 44.357C481.439 44.5563 481.01 44.656 480.507 44.656ZM480.507 43.837C480.962 43.837 481.33 43.7157 481.612 43.473C481.894 43.2303 482.11 42.914 482.262 42.524C482.414 42.134 482.515 41.7137 482.567 41.263C482.624 40.808 482.652 40.3703 482.652 39.95C482.652 39.4777 482.619 39.0118 482.554 38.5525C482.489 38.0932 482.379 37.6772 482.223 37.3045C482.067 36.9275 481.848 36.6263 481.566 36.401C481.289 36.1757 480.936 36.063 480.507 36.063C480.052 36.063 479.681 36.1865 479.395 36.4335C479.109 36.6762 478.891 36.9947 478.739 37.389C478.587 37.779 478.481 38.2015 478.42 38.6565C478.364 39.1072 478.336 39.5383 478.336 39.95C478.336 40.4267 478.368 40.8968 478.433 41.3605C478.498 41.8198 478.609 42.2358 478.765 42.6085C478.925 42.9812 479.146 43.2802 479.428 43.5055C479.714 43.7265 480.074 43.837 480.507 43.837ZM480.507 40.782C480.273 40.782 480.078 40.6975 479.922 40.5285C479.766 40.3595 479.688 40.171 479.688 39.963C479.688 39.755 479.766 39.5665 479.922 39.3975C480.078 39.2285 480.273 39.144 480.507 39.144C480.741 39.144 480.936 39.2285 481.092 39.3975C481.248 39.5665 481.326 39.755 481.326 39.963C481.326 40.171 481.248 40.3595 481.092 40.5285C480.936 40.6975 480.741 40.782 480.507 40.782ZM488.258 44.682C488.024 44.682 487.829 44.5975 487.673 44.4285C487.517 44.2595 487.439 44.071 487.439 43.863C487.439 43.655 487.517 43.4665 487.673 43.2975C487.829 43.1285 488.024 43.044 488.258 43.044C488.492 43.044 488.687 43.1285 488.843 43.2975C488.999 43.4665 489.077 43.655 489.077 43.863C489.077 44.071 488.999 44.2595 488.843 44.4285C488.687 44.5975 488.492 44.682 488.258 44.682ZM493.278 44.5C493.278 43.9583 493.339 43.4925 493.46 43.1025C493.582 42.7125 493.753 42.3702 493.974 42.0755C494.199 41.7765 494.464 41.497 494.767 41.237C495.07 40.977 495.406 40.7083 495.774 40.431C496.112 40.1753 496.427 39.9197 496.717 39.664C497.012 39.4083 497.248 39.131 497.425 38.832C497.607 38.533 497.698 38.1907 497.698 37.805C497.698 37.311 497.551 36.8972 497.256 36.5635C496.966 36.2298 496.563 36.063 496.047 36.063C495.501 36.063 495.064 36.1995 494.734 36.4725C494.405 36.7412 494.188 37.0943 494.084 37.532L493.278 37.168C493.365 36.8127 493.534 36.4898 493.785 36.1995C494.037 35.9092 494.355 35.6773 494.741 35.504C495.127 35.3307 495.566 35.244 496.06 35.244C496.602 35.244 497.066 35.3502 497.451 35.5625C497.837 35.7748 498.132 36.0738 498.335 36.4595C498.543 36.8408 498.647 37.2893 498.647 37.805C498.647 38.338 498.533 38.7973 498.303 39.183C498.078 39.5687 497.779 39.9175 497.406 40.2295C497.033 40.5415 496.632 40.8513 496.203 41.159C495.896 41.38 495.592 41.6162 495.293 41.8675C494.999 42.1188 494.752 42.3897 494.552 42.68C494.357 42.9703 494.253 43.2867 494.24 43.629H498.725V44.5H493.278ZM503.759 44.656C503.166 44.656 502.667 44.5195 502.264 44.2465C501.866 43.9735 501.547 43.6095 501.309 43.1545C501.07 42.6995 500.899 42.1947 500.795 41.64C500.691 41.081 500.639 40.5177 500.639 39.95C500.639 39.5687 500.667 39.1635 500.724 38.7345C500.78 38.3055 500.875 37.8852 501.01 37.4735C501.144 37.0618 501.328 36.6892 501.562 36.3555C501.801 36.0175 502.1 35.7488 502.459 35.5495C502.819 35.3458 503.252 35.244 503.759 35.244C504.353 35.244 504.849 35.3827 505.248 35.66C505.651 35.9373 505.971 36.3057 506.21 36.765C506.448 37.2243 506.619 37.7313 506.723 38.286C506.827 38.8407 506.879 39.3953 506.879 39.95C506.879 40.3357 506.851 40.743 506.795 41.172C506.738 41.601 506.641 42.0213 506.502 42.433C506.368 42.8447 506.182 43.2195 505.943 43.5575C505.705 43.8912 505.406 44.1577 505.046 44.357C504.691 44.5563 504.262 44.656 503.759 44.656ZM503.759 43.837C504.214 43.837 504.583 43.7157 504.864 43.473C505.146 43.2303 505.363 42.914 505.514 42.524C505.666 42.134 505.768 41.7137 505.82 41.263C505.876 40.808 505.904 40.3703 505.904 39.95C505.904 39.4777 505.872 39.0118 505.807 38.5525C505.742 38.0932 505.631 37.6772 505.475 37.3045C505.319 36.9275 505.1 36.6263 504.819 36.401C504.541 36.1757 504.188 36.063 503.759 36.063C503.304 36.063 502.934 36.1865 502.648 36.4335C502.362 36.6762 502.143 36.9947 501.991 37.389C501.84 37.779 501.733 38.2015 501.673 38.6565C501.616 39.1072 501.588 39.5383 501.588 39.95C501.588 40.4267 501.621 40.8968 501.686 41.3605C501.751 41.8198 501.861 42.2358 502.017 42.6085C502.178 42.9812 502.399 43.2802 502.68 43.5055C502.966 43.7265 503.326 43.837 503.759 43.837ZM503.759 40.782C503.525 40.782 503.33 40.6975 503.174 40.5285C503.018 40.3595 502.94 40.171 502.94 39.963C502.94 39.755 503.018 39.5665 503.174 39.3975C503.33 39.2285 503.525 39.144 503.759 39.144C503.993 39.144 504.188 39.2285 504.344 39.3975C504.5 39.5665 504.578 39.755 504.578 39.963C504.578 40.171 504.5 40.3595 504.344 40.5285C504.188 40.6975 503.993 40.782 503.759 40.782ZM508.78 44.5C508.78 43.9583 508.841 43.4925 508.962 43.1025C509.083 42.7125 509.254 42.3702 509.475 42.0755C509.701 41.7765 509.965 41.497 510.268 41.237C510.572 40.977 510.908 40.7083 511.276 40.431C511.614 40.1753 511.928 39.9197 512.218 39.664C512.513 39.4083 512.749 39.131 512.927 38.832C513.109 38.533 513.2 38.1907 513.2 37.805C513.2 37.311 513.053 36.8972 512.758 36.5635C512.468 36.2298 512.065 36.063 511.549 36.063C511.003 36.063 510.565 36.1995 510.236 36.4725C509.907 36.7412 509.69 37.0943 509.586 37.532L508.78 37.168C508.867 36.8127 509.036 36.4898 509.287 36.1995C509.538 35.9092 509.857 35.6773 510.242 35.504C510.628 35.3307 511.068 35.244 511.562 35.244C512.104 35.244 512.567 35.3502 512.953 35.5625C513.339 35.7748 513.633 36.0738 513.837 36.4595C514.045 36.8408 514.149 37.2893 514.149 37.805C514.149 38.338 514.034 38.7973 513.804 39.183C513.579 39.5687 513.28 39.9175 512.907 40.2295C512.535 40.5415 512.134 40.8513 511.705 41.159C511.397 41.38 511.094 41.6162 510.795 41.8675C510.5 42.1188 510.253 42.3897 510.054 42.68C509.859 42.9703 509.755 43.2867 509.742 43.629H514.227V44.5H508.78ZM519.066 44.656C518.637 44.656 518.247 44.5975 517.896 44.4805C517.545 44.3635 517.244 44.2162 516.992 44.0385C516.741 43.8608 516.548 43.681 516.414 43.499L516.947 42.836C517.202 43.1133 517.493 43.3495 517.818 43.5445C518.143 43.7395 518.554 43.837 519.053 43.837C519.46 43.837 519.82 43.7373 520.132 43.538C520.448 43.3343 520.695 43.0657 520.873 42.732C521.055 42.394 521.146 42.0257 521.146 41.627C521.146 41.2327 521.074 40.873 520.931 40.548C520.793 40.223 520.589 39.9652 520.32 39.7745C520.056 39.5795 519.737 39.482 519.365 39.482C518.931 39.482 518.561 39.5795 518.253 39.7745C517.95 39.9652 517.714 40.158 517.545 40.353L516.778 40.119L517.519 35.4H521.627V36.219H518.247L517.727 39.391C517.956 39.144 518.227 38.9555 518.539 38.8255C518.851 38.6912 519.191 38.624 519.56 38.624C520.049 38.624 520.485 38.7475 520.866 38.9945C521.252 39.2415 521.555 39.586 521.776 40.028C521.997 40.4657 522.108 40.9727 522.108 41.549C522.108 41.9303 522.038 42.3052 521.9 42.6735C521.765 43.0418 521.568 43.3755 521.308 43.6745C521.048 43.9735 520.73 44.2118 520.353 44.3895C519.976 44.5672 519.547 44.656 519.066 44.656Z" fill="#574030" />
    <g clip-path="url(#clip1_1580_21895)">
        <path d="M823.333 28.8333H821V27.5H820.333V28.8333H813.667V27.5H813V28.8333H810.667C810.225 28.8339 809.801 29.0096 809.489 29.3221C809.176 29.6345 809.001 30.0581 809 30.5V43.5H825V30.5C825 29.5813 824.252 28.8333 823.333 28.8333ZM810.667 29.5H823.333C823.885 29.5 824.333 29.9487 824.333 30.5V32.8333H809.667V30.5C809.667 29.9487 810.115 29.5 810.667 29.5ZM809.667 42.8333V33.5H824.333V42.8333H809.667Z" fill="#574030" />
        <path d="M815 36.166H816.333V36.8327H815V36.166ZM817.666 36.166H819V36.8327H817.666V36.166ZM820.333 36.166H821.666V36.8327H820.333V36.166ZM815 39.4993H816.333V40.166H815V39.4993ZM812.333 36.166H813.666V36.8327H812.333V36.166ZM812.333 39.4993H813.666V40.166H812.333V39.4993ZM817.666 39.4993H819V40.166H817.666V39.4993ZM820.333 39.4993H821.666V40.166H820.333V39.4993Z" fill="#574030" />
    </g>
    <rect width="223" height="47" transform="translate(855 12)" fill="#591A0B" />
    <path d="M911.665 39.68C910.725 39.68 909.928 39.4525 909.273 38.9975C908.618 38.5375 908.155 37.9275 907.885 37.1675L909.13 36.635C909.375 37.225 909.705 37.66 910.12 37.94C910.535 38.215 911.05 38.3525 911.665 38.3525C912.275 38.3525 912.768 38.195 913.143 37.88C913.518 37.565 913.705 37.1275 913.705 36.5675C913.705 36.0025 913.518 35.5525 913.143 35.2175C912.768 34.8775 912.233 34.7075 911.538 34.7075H910.135V33.38H911.463C911.808 33.38 912.12 33.31 912.4 33.17C912.68 33.025 912.903 32.83 913.068 32.585C913.233 32.335 913.315 32.0525 913.315 31.7375C913.315 31.2425 913.16 30.855 912.85 30.575C912.545 30.29 912.138 30.1475 911.628 30.1475C911.133 30.1475 910.69 30.28 910.3 30.545C909.915 30.81 909.623 31.155 909.423 31.58L908.17 31.0775C908.35 30.6325 908.605 30.24 908.935 29.9C909.27 29.56 909.665 29.295 910.12 29.105C910.575 28.915 911.075 28.82 911.62 28.82C912.26 28.82 912.815 28.9425 913.285 29.1875C913.755 29.4275 914.118 29.7625 914.373 30.1925C914.633 30.6225 914.763 31.12 914.763 31.685C914.763 32.195 914.623 32.6575 914.343 33.0725C914.068 33.4825 913.683 33.785 913.188 33.98C913.793 34.15 914.273 34.46 914.628 34.91C914.983 35.355 915.16 35.9025 915.16 36.5525C915.16 37.1975 915.013 37.755 914.718 38.225C914.428 38.69 914.02 39.05 913.495 39.305C912.97 39.555 912.36 39.68 911.665 39.68ZM916.633 39.5L920.083 29H921.328L924.793 39.5H923.301L920.983 32.0525C920.963 31.9875 920.933 31.89 920.893 31.76C920.858 31.625 920.823 31.4875 920.788 31.3475C920.753 31.2075 920.726 31.09 920.706 30.995C920.686 31.09 920.658 31.2075 920.623 31.3475C920.588 31.4875 920.553 31.6225 920.518 31.7525C920.488 31.8825 920.461 31.9825 920.436 32.0525L918.141 39.5H916.633ZM918.538 36.9875L918.936 35.7125H922.483L922.881 36.9875H918.538ZM926.911 30.32V29H932.724V30.32H926.911ZM926.551 39.5V29H927.969V33.38H930.166C931.011 33.38 931.689 33.53 932.199 33.83C932.709 34.13 933.076 34.515 933.301 34.985C933.526 35.455 933.639 35.94 933.639 36.44C933.639 36.94 933.526 37.425 933.301 37.895C933.076 38.36 932.709 38.745 932.199 39.05C931.689 39.35 931.011 39.5 930.166 39.5H926.551ZM927.969 38.1425H930.249C930.729 38.1425 931.111 38.0675 931.396 37.9175C931.681 37.7625 931.886 37.5575 932.011 37.3025C932.141 37.0425 932.206 36.755 932.206 36.44C932.206 36.12 932.141 35.83 932.011 35.57C931.886 35.31 931.681 35.105 931.396 34.955C931.111 34.8 930.729 34.7225 930.249 34.7225H927.969V38.1425ZM935.644 39.5V29H939.004C939.859 29 940.534 29.155 941.029 29.465C941.529 29.775 941.884 30.1725 942.094 30.6575C942.309 31.1425 942.417 31.6475 942.417 32.1725C942.417 32.5325 942.354 32.9 942.229 33.275C942.104 33.645 941.907 33.9875 941.637 34.3025C941.367 34.6125 941.014 34.8625 940.579 35.0525C940.149 35.2425 939.624 35.3375 939.004 35.3375H937.062V39.5H935.644ZM937.062 34.025H939.094C939.564 34.025 939.939 33.9325 940.219 33.7475C940.499 33.5575 940.699 33.32 940.819 33.035C940.944 32.75 941.007 32.4625 941.007 32.1725C941.007 31.9075 940.952 31.6325 940.842 31.3475C940.732 31.0575 940.537 30.8125 940.257 30.6125C939.982 30.4125 939.594 30.3125 939.094 30.3125H937.062V34.025ZM947.993 39.68C947.328 39.68 946.76 39.5275 946.29 39.2225C945.825 38.9125 945.448 38.4975 945.158 37.9775C944.868 37.4575 944.655 36.875 944.52 36.23C944.385 35.585 944.318 34.925 944.318 34.25C944.318 33.57 944.385 32.9075 944.52 32.2625C944.655 31.6175 944.868 31.0375 945.158 30.5225C945.448 30.0025 945.825 29.59 946.29 29.285C946.76 28.975 947.328 28.82 947.993 28.82C948.663 28.82 949.23 28.975 949.695 29.285C950.165 29.59 950.545 30.0025 950.835 30.5225C951.125 31.0375 951.338 31.6175 951.473 32.2625C951.608 32.9075 951.675 33.57 951.675 34.25C951.675 34.925 951.608 35.585 951.473 36.23C951.338 36.875 951.125 37.4575 950.835 37.9775C950.545 38.4975 950.165 38.9125 949.695 39.2225C949.23 39.5275 948.663 39.68 947.993 39.68ZM947.993 38.36C948.393 38.36 948.733 38.24 949.013 38C949.293 37.76 949.52 37.4425 949.695 37.0475C949.87 36.6475 949.998 36.205 950.078 35.72C950.158 35.235 950.198 34.745 950.198 34.25C950.198 33.715 950.158 33.2025 950.078 32.7125C949.998 32.2175 949.87 31.7775 949.695 31.3925C949.52 31.0075 949.293 30.7025 949.013 30.4775C948.733 30.2525 948.393 30.14 947.993 30.14C947.593 30.14 947.253 30.26 946.973 30.5C946.693 30.735 946.465 31.0525 946.29 31.4525C946.12 31.8475 945.993 32.2875 945.908 32.7725C945.828 33.2575 945.788 33.75 945.788 34.25C945.788 34.78 945.828 35.2925 945.908 35.7875C945.993 36.2775 946.12 36.7175 946.29 37.1075C946.465 37.4925 946.693 37.7975 946.973 38.0225C947.253 38.2475 947.593 38.36 947.993 38.36ZM953.831 39.5V29H955.248V33.395H958.923V29H960.341V39.5H958.923V34.73H955.248V39.5H953.831ZM962.924 39.5V29H964.274V36.0575C964.274 36.1325 964.271 36.2175 964.266 36.3125C964.266 36.4075 964.261 36.525 964.251 36.665C964.291 36.575 964.341 36.47 964.401 36.35C964.461 36.23 964.509 36.135 964.544 36.065L968.024 29H969.434V39.5H968.076V32.4875C968.076 32.4025 968.079 32.31 968.084 32.21C968.089 32.105 968.096 31.995 968.106 31.88C968.066 31.965 968.016 32.07 967.956 32.195C967.896 32.315 967.844 32.415 967.799 32.495L964.296 39.5H962.924ZM972.017 39.5V29H975.377C976.232 29 976.907 29.155 977.402 29.465C977.902 29.775 978.257 30.1725 978.467 30.6575C978.682 31.1425 978.79 31.6475 978.79 32.1725C978.79 32.5325 978.727 32.9 978.602 33.275C978.477 33.645 978.28 33.9875 978.01 34.3025C977.74 34.6125 977.387 34.8625 976.952 35.0525C976.522 35.2425 975.997 35.3375 975.377 35.3375H973.435V39.5H972.017ZM973.435 34.025H975.467C975.937 34.025 976.312 33.9325 976.592 33.7475C976.872 33.5575 977.072 33.32 977.192 33.035C977.317 32.75 977.38 32.4625 977.38 32.1725C977.38 31.9075 977.325 31.6325 977.215 31.3475C977.105 31.0575 976.91 30.8125 976.63 30.6125C976.355 30.4125 975.967 30.3125 975.467 30.3125H973.435V34.025ZM984.365 39.68C983.7 39.68 983.133 39.5275 982.663 39.2225C982.198 38.9125 981.82 38.4975 981.53 37.9775C981.24 37.4575 981.028 36.875 980.893 36.23C980.758 35.585 980.69 34.925 980.69 34.25C980.69 33.57 980.758 32.9075 980.893 32.2625C981.028 31.6175 981.24 31.0375 981.53 30.5225C981.82 30.0025 982.198 29.59 982.663 29.285C983.133 28.975 983.7 28.82 984.365 28.82C985.035 28.82 985.603 28.975 986.068 29.285C986.538 29.59 986.918 30.0025 987.208 30.5225C987.498 31.0375 987.71 31.6175 987.845 32.2625C987.98 32.9075 988.048 33.57 988.048 34.25C988.048 34.925 987.98 35.585 987.845 36.23C987.71 36.875 987.498 37.4575 987.208 37.9775C986.918 38.4975 986.538 38.9125 986.068 39.2225C985.603 39.5275 985.035 39.68 984.365 39.68ZM984.365 38.36C984.765 38.36 985.105 38.24 985.385 38C985.665 37.76 985.893 37.4425 986.068 37.0475C986.243 36.6475 986.37 36.205 986.45 35.72C986.53 35.235 986.57 34.745 986.57 34.25C986.57 33.715 986.53 33.2025 986.45 32.7125C986.37 32.2175 986.243 31.7775 986.068 31.3925C985.893 31.0075 985.665 30.7025 985.385 30.4775C985.105 30.2525 984.765 30.14 984.365 30.14C983.965 30.14 983.625 30.26 983.345 30.5C983.065 30.735 982.838 31.0525 982.663 31.4525C982.493 31.8475 982.365 32.2875 982.28 32.7725C982.2 33.2575 982.16 33.75 982.16 34.25C982.16 34.78 982.2 35.2925 982.28 35.7875C982.365 36.2775 982.493 36.7175 982.663 37.1075C982.838 37.4925 983.065 37.7975 983.345 38.0225C983.625 38.2475 983.965 38.36 984.365 38.36ZM990.203 39.5V29H993.346C994.181 29 994.838 29.135 995.318 29.405C995.798 29.675 996.136 30.0225 996.331 30.4475C996.531 30.8675 996.631 31.31 996.631 31.775C996.631 32.27 996.498 32.71 996.233 33.095C995.973 33.475 995.603 33.765 995.123 33.965C995.703 34.13 996.161 34.4375 996.496 34.8875C996.831 35.3325 996.998 35.8675 996.998 36.4925C996.998 36.8525 996.941 37.21 996.826 37.565C996.716 37.92 996.528 38.245 996.263 38.54C995.998 38.83 995.646 39.0625 995.206 39.2375C994.771 39.4125 994.228 39.5 993.578 39.5H990.203ZM991.621 38.2025H993.728C994.223 38.2025 994.608 38.12 994.883 37.955C995.158 37.79 995.348 37.5825 995.453 37.3325C995.563 37.0775 995.618 36.815 995.618 36.545C995.618 36.23 995.553 35.9325 995.423 35.6525C995.298 35.3675 995.066 35.1375 994.726 34.9625C994.386 34.7825 993.898 34.6925 993.263 34.6925H991.621V38.2025ZM991.621 33.4175H993.098C993.818 33.4175 994.356 33.2725 994.711 32.9825C995.071 32.6875 995.251 32.3 995.251 31.82C995.251 31.575 995.203 31.335 995.108 31.1C995.013 30.865 994.833 30.6725 994.568 30.5225C994.303 30.3725 993.918 30.2975 993.413 30.2975H991.621V33.4175ZM998.472 39.5L1001.92 29H1003.17L1006.63 39.5H1005.14L1002.82 32.0525C1002.8 31.9875 1002.77 31.89 1002.73 31.76C1002.7 31.625 1002.66 31.4875 1002.63 31.3475C1002.59 31.2075 1002.56 31.09 1002.54 30.995C1002.52 31.09 1002.5 31.2075 1002.46 31.3475C1002.43 31.4875 1002.39 31.6225 1002.36 31.7525C1002.33 31.8825 1002.3 31.9825 1002.27 32.0525L999.979 39.5H998.472ZM1000.38 36.9875L1000.77 35.7125H1004.32L1004.72 36.9875H1000.38ZM1010.93 39.5V30.3575H1007.91V29H1015.38V30.3575H1012.35V39.5H1010.93ZM1017.48 39.5V29H1018.9V33.38H1021.1C1021.94 33.38 1022.62 33.53 1023.13 33.83C1023.64 34.13 1024.01 34.515 1024.23 34.985C1024.46 35.455 1024.57 35.94 1024.57 36.44C1024.57 36.94 1024.46 37.425 1024.23 37.895C1024.01 38.36 1023.64 38.745 1023.13 39.05C1022.62 39.35 1021.94 39.5 1021.1 39.5H1017.48ZM1018.9 38.1425H1021.18C1021.66 38.1425 1022.04 38.0675 1022.33 37.9175C1022.61 37.7625 1022.82 37.5575 1022.94 37.3025C1023.07 37.0425 1023.14 36.755 1023.14 36.44C1023.14 36.12 1023.07 35.83 1022.94 35.57C1022.82 35.31 1022.61 35.105 1022.33 34.955C1022.04 34.8 1021.66 34.7225 1021.18 34.7225H1018.9V38.1425Z" fill="#EAE6E1" />
    <defs>
        <clipPath id="clip0_1580_21895">
            <rect width="16" height="16" fill="white" transform="translate(387.5 27.5)" />
        </clipPath>
        <clipPath id="clip1_1580_21895">
            <rect width="16" height="16" fill="white" transform="translate(809 27.5)" />
        </clipPath>
    </defs>
</svg>