<svg xmlns="http://www.w3.org/2000/svg" width="283" height="100" viewBox="0 0 283 100" fill="none">
    <g clip-path="url(#clip0_1621_7996)">
        <path d="M151.737 15.9273V13.8462C146.713 13.8462 142.92 18.1296 140.495 23.2614C138.071 18.1296 134.277 13.8462 129.253 13.8462V15.9273C129.782 15.9273 130.289 15.9958 130.786 16.1117V39.7998H128.82V41.881H134.663V39.7998H132.872V16.9705C135.688 18.6354 137.912 22.097 139.402 25.8694C138.049 29.5206 137.352 33.2983 137.352 36.0959C137.352 37.6871 137.558 38.9779 137.965 39.9316C138.657 41.5543 139.782 41.8546 140.448 41.881V41.8862C140.464 41.8862 140.479 41.8862 140.495 41.8862C140.511 41.8862 140.527 41.8862 140.543 41.8862V41.881C141.214 41.8546 142.339 41.5543 143.026 39.9368C143.433 38.9832 143.639 37.6923 143.639 36.1012C143.639 33.3035 142.941 29.5259 141.589 25.8746C143.168 21.8652 145.577 18.2087 148.647 16.686V39.8051H146.856V41.8862H152.699V39.8051H150.733V16.0116C151.061 15.9589 151.399 15.9273 151.737 15.9273ZM141.557 36.0959C141.557 37.7292 141.314 38.6407 141.113 39.1149C140.86 39.7155 140.617 39.784 140.501 39.7946C140.384 39.784 140.141 39.7155 139.888 39.1149C139.687 38.6354 139.444 37.724 139.444 36.0959C139.444 34.1044 139.809 31.6491 140.506 29.1465C141.193 31.6491 141.557 34.1044 141.557 36.0959Z" fill="#591A0B" />
        <path d="M140.336 1.7229C135.439 1.7229 131.039 4.83144 129.369 9.36779H122.57V47.371H158.499V9.36779H151.298C149.634 4.82617 145.234 1.7229 140.336 1.7229ZM156.417 45.2898H124.657V11.4489H130.907L131.123 10.7008C132.307 6.6386 136.094 3.80404 140.331 3.80404C144.568 3.80404 148.356 6.6386 149.539 10.7008L149.756 11.4489H156.407V45.2898H156.417Z" fill="#591A0B" />
        <path d="M160.381 49.294H120.797V7.64489H128.214C130.459 2.99789 135.219 0 140.386 0C145.552 0 150.312 2.99789 152.562 7.64489H160.381V49.294ZM121.843 48.2508H159.33V8.69336H151.891L151.68 8.24025C149.636 3.86723 145.203 1.0432 140.386 1.0432C135.568 1.0432 131.135 3.86723 129.091 8.24025L128.88 8.69336H121.843V48.2508Z" fill="#591A0B" />
        <path d="M115.711 33.5774H101.875V34.5416H115.711V33.5774Z" fill="#591A0B" />
        <path d="M179.816 33.5774H165.98V34.5416H179.816V33.5774Z" fill="#591A0B" />
        <path d="M172.457 29.9633V31.1118H166.102V30.0845L169.181 28.3352C169.715 28.0297 170.106 27.7873 170.349 27.6134C170.592 27.4396 170.756 27.2815 170.84 27.134C170.925 26.9865 170.967 26.8073 170.967 26.5966V26.4965C170.967 26.1645 170.814 25.9064 170.513 25.7272C170.212 25.5481 169.778 25.4638 169.208 25.4638C168.627 25.4638 168.183 25.5586 167.877 25.7536C167.57 25.9485 167.417 26.2383 167.417 26.6176V26.8231H166.133V26.6071C166.133 25.859 166.397 25.2794 166.92 24.879C167.443 24.4786 168.194 24.2731 169.171 24.2731C170.127 24.2731 170.877 24.468 171.421 24.8526C171.965 25.2372 172.235 25.7747 172.235 26.4543V26.5544C172.235 26.918 172.166 27.2288 172.029 27.4975C171.892 27.761 171.654 28.0297 171.316 28.2931C170.978 28.5565 170.481 28.8779 169.831 29.2467L168.558 29.9633H172.457Z" fill="#591A0B" />
        <path d="M179.065 27.3816C179.625 27.7346 179.905 28.2404 179.905 28.899V29.0202C179.905 29.7156 179.609 30.2583 179.022 30.6482C178.436 31.0381 177.622 31.233 176.592 31.233C175.847 31.233 175.203 31.1277 174.664 30.9222C174.125 30.7167 173.713 30.4164 173.428 30.0212C173.143 29.6313 173 29.1677 173 28.6356V27.0497C173 26.1751 173.312 25.4954 173.935 25.0054C174.558 24.5154 175.43 24.2731 176.55 24.2731C177.554 24.2731 178.346 24.4627 178.927 24.8474C179.503 25.232 179.794 25.7588 179.794 26.4332V26.507H178.521V26.4332C178.521 26.1171 178.346 25.88 178.003 25.7114C177.659 25.5428 177.173 25.4585 176.55 25.4585C175.8 25.4585 175.229 25.5902 174.844 25.8537C174.458 26.1171 174.268 26.507 174.268 27.0233V27.4554C174.838 27.0549 175.641 26.8495 176.687 26.8495C177.712 26.8495 178.505 27.0286 179.065 27.3816ZM178.621 28.9517C178.621 28.3352 177.971 28.0297 176.672 28.0297C176.101 28.0297 175.615 28.0876 175.198 28.2088C174.786 28.33 174.474 28.4986 174.268 28.7146C174.289 29.1361 174.5 29.4627 174.902 29.6998C175.303 29.9369 175.874 30.0476 176.608 30.0476C177.242 30.0476 177.739 29.9633 178.093 29.7999C178.447 29.6366 178.621 29.3943 178.621 29.0729V28.9517Z" fill="#591A0B" />
        <path d="M108.222 29.9631V31.1117H101.867V30.0843L104.947 28.3351C105.481 28.0295 105.872 27.7872 106.115 27.6133C106.358 27.4394 106.521 27.2814 106.606 27.1339C106.69 26.9863 106.733 26.8072 106.733 26.5964V26.4963C106.733 26.1644 106.579 25.9062 106.278 25.7271C105.977 25.548 105.544 25.4637 104.973 25.4637C104.392 25.4637 103.949 25.5585 103.642 25.7535C103.336 25.9484 103.183 26.2382 103.183 26.6175V26.823H101.899V26.607C101.899 25.8588 102.163 25.2793 102.686 24.8789C103.209 24.4784 103.959 24.2729 104.936 24.2729C105.893 24.2729 106.643 24.4679 107.187 24.8525C107.731 25.2371 108.001 25.7745 108.001 26.4542V26.5543C108.001 26.9178 107.932 27.2287 107.794 27.4974C107.657 27.7608 107.419 28.0295 107.081 28.293C106.743 28.5564 106.247 28.8778 105.597 29.2466L104.324 29.9631H108.222Z" fill="#591A0B" />
        <path d="M110.468 30.8536C109.929 30.6007 109.507 30.2477 109.211 29.7946C108.915 29.3414 108.762 28.8146 108.762 28.2245V27.2919C108.762 26.6966 108.91 26.175 109.211 25.7166C109.507 25.2582 109.929 24.9052 110.468 24.6523C111.007 24.3994 111.63 24.2729 112.338 24.2729C113.036 24.2729 113.654 24.3994 114.192 24.6523C114.731 24.9052 115.143 25.2582 115.439 25.7166C115.735 26.175 115.883 26.7018 115.883 27.2919V28.2245C115.883 28.8251 115.735 29.352 115.439 29.8051C115.143 30.2582 114.731 30.6112 114.198 30.8588C113.664 31.1065 113.046 31.2329 112.338 31.2329C111.63 31.2329 111.007 31.1065 110.468 30.8536ZM114.008 29.5733C114.404 29.2571 114.605 28.8146 114.605 28.2403V27.2761C114.605 26.7071 114.404 26.2645 113.997 25.9379C113.59 25.6112 113.036 25.4531 112.322 25.4531C111.604 25.4531 111.044 25.6112 110.637 25.9326C110.236 26.254 110.03 26.7018 110.03 27.2708V28.235C110.03 28.804 110.23 29.2413 110.637 29.5627C111.039 29.8789 111.604 30.0369 112.333 30.0369C113.057 30.0422 113.611 29.8894 114.008 29.5733Z" fill="#591A0B" />
        <path d="M181.493 55.9325C176.945 55.9325 169.316 58.7934 169.316 77.9662C169.316 91.9704 173.754 99.9999 181.493 99.9999C189.233 99.9999 193.67 91.9704 193.67 77.9662C193.67 58.7934 186.042 55.9325 181.493 55.9325ZM181.493 93.883C177.029 93.883 175.45 85.3055 175.45 77.9662C175.45 74.2307 175.888 62.0495 181.493 62.0495C187.098 62.0495 187.537 74.2307 187.537 77.9662C187.537 85.3108 185.957 93.883 181.493 93.883Z" fill="#591A0B" />
        <path d="M121.901 97.982C120.797 97.982 119.498 96.9705 119.223 94.8893L114.6 61.1485C114.289 58.8566 115.884 57.9504 116.983 57.9504C117.411 57.9504 117.411 57.3972 116.994 57.3972C115.905 57.3972 113.047 57.3972 111.156 57.4025H109.508H108.457H106.803C104.912 57.4025 102.054 57.3972 100.966 57.3972C100.548 57.3972 100.548 57.9504 100.976 57.9504C102.08 57.9504 103.686 58.8566 103.359 61.1696C103.359 61.1749 103.359 61.1749 103.359 61.1801L98.7362 94.9315C98.4456 96.9863 97.1619 97.9873 96.0684 97.9873C95.6405 97.9873 95.6404 98.5405 96.0578 98.5405C96.7763 98.5405 97.5634 98.5405 98.2449 98.5405H103.876V98.5353C104.595 98.5353 106.016 98.5405 107.22 98.5405C107.638 98.5405 107.638 97.9873 107.21 97.9873C106.106 97.9873 104.088 97.0495 104.383 94.8893C104.42 94.6259 104.442 94.4362 104.457 94.2782L105.646 85.6111H112.318L113.549 94.5943C113.56 94.6891 113.57 94.7681 113.586 94.8893C113.877 97.0495 111.864 97.9873 110.76 97.9873C110.332 97.9873 110.332 98.5405 110.749 98.5405C111.954 98.5405 113.37 98.5405 114.088 98.5353V98.5405H119.719C120.401 98.5405 121.193 98.5405 121.912 98.5405C122.329 98.5353 122.329 97.982 121.901 97.982ZM106.417 80L108.985 61.2434L111.552 80H106.417Z" fill="#591A0B" />
        <path d="M93.7714 97.982C92.6673 97.982 91.3994 96.9915 91.3994 94.884C91.3994 94.6312 91.3889 94.452 91.373 94.3098V61.001C91.3941 58.9304 92.6462 57.9504 93.7397 57.9504C94.1676 57.9504 94.1676 57.3972 93.7503 57.3972C92.6515 57.3972 91.3783 57.3972 90.6123 57.4025H86.0162C85.8525 57.4025 85.7046 57.5079 85.6517 57.6607L79.5659 74.8999L73.6598 57.6659C73.5224 57.5711 73.4273 57.5026 73.29 57.4025H68.6886C67.9226 57.4025 66.6495 57.3972 65.5507 57.3972C65.1333 57.3972 65.1333 57.9504 65.5612 57.9504C66.6653 57.9504 67.9332 58.9409 67.9332 61.0484C67.9332 61.0537 67.9332 61.059 67.9332 61.0642V94.1886C67.9068 94.3308 67.8857 94.5416 67.8857 94.884C67.8857 96.9863 66.6178 97.982 65.5137 97.982C65.0858 97.982 65.0858 98.5353 65.5031 98.5353C66.3061 98.5353 67.2042 98.5353 67.9332 98.5353H73.5647C74.2884 98.5353 75.1759 98.5353 75.9683 98.5353C76.3857 98.5353 76.3857 97.982 75.9578 97.982C74.8537 97.982 73.5858 96.9915 73.5858 94.884C73.5858 94.647 73.5752 94.4731 73.5647 94.3361V72.4341L79.6505 86.3698L85.7363 72.4341V94.7418C85.7363 94.7945 85.731 94.8261 85.731 94.8893C85.731 96.9915 84.4631 97.9873 83.359 97.9873C82.9311 97.9873 82.9311 98.5405 83.3484 98.5405C84.1356 98.5405 85.0178 98.5405 85.7363 98.5405H91.3677C92.0915 98.5405 92.979 98.5405 93.7767 98.5405C94.1993 98.5353 94.1993 97.982 93.7714 97.982Z" fill="#591A0B" />
        <path d="M170.128 97.982C169.024 97.982 167.861 96.9862 167.756 94.884C167.756 94.8682 167.756 94.8629 167.751 94.8471C167.275 82.5394 162.785 73.6511 160.64 70.0262C162.991 67.9029 164.919 65.0315 165.696 61.1801C165.722 61.0905 165.743 61.0167 165.769 60.9008C166.224 58.846 167.217 57.9609 168.321 57.9609C168.749 57.9609 168.749 57.4077 168.332 57.4077C167.587 57.4077 166.768 57.4077 166.071 57.4077C166.071 57.4024 166.071 57.4024 166.071 57.3971H160.582C160.376 57.3971 160.212 57.571 160.207 57.7765C160.038 64.5046 155.426 67.2707 152.135 68.4193V61.2222C152.135 61.159 152.14 61.1116 152.14 61.0378C152.14 58.9356 153.408 57.9398 154.512 57.9398C154.94 57.9398 154.94 57.3866 154.522 57.3866C153.424 57.3866 152.15 57.3866 151.384 57.3919H147.243C146.477 57.3919 145.203 57.3866 144.105 57.3866C143.687 57.3866 143.687 57.9398 144.115 57.9398C145.219 57.9398 146.487 58.9303 146.487 61.0378C146.487 61.1485 146.492 61.2222 146.498 61.3118V94.7839C146.498 94.8207 146.492 94.8366 146.492 94.8787C146.492 96.9809 145.225 97.9767 144.121 97.9767C143.693 97.9767 143.693 98.5299 144.11 98.5299C144.897 98.5299 145.779 98.5299 146.498 98.5299H152.129C152.848 98.5299 153.73 98.5299 154.522 98.5299C154.94 98.5299 154.94 97.9767 154.512 97.9767C153.408 97.9767 152.14 96.9862 152.14 94.8787C152.14 94.7891 152.135 94.7364 152.135 94.6627V74.5468C153.27 74.257 154.491 73.7933 155.722 73.2296C157.75 76.7702 162.198 85.9588 161.955 98.1295C161.95 98.3455 162.119 98.5246 162.336 98.5246H167.782C168.495 98.5246 169.362 98.5246 170.138 98.5246C170.55 98.5352 170.55 97.982 170.128 97.982Z" fill="#591A0B" />
        <path d="M141.27 60.1844C138.243 57.2234 131.259 57.4025 131.259 57.4025H126.389C125.623 57.4025 124.349 57.3972 123.251 57.3972C122.833 57.3972 122.833 57.9504 123.261 57.9504C124.355 57.9504 125.607 58.9357 125.628 61.001V94.8524C125.628 94.863 125.628 94.8682 125.628 94.884C125.628 96.9863 124.36 97.982 123.256 97.982C122.828 97.982 122.828 98.5353 123.245 98.5353C124.032 98.5353 124.909 98.5353 125.628 98.5353H131.259C131.983 98.5353 132.865 98.5353 133.658 98.5353C134.075 98.5353 134.075 97.982 133.647 97.982C132.543 97.982 131.275 96.9915 131.275 94.884C131.275 94.6733 131.27 94.5047 131.259 94.373V79.8946C134.941 78.1296 143.077 73.5089 143.399 66.9072C143.542 64.0411 142.86 61.7439 141.27 60.1844ZM131.333 73.2613V73.2191C131.307 73.2349 131.286 73.2507 131.259 73.2666V63.3298C131.286 63.3298 131.307 63.3298 131.333 63.3298C131.333 63.3298 134.381 63.0558 136.32 63.825C136.421 63.8619 136.51 63.9041 136.595 63.9462C136.616 63.9568 136.637 63.9673 136.658 63.9778C136.669 63.9831 136.685 63.9936 136.695 63.9989C137.197 64.2571 137.593 64.6101 137.773 65.0843C139.226 68.7987 134.313 71.6701 131.333 73.2613Z" fill="#591A0B" />
        <path d="M136.327 63.8199C134.383 63.0507 131.34 63.3246 131.34 63.3246C133.321 63.3246 135.217 63.4037 136.327 63.8199Z" fill="#591A0B" />
        <path d="M136.602 63.941C136.622 63.9514 136.648 63.9618 136.664 63.9722C136.643 63.9618 136.622 63.9514 136.602 63.941Z" fill="#591A0B" />
        <path d="M216.521 85.4794C215.903 81.2908 213.463 76.9336 210.837 73.9778C212.776 71.981 214.292 69.6259 214.419 66.9072C214.561 64.0463 213.869 61.7492 212.29 60.1844C209.474 57.4025 202.284 57.4025 202.284 57.4025H197.429C196.663 57.4025 195.39 57.3972 194.291 57.3972C193.874 57.3972 193.874 57.9504 194.302 57.9504C195.374 57.9504 196.584 58.9093 196.653 60.8956V94.7734C196.653 94.8524 196.647 94.9104 196.647 94.9999C196.647 97.1022 195.379 98.0979 194.275 98.0979C193.847 98.0979 193.847 98.6512 194.265 98.6512C195.955 98.6512 198.084 98.6459 198.084 98.6459V98.6406C198.861 98.6406 199.828 98.6406 200.683 98.6406C204.746 98.6406 211.281 98.0821 214.725 93.5985C216.368 91.4488 216.991 88.6406 216.521 85.4794ZM202.284 63.3298C202.284 63.3298 204.799 63.1032 206.716 63.6354C207.329 63.7776 207.805 63.9726 208.085 64.2571C208.09 64.2623 208.09 64.2676 208.095 64.2676C208.386 64.4889 208.608 64.7523 208.734 65.079C210.177 68.7987 205.264 71.6701 202.284 73.2613V63.3298ZM210.583 89.4942C208.687 93.3877 202.284 92.9241 202.284 92.9241V79.8946C202.495 79.7945 202.723 79.6786 202.955 79.5574C203.04 79.5152 203.119 79.4731 203.198 79.4309C204.091 78.9673 205.121 78.3825 206.236 77.6712C208.148 78.7407 212.559 85.4373 210.583 89.4942Z" fill="#591A0B" />
        <path d="M206.717 63.6355C204.8 63.1033 202.285 63.3299 202.285 63.3299C203.96 63.3194 205.571 63.372 206.717 63.6355Z" fill="#591A0B" />
        <path d="M202.953 79.5575C203.038 79.5153 203.112 79.4784 203.196 79.431C203.117 79.4732 203.038 79.5153 202.953 79.5575Z" fill="#591A0B" />
        <path d="M10.5286 81.9284V82.1971H8.71663L7.7446 80.0633H2.77876L1.80672 82.1971H0V81.9284L4.27907 72.8662H6.24956L10.5286 81.9284ZM7.005 78.4721L5.26696 74.6576L3.52892 78.4721H7.005Z" fill="#591A0B" />
        <path d="M21.6552 72.8662V82.1971H19.8696V74.4574H14.4653V82.1971H12.6797V72.8662H21.6552Z" fill="#591A0B" />
        <path d="M34.3347 81.9284V82.1971H32.5227L31.5507 80.0633H26.5848L25.6128 82.1971H23.8008V81.9284L28.0799 72.8662H30.0503L34.3347 81.9284ZM30.8111 78.4721L29.073 74.6576L27.335 78.4721H30.8111Z" fill="#591A0B" />
        <path d="M42.3377 72.8662C43.4101 72.8662 44.2607 73.1244 44.884 73.6407C45.5074 74.157 45.8191 74.863 45.8191 75.7535V75.9115C45.8191 76.8019 45.5074 77.5079 44.884 78.0243C44.2607 78.5406 43.4101 78.7988 42.3377 78.7988H38.27V82.1971H36.4844V72.8662H42.3377ZM43.5633 76.8704C43.8592 76.6491 44.0071 76.3277 44.0071 75.9115V75.7535C44.0071 75.3372 43.8592 75.0158 43.5633 74.7946C43.2675 74.5733 42.8449 74.4626 42.2955 74.4626H38.2752V77.2076H42.2955C42.8449 77.2076 43.2675 77.0917 43.5633 76.8704Z" fill="#591A0B" />
        <path d="M47.2695 74.4574V72.8662H56.7522V74.4574H52.901V82.1971H51.1154V74.4574H47.2695Z" fill="#591A0B" />
        <path d="M229.549 81.7861C228.725 81.3962 228.091 80.843 227.647 80.1264C227.198 79.4099 226.977 78.5721 226.977 77.6132V77.4552C226.977 76.4963 227.198 75.6586 227.647 74.9367C228.097 74.2149 228.73 73.6617 229.56 73.2718C230.389 72.882 231.345 72.687 232.439 72.687C233.533 72.687 234.489 72.882 235.313 73.2718C236.137 73.6617 236.771 74.2149 237.215 74.9367C237.664 75.6586 237.886 76.4963 237.886 77.4552V77.6132C237.886 78.5721 237.664 79.4099 237.215 80.1264C236.766 80.843 236.137 81.3962 235.318 81.7861C234.499 82.1759 233.538 82.3709 232.439 82.3709C231.335 82.3709 230.373 82.1759 229.549 81.7861ZM235.128 79.9157C235.762 79.3783 236.079 78.6248 236.079 77.6449V77.4447C236.079 76.4699 235.762 75.706 235.128 75.1633C234.494 74.6206 233.601 74.3467 232.439 74.3467C231.277 74.3467 230.379 74.6206 229.745 75.1633C229.106 75.7112 228.789 76.4699 228.789 77.4447V77.6449C228.789 78.6196 229.106 79.3783 229.745 79.9157C230.384 80.4531 231.282 80.7218 232.439 80.7218C233.596 80.7218 234.494 80.4531 235.128 79.9157Z" fill="#591A0B" />
        <path d="M239.168 74.4572V72.8661H248.656V74.4572H244.805V82.197H243.019V74.4572H239.168Z" fill="#591A0B" />
        <path d="M258.912 72.8661V74.4572H252.551V76.7175H258.626V78.3087H252.551V80.6005H258.912V82.1917H250.766V72.8661H258.912Z" fill="#591A0B" />
        <path d="M270.691 82.197H268.905V74.4573L264.399 74.4731L264.341 78.3983C264.32 79.6996 264.061 80.6533 263.564 81.2697C263.062 81.8861 262.296 82.1917 261.261 82.1917H260.574V80.6006H260.933C261.361 80.6006 261.699 80.5268 261.948 80.3793C262.196 80.2318 262.376 79.9894 262.481 79.6522C262.592 79.315 262.65 78.8461 262.661 78.2507L262.745 72.8608H270.691V82.197Z" fill="#591A0B" />
        <path d="M275.616 72.8661V76.2644H279.526C280.609 76.2644 281.459 76.5226 282.077 77.0336C282.695 77.5447 283.007 78.2454 283.007 79.1411V79.3255C283.007 80.2265 282.695 80.9325 282.077 81.4383C281.459 81.9441 280.609 82.197 279.526 82.197H273.836V72.8661H275.616ZM280.746 80.2633C281.047 80.0368 281.195 79.7154 281.195 79.2939V79.1516C281.195 78.746 281.042 78.4246 280.741 78.198C280.434 77.9715 280.017 77.8556 279.483 77.8556H275.616V80.6005H279.483C280.022 80.6058 280.445 80.4899 280.746 80.2633Z" fill="#591A0B" />
    </g>
    <defs>
        <clipPath id="clip0_1621_7996">
            <rect width="283" height="100" fill="white" />
        </clipPath>
    </defs>
</svg>