<svg xmlns="http://www.w3.org/2000/svg" width="81" height="24" viewBox="0 0 81 24" fill="none">
    <path d="M62.1868 0C59.7563 0 55.6763 1.53447 55.6763 11.8131C55.6763 19.3201 58.0502 23.6262 62.1868 23.6262C66.3255 23.6262 68.6973 19.3201 68.6973 11.8131C68.6994 1.53238 64.6172 0 62.1868 0ZM62.1868 20.348C59.8003 20.348 58.9546 15.7508 58.9546 11.8131C58.9546 9.81182 59.189 3.27828 62.1868 3.27828C65.1845 3.27828 65.419 9.80972 65.419 11.8131C65.419 15.7487 64.5733 20.348 62.1868 20.348Z" fill="#591A0B" />
    <path d="M30.3235 22.5436C29.7331 22.5436 29.0381 22.0014 28.8916 20.8856L26.4214 2.79644C26.2539 1.5676 27.108 1.08193 27.6962 1.08193C27.9244 1.08193 27.9244 0.784668 27.7025 0.784668C27.1185 0.784668 25.5924 0.784667 24.5792 0.78676H23.6978H23.1347H22.2513C21.2402 0.78676 19.712 0.784668 19.1279 0.784668C18.906 0.784668 18.906 1.08193 19.1342 1.08193C19.7245 1.08193 20.5828 1.5676 20.4091 2.8069C20.4091 2.80899 20.4091 2.809 20.4091 2.81109L17.9389 20.9065C17.7839 22.0077 17.0973 22.5436 16.5132 22.5436C16.2851 22.5436 16.2851 22.8408 16.507 22.8408C16.8901 22.8408 17.3129 22.8408 17.6751 22.8408H20.6875V22.8388C21.0727 22.8388 21.8305 22.8408 22.4774 22.8408C22.6993 22.8408 22.6993 22.5436 22.4711 22.5436C21.8807 22.5436 20.8026 22.0412 20.9596 20.8835C20.9785 20.7412 20.991 20.6386 20.9994 20.5569L21.6337 15.9117H25.2009L25.8582 20.7286C25.8645 20.7809 25.8687 20.8228 25.8771 20.8856C26.0341 22.0433 24.956 22.5457 24.3656 22.5457C24.1374 22.5457 24.1374 22.8429 24.3593 22.8429C25.0041 22.8429 25.7598 22.8429 26.145 22.8408V22.8429H29.1574C29.5217 22.8429 29.9446 22.8429 30.3277 22.8429C30.5517 22.8388 30.5517 22.5436 30.3235 22.5436ZM22.0419 12.9034L23.4152 2.84668L24.7885 12.9034H22.0419Z" fill="#591A0B" />
    <path d="M15.2801 22.5446C14.6897 22.5446 14.0115 22.0129 14.0115 20.8845C14.0115 20.7484 14.0052 20.6542 13.9968 20.5768V2.71579C14.0073 1.60628 14.6772 1.08083 15.2612 1.08083C15.4894 1.08083 15.4894 0.783569 15.2675 0.783569C14.6814 0.783569 13.9989 0.783571 13.5907 0.785665H11.133C11.0451 0.785665 10.9656 0.842184 10.9363 0.923828L7.68309 10.1683L4.52413 0.928015C4.45296 0.87568 4.40062 0.840092 4.32735 0.787757H1.86759C1.45938 0.787757 0.776926 0.785665 0.19077 0.785665C-0.0311313 0.785665 -0.0311313 1.08293 0.197051 1.08293C0.787393 1.08293 1.46566 1.61465 1.46566 2.743C1.46566 2.74719 1.46566 2.74928 1.46566 2.75138V20.5119C1.451 20.5893 1.44054 20.7024 1.44054 20.8866C1.44054 22.0149 0.762272 22.5467 0.17193 22.5467C-0.0562522 22.5467 -0.0562522 22.8439 0.165649 22.8439C0.594799 22.8439 1.07628 22.8439 1.46566 22.8439H4.47808C4.86536 22.8439 5.33847 22.8439 5.76553 22.8439C5.98743 22.8439 5.98743 22.5467 5.75924 22.5467C5.1689 22.5467 4.49064 22.0149 4.49064 20.8866C4.49064 20.7589 4.48645 20.6668 4.47808 20.5914V8.84739L7.73333 16.3188L10.9886 8.84739V20.8091C10.9886 20.8385 10.9865 20.8552 10.9865 20.8866C10.9865 22.0149 10.3082 22.5467 9.71789 22.5467C9.4897 22.5467 9.4897 22.8439 9.71161 22.8439C10.1345 22.8439 10.6034 22.8439 10.9886 22.8439H14.001C14.3883 22.8439 14.8635 22.8439 15.2905 22.8439C15.5083 22.8398 15.5083 22.5446 15.2801 22.5446Z" fill="#591A0B" />
    <path d="M56.1099 22.5446C55.5196 22.5446 54.8999 22.0108 54.8413 20.8845C54.8413 20.8761 54.8392 20.8719 54.8392 20.8657C54.5838 14.2672 52.1827 9.50054 51.0355 7.55576C52.2936 6.41903 53.3236 4.87828 53.7402 2.81418C53.7527 2.76603 53.7653 2.72626 53.78 2.66555C54.0228 1.56441 54.5545 1.08711 55.1449 1.08711C55.373 1.08711 55.373 0.789849 55.1511 0.789849C54.7534 0.789849 54.3138 0.789849 53.9432 0.789849C53.9432 0.787756 53.9432 0.785663 53.9432 0.783569H51.0083C50.8973 0.783569 50.8094 0.87568 50.8073 0.986631C50.7173 4.59358 48.2492 6.07781 46.4928 6.69327V2.8393C46.4928 2.80371 46.4949 2.78069 46.4949 2.74091C46.4949 1.61256 47.1731 1.08083 47.7635 1.08083C47.9917 1.08083 47.9917 0.783569 47.7698 0.783569C47.1836 0.783569 46.5012 0.783571 46.0929 0.785665H43.8781C43.4699 0.785665 42.7874 0.783569 42.2013 0.783569C41.9794 0.783569 41.9794 1.08083 42.2076 1.08083C42.7979 1.08083 43.4762 1.61256 43.4762 2.74091C43.4762 2.80162 43.4783 2.8393 43.4804 2.88745V20.8343C43.4804 20.8531 43.4783 20.8636 43.4783 20.8845C43.4783 22.0129 42.8 22.5446 42.2097 22.5446C41.9815 22.5446 41.9815 22.8418 42.2034 22.8418C42.6242 22.8418 43.0952 22.8418 43.4804 22.8418H46.4928C46.878 22.8418 47.349 22.8418 47.7719 22.8418C47.9938 22.8418 47.9938 22.5446 47.7656 22.5446C47.1752 22.5446 46.497 22.0129 46.497 20.8845C46.497 20.8364 46.4949 20.8091 46.4928 20.7694V9.98411C47.102 9.8292 47.753 9.58008 48.4124 9.27863C49.4968 11.1774 51.877 16.1032 51.7452 22.6283C51.7431 22.7435 51.8331 22.8398 51.9482 22.8398H54.8622C55.2432 22.8398 55.7059 22.8398 56.1204 22.8398C56.336 22.8398 56.336 22.5446 56.1099 22.5446Z" fill="#591A0B" />
    <path d="M40.6772 2.27997C39.059 0.693168 35.3244 0.787371 35.3244 0.787371H32.7202C32.312 0.787371 31.6295 0.785278 31.0434 0.785278C30.8215 0.785278 30.8215 1.08254 31.0497 1.08254C31.6337 1.08254 32.3036 1.61008 32.3141 2.71959V20.8695C32.3141 20.8757 32.3141 20.8799 32.3141 20.8862C32.3141 22.0146 31.6358 22.5463 31.0455 22.5463C30.8173 22.5463 30.8173 22.8435 31.0392 22.8435C31.46 22.8435 31.9289 22.8435 32.3141 22.8435H35.3265V22.8415C35.7117 22.8415 36.1848 22.8435 36.6098 22.8435C36.8317 22.8435 36.8317 22.5463 36.6035 22.5463C36.0131 22.5463 35.3349 22.0146 35.3349 20.8862C35.3349 20.7732 35.3328 20.6831 35.3265 20.612V12.8454C37.2943 11.8992 41.6444 9.42269 41.8182 5.88273C41.8935 4.34617 41.5293 3.11315 40.6772 2.27997ZM35.3663 9.29081V9.26778C35.3537 9.27615 35.3391 9.28453 35.3265 9.2929V3.96517C35.3391 3.96517 35.3537 3.96517 35.3663 3.96517C35.3663 3.96517 36.9949 3.81654 38.0333 4.22894C38.0856 4.24778 38.1358 4.27081 38.1798 4.29383C38.1924 4.30011 38.2028 4.3043 38.2154 4.31058C38.2217 4.31477 38.23 4.31686 38.2363 4.32105C38.5064 4.46131 38.7157 4.64971 38.8141 4.90302C39.5845 6.89595 36.9594 8.43669 35.3663 9.29081Z" fill="#591A0B" />
    <path d="M38.1797 4.29224C38.1924 4.29861 38.2052 4.30286 38.2158 4.30923C38.2052 4.30498 38.1924 4.29861 38.1797 4.29224Z" fill="white" />
    <path d="M80.9189 15.839C80.5881 13.5928 79.2839 11.2565 77.8792 9.6739C78.9176 8.60417 79.7256 7.33975 79.7947 5.88273C79.8722 4.34826 79.5016 3.11734 78.6559 2.27997C77.1507 0.787372 73.3052 0.787371 73.3052 0.787371H70.7093C70.3011 0.787371 69.6187 0.785278 69.0325 0.785278C68.8106 0.785278 68.8106 1.08254 69.0388 1.08254C69.6124 1.08254 70.2592 1.59543 70.2948 2.66097V20.8234C70.2927 20.8653 70.2906 20.8967 70.2906 20.9448C70.2906 22.0732 69.6124 22.6049 69.022 22.6049C68.7938 22.6049 68.7938 22.9022 69.0157 22.9022C69.918 22.9022 71.0589 22.9001 71.0589 22.9001V22.898C71.4734 22.898 71.9905 22.898 72.4489 22.898C74.6219 22.898 78.1179 22.5986 79.9559 20.1954C80.8351 19.0419 81.1701 17.5347 80.9189 15.839ZM73.3052 3.96308C73.3052 3.96308 74.6491 3.84166 75.6749 4.12846C76.0015 4.20382 76.2569 4.31058 76.4055 4.46131C76.4076 4.4634 76.4076 4.46549 76.4097 4.46759C76.5646 4.58482 76.6839 4.72717 76.753 4.90092C77.5255 6.89385 74.8982 8.4346 73.3052 9.28871V3.96308ZM77.7432 17.9931C76.73 20.0802 73.3052 19.8311 73.3052 19.8311V12.8454C73.4161 12.791 73.5396 12.7282 73.6652 12.6654C73.7092 12.6424 73.7531 12.6214 73.795 12.5984C74.2723 12.3493 74.825 12.0374 75.4195 11.6564C76.4411 12.2279 78.7983 15.8181 77.7432 17.9931Z" fill="#591A0B" />
    <path d="M73.665 12.6667C73.7091 12.6437 73.7511 12.6248 73.7951 12.5996C73.7531 12.6227 73.7091 12.6437 73.665 12.6667Z" fill="white" />
</svg>