<svg viewBox="0 0 72 84" xmlns="http://www.w3.org/2000/svg" xmlns:xlink="http://www.w3.org/1999/xlink" width="72.000000" height="84.000000" fill="none">
	<rect id="Frame" width="72.000000" height="84.000000" x="0.000000" y="0.000000" fill="rgb(255,255,255)" fill-opacity="0" />
	<path id="Vector" d="M62.499 13.4719C55.7328 4.91004 46.0745 0 36.0019 0C25.9294 0 16.2672 4.91004 9.50488 13.4719C3.37542 21.2282 0 31.359 0 42C0 52.641 3.37542 62.7718 9.50488 70.5281C16.2672 79.09 25.9255 84 36.0019 84C46.0783 84 55.7366 79.09 62.499 70.5281C68.6284 62.7718 72.0038 52.641 72.0038 42C72.0038 31.359 68.6284 21.2282 62.499 13.4719Z" fill="rgb(89,26,11)" fill-rule="nonzero" />
	<path id="Vector" d="M56.0778 12.1706C55.1611 11.3459 53.1013 10.5442 49.6223 14.4185C47.0792 17.2494 46.5154 19.6776 48.0765 21.0777C49.6377 22.4779 51.9889 21.6608 54.532 18.8299C58.0148 14.9555 56.9945 12.9954 56.0778 12.1706ZM49.1889 19.8426C48.2875 19.0332 49.5264 17.0154 50.8612 15.5309C51.5402 14.7752 53.8377 12.3931 54.9693 13.4058C56.1008 14.4223 53.9758 16.9617 53.2969 17.7174C51.9621 19.2058 50.0864 20.6519 49.1889 19.8426Z" fill="rgb(234,230,225)" fill-rule="nonzero" />
	<path id="Vector" d="M30.609 17.0431C30.3443 17.1811 29.9032 17.0968 29.581 16.6249L24.2839 9.04123C23.9234 8.52337 24.1957 8.10909 24.4642 7.97483C24.5678 7.92112 24.4987 7.78686 24.399 7.84057C24.1343 7.97483 23.4477 8.32774 22.9913 8.56173L22.5924 8.76504L22.3392 8.89546L21.9403 9.09876C21.4839 9.33276 20.7934 9.68567 20.5326 9.81993C20.4329 9.86979 20.5019 10.0041 20.6055 9.95035C20.8701 9.81225 21.3726 9.83527 21.5797 10.4337C21.5797 10.4337 21.5797 10.4337 21.5797 10.4375L24.6521 19.1682C24.8363 19.7014 24.6521 20.1003 24.3875 20.2346C24.2839 20.2883 24.353 20.4225 24.4527 20.3688C24.6253 20.2806 24.8171 20.1809 24.9782 20.0965L26.336 19.3983C26.5086 19.3101 26.8538 19.1337 27.1415 18.9841C27.2412 18.9342 27.1722 18.7999 27.0686 18.8536C26.804 18.9917 26.2018 19.0147 26.0023 18.4547C25.9793 18.3856 25.9601 18.3358 25.9448 18.2974L25.1546 16.0572L26.7618 15.2325L28.1733 17.254C28.1887 17.277 28.2002 17.2924 28.2194 17.3192C28.5569 17.8064 28.1887 18.2821 27.9202 18.4163C27.8166 18.47 27.8856 18.6043 27.9854 18.5506C28.2769 18.401 28.6183 18.2245 28.7909 18.1363L30.1487 17.4382C30.3136 17.3538 30.5054 17.2579 30.678 17.1658C30.7816 17.1236 30.7126 16.9893 30.609 17.0431ZM24.6483 14.611L22.9414 9.75855L25.8872 13.9743L24.6483 14.611Z" fill="rgb(234,230,225)" fill-rule="nonzero" />
	<path id="Vector" d="M23.0987 20.998C22.9146 21.232 22.4888 21.3317 22.0401 20.9788C21.9864 20.9366 21.948 20.9097 21.9135 20.8867L14.8289 15.2555C14.3917 14.9026 14.3955 14.4692 14.5796 14.239C14.6525 14.1469 14.5336 14.0549 14.4645 14.1431C14.2804 14.3771 14.0656 14.6456 13.9352 14.8106L13.1604 15.7849C13.1335 15.8194 13.1297 15.8693 13.1527 15.9076L15.7917 20.1157L11.1313 18.4547C11.0891 18.4662 11.0584 18.4777 11.0124 18.4892L10.2376 19.4636C10.1072 19.6247 9.89238 19.897 9.70826 20.1272C9.63922 20.2154 9.75429 20.3075 9.82717 20.2193C10.0113 19.9853 10.437 19.8855 10.8858 20.2384C10.8858 20.2384 10.8897 20.2384 10.8897 20.2423L17.9358 25.8428C17.9627 25.8735 18.0049 25.9118 18.0778 25.9694C18.5265 26.3261 18.5227 26.7634 18.3348 26.9974C18.2619 27.0895 18.3808 27.1815 18.4498 27.0933C18.5841 26.9245 18.7375 26.7327 18.8603 26.5793L19.8115 25.3863C19.9342 25.2329 20.0838 25.0449 20.2181 24.8761C20.2871 24.7879 20.1721 24.6958 20.0992 24.7841C19.9151 25.0181 19.4893 25.1178 19.0405 24.7649C18.9907 24.7265 18.9523 24.6958 18.9216 24.6767L14.2612 20.9711L18.2504 22.0375L16.3133 18.3895L21.0581 22.1603C21.0696 22.1679 21.0773 22.1756 21.0888 22.1871C21.5376 22.5439 21.5337 22.9812 21.3458 23.2152C21.2729 23.3072 21.3918 23.3993 21.4609 23.3111C21.5951 23.1423 21.7409 22.9581 21.8636 22.8047L22.8149 21.6117C22.9376 21.4583 23.0872 21.2703 23.2214 21.1015C23.2867 21.0018 23.1716 20.9097 23.0987 20.998Z" fill="rgb(234,230,225)" fill-rule="nonzero" />
	<path id="Vector" d="M44.8587 18.3521C44.571 18.2677 44.3485 17.9186 44.4828 17.3624C44.4828 17.3585 44.4828 17.3547 44.4866 17.3547C45.3151 14.1133 44.8357 11.4511 44.5595 10.3387C45.3343 9.96663 46.0593 9.36822 46.5579 8.42457C46.5694 8.40155 46.5847 8.38621 46.6001 8.35936C46.8763 7.86068 47.2023 7.70341 47.49 7.79163C47.6012 7.82616 47.6434 7.68039 47.536 7.6497C47.3442 7.59216 47.1294 7.53079 46.9491 7.47708C46.9491 7.47708 46.9491 7.47708 46.9491 7.47325L45.5223 7.04746C45.4686 7.03211 45.411 7.0628 45.3957 7.1165C44.8318 8.8542 43.4165 9.22245 42.4767 9.26464L43.0329 7.38886C43.0367 7.37351 43.0444 7.362 43.0482 7.34282C43.2093 6.79428 43.6159 6.63317 43.9036 6.7214C44.0148 6.75592 44.057 6.61016 43.9496 6.57947C43.6658 6.49508 43.3321 6.39534 43.1365 6.3378L42.0625 6.01942C41.863 5.96188 41.5331 5.86214 41.2493 5.77775C41.1419 5.74706 41.0997 5.88899 41.2109 5.92352C41.4986 6.00791 41.7518 6.36465 41.5868 6.9132C41.5792 6.94388 41.5753 6.96306 41.5676 6.98608L38.9747 15.7052C38.9709 15.7129 38.9709 15.7206 38.967 15.7282C38.8059 16.2768 38.3994 16.4379 38.1117 16.3497C38.0004 16.3152 37.9583 16.4609 38.0657 16.4916C38.2689 16.553 38.4991 16.622 38.687 16.6757L40.1484 17.1092C40.3364 17.1667 40.5627 17.2319 40.7698 17.2933C40.8772 17.324 40.9194 17.1821 40.8082 17.1476C40.5205 17.0632 40.2673 16.7064 40.4323 16.1579C40.44 16.1349 40.4438 16.1195 40.4476 16.1003L42.0049 10.8604C42.3233 10.8719 42.6762 10.8451 43.0406 10.7952C43.2937 11.8731 43.7387 14.612 42.7337 17.7613C42.7145 17.815 42.7452 17.8764 42.8027 17.8917L44.2181 18.3137C44.4022 18.3674 44.6285 18.4364 44.828 18.4978C44.9277 18.5285 44.9699 18.3827 44.8587 18.3521Z" fill="rgb(234,230,225)" fill-rule="nonzero" />
	<g id="Group">
		<path id="Vector" d="M33.3516 7.24609L33.6546 9.92743C33.6623 9.9236 33.6661 9.91593 33.6738 9.91209L33.3707 7.24609C33.3631 7.24609 33.3554 7.24609 33.3516 7.24609Z" fill-rule="nonzero" />
		<path id="Vector" d="M35.9484 6.09601C35.0431 5.39019 33.1675 5.6472 33.1675 5.6472L31.8557 5.7968C31.6485 5.81982 31.3072 5.85818 31.0118 5.8927C30.9006 5.90421 30.9159 6.05381 31.031 6.0423C31.3263 6.00778 31.6946 6.23794 31.7598 6.79415L32.7916 15.9353C32.7916 15.9391 32.7916 15.9391 32.7916 15.9429C32.8568 16.5107 32.5422 16.8175 32.2469 16.8521C32.1318 16.8636 32.1472 17.0132 32.2622 17.0017C32.4732 16.9786 32.711 16.9518 32.9028 16.9288L34.4179 16.7562C34.6135 16.7331 34.8513 16.7063 35.0661 16.6833C35.1774 16.6718 35.162 16.5222 35.047 16.5337C34.7516 16.5682 34.3796 16.338 34.3143 15.7703C34.3067 15.7128 34.3028 15.6667 34.2952 15.6322L33.8541 11.7234C34.79 11.1326 36.8421 9.64044 36.727 7.84521C36.681 7.06651 36.424 6.4681 35.9484 6.09601ZM33.6738 9.92814L33.6738 9.91663C33.6661 9.92047 33.6623 9.92814 33.6546 9.93197L33.3516 7.25063C33.3593 7.25063 33.3631 7.25063 33.3708 7.2468C33.3708 7.2468 34.1839 7.07801 34.7286 7.22762C34.7555 7.23529 34.7823 7.24296 34.8053 7.25063C34.813 7.25447 34.8168 7.25447 34.8245 7.2583C34.8283 7.2583 34.8322 7.26214 34.836 7.26214C34.9779 7.31584 35.0968 7.40024 35.1582 7.52299C35.6607 8.48198 34.4256 9.40645 33.6738 9.92814Z" fill="rgb(234,230,225)" fill-rule="nonzero" />
	</g>
	<g id="Group">
		<path id="Vector" d="M57.4934 27.2316C58.3909 26.5104 59.0775 25.3404 59.4074 24.3201C60.14 24.5004 60.8995 24.5272 61.5554 24.1858C62.2458 23.8252 62.6869 23.3496 62.8365 22.7627C63.1012 21.7231 62.1154 20.0391 62.1154 20.0391L61.448 18.9037C61.3444 18.7234 61.168 18.428 61.0184 18.171C60.9608 18.0751 60.8304 18.1518 60.8918 18.2477C61.0376 18.4971 60.98 18.9114 60.5236 19.2029L52.5837 23.8598C52.5645 23.8713 52.553 23.8751 52.53 23.8904C52.0352 24.1781 51.6286 24.0209 51.479 23.76C51.4214 23.6603 51.291 23.737 51.3486 23.8329C51.5787 24.228 51.8741 24.7267 51.8741 24.7267C51.9815 24.907 52.1119 25.1333 52.2308 25.3328C52.787 26.2841 53.8149 27.7341 55.3377 27.9221C56.0703 28.018 56.8144 27.7763 57.4934 27.2316ZM60.7307 20.86C60.7307 20.86 61.1296 21.4163 61.2677 21.9379C61.3176 22.0991 61.3367 22.241 61.3099 22.3446L61.3099 22.3484C61.2984 22.4481 61.2677 22.5364 61.2063 22.6092C60.5312 23.457 59.1849 22.7051 58.4024 22.2256L60.7307 20.86ZM55.7366 26.3992C54.5629 26.4912 53.7957 24.93 53.7957 24.93L56.849 23.1386C56.9027 23.1731 56.9602 23.2115 57.0177 23.2498C57.0369 23.2652 57.0599 23.2767 57.0791 23.2882C57.3092 23.434 57.5893 23.5951 57.9076 23.7562C57.923 24.3508 56.9564 26.2994 55.7366 26.3992Z" fill="rgb(234,230,225)" fill-rule="nonzero" />
	</g>
	<path id="Vector" d="M44.1412 35.4176L44.1412 33.9023C40.4935 33.9023 37.7394 37.021 35.9789 40.7572C34.2183 37.021 31.4642 33.9023 27.8165 33.9023L27.8165 35.4176C28.2001 35.4176 28.5683 35.4674 28.9288 35.5518L28.9288 52.7983L27.502 52.7983L27.502 54.3135L31.7442 54.3135L31.7442 52.7983L30.4439 52.7983L30.4439 36.1771C32.4884 37.3892 34.1032 39.9095 35.1849 42.656C34.2029 45.3143 33.6966 48.0647 33.6966 50.1016C33.6966 51.2601 33.8462 52.1999 34.1416 52.8942C34.644 54.0757 35.461 54.2943 35.9443 54.3135L35.9443 54.3174C35.9558 54.3174 35.9674 54.3174 35.9789 54.3174C35.9904 54.3174 36.0019 54.3174 36.0134 54.3174L36.0134 54.3135C36.5005 54.2943 37.3175 54.0757 37.8162 52.898C38.1115 52.2037 38.2611 51.2639 38.2611 50.1055C38.2611 48.0686 37.7548 45.3182 36.7729 42.6599C37.9197 39.7407 39.6688 37.0785 41.8974 35.9699L41.8974 52.8022L40.597 52.8022L40.597 54.3174L44.8393 54.3174L44.8393 52.8022L43.4125 52.8022L43.4125 35.4789C43.6541 35.4406 43.8958 35.4176 44.1412 35.4176ZM36.7498 50.1016C36.7498 51.2908 36.5734 51.9544 36.4276 52.2996C36.2435 52.7369 36.0671 52.7868 35.9827 52.7945C35.8983 52.7868 35.7219 52.7369 35.5378 52.2996C35.392 51.9506 35.2156 51.2869 35.2156 50.1016C35.2156 48.6516 35.4802 46.8641 35.9865 45.042C36.4852 46.8641 36.7498 48.6516 36.7498 50.1016Z" fill="rgb(234,230,225)" fill-rule="nonzero" />
	<path id="Vector" d="M35.8639 25.0762C32.3082 25.0762 29.1131 27.3394 27.901 30.6422L22.9683 30.6422L22.9683 58.311L49.0549 58.311L49.0549 30.6422L43.8268 30.6422C42.6147 27.3356 39.4196 25.0762 35.8639 25.0762ZM47.5398 56.7958L24.4795 56.7958L24.4795 32.1574L29.0172 32.1574L29.1744 31.6127C30.0336 28.6551 32.7838 26.5914 35.8601 26.5914C38.9363 26.5914 41.6865 28.6551 42.5457 31.6127L42.703 32.1574L47.5321 32.1574L47.5321 56.7958L47.5398 56.7958Z" fill="rgb(234,230,225)" fill-rule="nonzero" />
	<path id="Vector" d="M50.4162 59.7116L21.6753 59.7116L21.6753 29.3883L27.0606 29.3883C28.6908 26.0049 32.1468 23.8223 35.8981 23.8223C39.6494 23.8223 43.1054 26.0049 44.7394 29.3883L50.4162 29.3883L50.4162 59.7116ZM22.4348 58.952L49.6529 58.952L49.6529 30.1516L44.2523 30.1516L44.0988 29.8217C42.6144 26.6379 39.3962 24.5818 35.8981 24.5818C32.3999 24.5818 29.1818 26.6379 27.6973 29.8217L27.5439 30.1516L22.4348 30.1516L22.4348 58.952Z" fill="rgb(234,230,225)" fill-rule="nonzero" />
	<path id="Vector" d="M17.9817 48.2676L7.93604 48.2676L7.93604 48.9696L17.9817 48.9696L17.9817 48.2676Z" fill="rgb(234,230,225)" fill-rule="evenodd" />
	<path id="Vector" d="M64.5281 48.2676L54.4824 48.2676L54.4824 48.9696L64.5281 48.9696L64.5281 48.2676Z" fill="rgb(234,230,225)" fill-rule="evenodd" />
	<g id="Group">
		<g id="Group">
			<path id="Vector" d="M59.1852 45.6351L59.1852 46.4713L54.5708 46.4713L54.5708 45.7272L56.807 44.4536C57.1944 44.2311 57.4783 44.0547 57.6547 43.9281C57.8311 43.8015 57.9501 43.6864 58.0114 43.579C58.0728 43.4716 58.1035 43.3412 58.1035 43.1878L58.1035 43.1149C58.1035 42.8732 57.9922 42.6852 57.7736 42.5548C57.555 42.4244 57.2404 42.363 56.8262 42.363C56.4043 42.363 56.0821 42.4321 55.8596 42.574C55.6371 42.7159 55.5259 42.9269 55.5259 43.2031L55.5259 43.3527L54.5938 43.3527L54.5938 43.1954C54.5938 42.6507 54.7856 42.2288 55.1653 41.9372C55.5451 41.6457 56.0897 41.4961 56.7993 41.4961C57.4936 41.4961 58.0383 41.638 58.4334 41.918C58.8284 42.1981 59.0241 42.5893 59.0241 43.0842L59.0241 43.1571C59.0241 43.4217 58.9742 43.6481 58.8745 43.8437C58.7747 44.0355 58.6021 44.2311 58.3566 44.4229C58.1112 44.6147 57.7506 44.8487 57.2788 45.1172L56.3544 45.6389L59.1852 45.6389L59.1852 45.6351Z" fill="rgb(234,230,225)" fill-rule="nonzero" />
			<path id="Vector" d="M63.9835 43.7554C64.39 44.0124 64.5933 44.3807 64.5933 44.8602L64.5933 44.9484C64.5933 45.4547 64.3785 45.8498 63.9528 46.1337C63.527 46.4176 62.9363 46.5595 62.1884 46.5595C61.6475 46.5595 61.1796 46.4828 60.7883 46.3332C60.3971 46.1836 60.0979 45.9649 59.8908 45.6772C59.6836 45.3934 59.5801 45.0558 59.5801 44.6684L59.5801 43.5137C59.5801 42.877 59.8064 42.3821 60.259 42.0254C60.7116 41.6686 61.3445 41.4922 62.1577 41.4922C62.8865 41.4922 63.4618 41.6303 63.8837 41.9103C64.3018 42.1903 64.5128 42.5739 64.5128 43.0649L64.5128 43.1186L63.5884 43.1186L63.5884 43.0649C63.5884 42.8348 63.4618 42.6622 63.2125 42.5394C62.9632 42.4167 62.6103 42.3553 62.1577 42.3553C61.613 42.3553 61.1987 42.4512 60.9187 42.643C60.6387 42.8348 60.5006 43.1186 60.5006 43.4946L60.5006 43.8091C60.9149 43.5176 61.4979 43.368 62.2574 43.368C63.0015 43.368 63.5769 43.4984 63.9835 43.7554ZM63.6613 44.8985C63.6613 44.4497 63.1895 44.2272 62.2459 44.2272C61.8316 44.2272 61.4788 44.2694 61.1757 44.3577C60.8765 44.4459 60.6502 44.5686 60.5006 44.7259C60.516 45.0328 60.6694 45.2706 60.9609 45.4432C61.2524 45.6159 61.6667 45.6964 62.1999 45.6964C62.6601 45.6964 63.0207 45.635 63.2777 45.5161C63.5347 45.3972 63.6613 45.2207 63.6613 44.9868L63.6613 44.8985Z" fill="rgb(234,230,225)" fill-rule="nonzero" />
		</g>
	</g>
	<g id="Group">
		<g id="Group">
			<path id="Vector" d="M12.5465 45.6351L12.5465 46.4713L7.93213 46.4713L7.93213 45.7272L10.1683 44.4536C10.5558 44.2311 10.8396 44.0547 11.016 43.9281C11.1925 43.8015 11.3114 43.6864 11.3728 43.579C11.4341 43.4716 11.4648 43.3412 11.4648 43.1878L11.4648 43.1149C11.4648 42.8732 11.3536 42.6852 11.1349 42.5548C10.9163 42.4244 10.6018 42.363 10.1875 42.363C9.7656 42.363 9.4434 42.4321 9.22093 42.574C8.99846 42.7159 8.88722 42.9269 8.88722 43.2031L8.88722 43.3527L7.95514 43.3527L7.95514 43.1954C7.95514 42.6507 8.14693 42.2288 8.52666 41.9372C8.9064 41.6457 9.45107 41.4961 10.1607 41.4961C10.8549 41.4961 11.3996 41.638 11.7947 41.918C12.1898 42.1981 12.3854 42.5893 12.3854 43.0842L12.3854 43.1571C12.3854 43.4217 12.3355 43.6481 12.2358 43.8437C12.1361 44.0355 11.9635 44.2311 11.718 44.4229C11.4725 44.6147 11.1119 44.8487 10.6401 45.1172L9.71573 45.6389L12.5465 45.6389L12.5465 45.6351Z" fill="rgb(234,230,225)" fill-rule="nonzero" />
			<path id="Vector" d="M14.1767 46.2833C13.7854 46.0992 13.4786 45.8422 13.2638 45.5123C13.049 45.1824 12.9377 44.7988 12.9377 44.3692L12.9377 43.6902C12.9377 43.2567 13.0451 42.877 13.2638 42.5432C13.4786 42.2095 13.7854 41.9525 14.1767 41.7684C14.5679 41.5843 15.0205 41.4922 15.5345 41.4922C16.0408 41.4922 16.4896 41.5843 16.8808 41.7684C17.2721 41.9525 17.5713 42.2095 17.7861 42.5432C18.0009 42.877 18.1083 43.2606 18.1083 43.6902L18.1083 44.3692C18.1083 44.8065 18.0009 45.1901 17.7861 45.52C17.5713 45.8498 17.2721 46.1069 16.8847 46.2871C16.4973 46.4674 16.0485 46.5595 15.5345 46.5595C15.0205 46.5595 14.5718 46.4674 14.1767 46.2833ZM16.7504 45.3512C17.0381 45.121 17.1839 44.7988 17.1839 44.3807L17.1839 43.6787C17.1839 43.2644 17.0381 42.9422 16.7428 42.7044C16.4474 42.4665 16.0447 42.3514 15.5268 42.3514C15.0052 42.3514 14.5986 42.4665 14.3033 42.7005C14.0117 42.9345 13.8621 43.2606 13.8621 43.6749L13.8621 44.3768C13.8621 44.7911 14.0079 45.1095 14.3033 45.3435C14.5948 45.5737 15.0052 45.6887 15.5345 45.6887C16.0562 45.6926 16.4589 45.5813 16.7504 45.3512Z" fill="rgb(234,230,225)" fill-rule="nonzero" />
		</g>
	</g>
	<g id="Group">
		<path id="Vector" d="M11.8024 60.6738L11.6758 60.7083L11.438 59.8644L12.3087 59.1317L11.6566 56.8186L10.5327 56.646L10.2949 55.8021L10.4215 55.7676L15.2161 56.5693L15.4731 57.4861L11.8024 60.6738ZM12.9569 58.5755L14.5104 57.2636L12.5005 56.9529L12.9569 58.5755Z" fill="rgb(234,230,225)" fill-rule="nonzero" />
		<path id="Vector" d="M18.745 64.5323L14.8019 66.761L14.3762 66.0091L17.6442 64.1602L16.3554 61.8816L13.0874 63.7305L12.6616 62.9787L16.6047 60.75L18.745 64.5323Z" fill="rgb(234,230,225)" fill-rule="nonzero" />
		<path id="Vector" d="M19.9149 72.3845L19.819 72.4766L19.2091 71.8475L19.6234 70.7888L17.951 69.0664L16.8809 69.45L16.271 68.8209L16.3669 68.7289L20.9659 67.1484L21.6295 67.8312L19.9149 72.3845ZM19.9303 69.9947L20.6705 68.0998L18.7565 68.7864L19.9303 69.9947Z" fill="rgb(234,230,225)" fill-rule="nonzero" />
		<path id="Vector" d="M26.6121 71.5211C27.0647 71.7781 27.3562 72.0926 27.4943 72.4609C27.6324 72.8291 27.5902 73.2012 27.3754 73.5772L27.337 73.6424C27.1222 74.0183 26.8192 74.2408 26.4357 74.306C26.0483 74.375 25.6302 74.2791 25.1775 74.0183L23.4707 73.0401L22.6498 74.4709L21.9019 74.0413L24.1572 70.1133L26.6121 71.5211ZM26.1595 73.5004C26.3359 73.4774 26.4779 73.3777 26.5776 73.2012L26.6159 73.136C26.7157 72.9596 26.731 72.7908 26.662 72.6258C26.5929 72.4609 26.4395 72.3113 26.2094 72.1809L24.5216 71.2104L23.8581 72.365L25.5458 73.3355C25.7798 73.4697 25.983 73.5235 26.1595 73.5004Z" fill="rgb(234,230,225)" fill-rule="nonzero" />
		<path id="Vector" d="M28.8174 73.4745L28.9938 72.7227L33.4624 73.7814L33.286 74.5332L31.4717 74.1036L30.6048 77.7593L29.7648 77.5598L30.6278 73.9041L28.8174 73.4745Z" fill="rgb(234,230,225)" fill-rule="nonzero" />
		<path id="Vector" d="M36.3586 76.0245L36.3433 76.7687L33.9805 76.7227L33.9958 75.9785L36.3586 76.0245Z" fill="rgb(234,230,225)" fill-rule="nonzero" />
		<path id="Vector" d="M40.0712 77.7007C39.6378 77.6163 39.2734 77.4322 38.9781 77.1522C38.6827 76.8683 38.4756 76.5039 38.3605 76.0512L38.3413 75.9783C38.2263 75.5295 38.2301 75.1076 38.3528 74.7125C38.4756 74.3174 38.7057 73.9836 39.0471 73.6998C39.3885 73.4159 39.8142 73.2088 40.3282 73.0784C40.8422 72.9479 41.314 72.9211 41.7474 73.0055C42.1809 73.0899 42.5453 73.274 42.8406 73.5579C43.136 73.8417 43.3431 74.21 43.4582 74.6626L43.4773 74.7355C43.5924 75.1843 43.5886 75.6063 43.4658 75.9975C43.3431 76.3888 43.1129 76.7225 42.7754 77.0064C42.4379 77.2864 42.0121 77.4936 41.4943 77.6278C40.9765 77.7621 40.5047 77.7851 40.0712 77.7007ZM42.4609 76.151C42.691 75.8211 42.7486 75.4298 42.6297 74.9695L42.6066 74.8774C42.4877 74.4171 42.2499 74.0987 41.8855 73.9184C41.525 73.7381 41.0685 73.719 40.5277 73.8571C39.9869 73.9951 39.5956 74.233 39.3616 74.5667C39.1277 74.9004 39.0701 75.2955 39.189 75.7559L39.212 75.8479C39.3309 76.3082 39.5726 76.6228 39.9332 76.7992C40.2975 76.9757 40.7502 76.991 41.2948 76.853C41.8395 76.711 42.2269 76.477 42.4609 76.151Z" fill="rgb(234,230,225)" fill-rule="nonzero" />
		<path id="Vector" d="M44.1142 72.7566L43.7114 72.0968L47.6315 69.707L48.0343 70.3668L46.4424 71.3373L48.3948 74.5442L47.6584 74.993L45.706 71.7861L44.1142 72.7566Z" fill="rgb(234,230,225)" fill-rule="nonzero" />
		<path id="Vector" d="M51.3827 65.9824L51.9389 66.5195L49.7986 68.7328L50.5887 69.4962L52.6332 67.3787L53.1894 67.9157L51.1449 70.0332L51.9427 70.8042L54.0831 68.587L54.6392 69.1241L51.9006 71.9589L48.644 68.8134L51.3827 65.9824Z" fill="rgb(234,230,225)" fill-rule="nonzero" />
		<path id="Vector" d="M58.4981 63.1034L58.0685 63.8514L54.8082 61.991L53.7342 63.8898L55.3758 64.8565C55.9205 65.1787 56.2619 65.5162 56.4 65.873C56.5419 66.2297 56.4844 66.6287 56.2389 67.066L56.0739 67.3537L55.4027 66.9701L55.4871 66.8205C55.5906 66.6402 55.6405 66.4829 55.6367 66.341C55.6328 66.2029 55.5753 66.0686 55.4602 65.942C55.3451 65.8154 55.161 65.6774 54.9117 65.5316L52.6602 64.2005L54.5665 60.8594L58.4981 63.1034Z" fill="rgb(234,230,225)" fill-rule="nonzero" />
		<path id="Vector" d="M58.5288 56.3385C58.8049 56.1544 59.1271 56.116 59.4954 56.2234L59.5759 56.2464C59.9288 56.35 60.1704 56.5571 60.3047 56.864C60.4351 57.1709 60.4389 57.5392 60.3124 57.9688L59.5874 60.4276L56.2964 59.4571L56.5304 58.6631L57.4318 58.9278L57.9227 57.2668C58.0493 56.8295 58.2526 56.5226 58.5288 56.3385ZM59.2537 57.0443C58.943 56.9523 58.7282 57.1172 58.6055 57.5315L58.1337 59.1349L59.1195 59.4264L59.5913 57.823C59.714 57.4087 59.6258 57.1556 59.3304 57.0712L59.2537 57.0443Z" fill="rgb(234,230,225)" fill-rule="nonzero" />
	</g>
</svg>
