<svg xmlns="http://www.w3.org/2000/svg" width="104" height="26" viewBox="0 0 104 26" fill="none">
    <path d="M9.72389 7.02742H8.76045C6.99411 7.02742 6.06638 7.91369 6.06638 9.22524C6.06638 10.7141 6.70867 11.4054 8.02897 12.2916L9.11723 13.0183L5.97719 17.6799H3.63989L6.45887 13.5146C4.83528 12.3624 3.92533 11.2459 3.92533 9.34932C3.92533 6.9743 5.58462 5.36132 8.7426 5.36132H11.8827V17.6799H9.72389V7.02742Z" fill="#FC3F1D" />
    <path d="M27.262 16.0125H24.2646C24.8534 14.6655 25.014 12.2372 25.014 10.6952V10.4293H27.262V16.0125ZM29.3851 8.76321H23.1941V9.5254C23.1941 11.7054 23.0514 14.5237 22.302 16.0125H21.6419V19.717H23.6045V17.6787H28.3682V19.717H30.3308V16.0125H29.3851V8.76321Z" fill="black" />
    <path d="M18.6267 12.2904H15.7899V8.76321H13.6667V17.6786H15.7899V13.9565H18.6267V17.6786H20.7498V8.76321H18.6267V12.2904Z" fill="black" />
    <path d="M51.4908 10.2521C52.3115 10.2521 53.1144 10.5357 53.5426 10.8015V9.01137C53.0966 8.76321 52.3115 8.58602 51.2589 8.58602C48.547 8.58602 47.1375 10.518 47.1375 13.2298C47.1375 16.2075 48.5112 17.8559 51.3481 17.8559C52.3294 17.8559 53.0252 17.6787 53.5426 17.3065V15.5871C53.0074 15.9594 52.3651 16.1898 51.473 16.1898C49.9564 16.1898 49.3321 15.02 49.3321 13.1766C49.3321 11.2447 50.0992 10.2521 51.4908 10.2521Z" fill="black" />
    <path d="M46.852 8.76321H44.711L41.7137 12.8753V8.76321H39.5905V17.6787H41.7137V13.3006L44.8537 17.6787H47.2624L43.8547 12.8753L46.852 8.76321Z" fill="black" />
    <path d="M36.0044 12.4144H33.0427C33.0962 10.9965 33.6136 10.2521 34.6306 10.2521C35.6833 10.2521 36.0044 11.1206 36.0044 12.2372V12.4144ZM34.6663 8.58594C32.0793 8.58594 30.8483 10.5534 30.8483 13.2475C30.8483 16.3493 32.3826 17.8559 35.0945 17.8559C36.4505 17.8559 37.4496 17.5014 38.074 17.076V15.3568C37.4139 15.7998 36.3078 16.1898 35.2729 16.1898C33.7207 16.1898 33.1319 15.4631 33.0427 13.9742H38.1632V12.8576C38.1632 9.75578 36.7894 8.58594 34.6663 8.58594Z" fill="black" />
    <path fill-rule="evenodd" clip-rule="evenodd" d="M94.0173 16.1381H93.0709V13.3435H94.0661C94.9419 13.3435 95.4555 13.7429 95.4555 14.7489C95.4555 15.7555 94.8879 16.1381 94.0173 16.1381ZM98.3165 9.04439V17.7681H100.36V9.04439H98.3165ZM91.0323 9.04439V17.7681H94.1367C96.1425 17.7681 97.5647 16.729 97.5647 14.6781C97.5647 12.7363 96.294 11.7135 94.1688 11.7135H93.0709V9.04439H91.0323ZM89.8317 10.6744V9.04439H82.9911V10.6744H85.3924V17.7681H87.431V10.6744H89.8317ZM78.7785 16.3081C77.6967 16.3081 77.1457 15.4275 77.1457 13.4144C77.1457 11.3855 77.7294 10.5049 78.8813 10.5049C79.9953 10.5049 80.5416 11.3855 80.5416 13.3981C80.5416 15.4275 79.9574 16.3081 78.7785 16.3081ZM76.9942 9.04439H75.1066V20.2787H77.1457V16.7453C77.6646 17.522 78.4164 17.9382 79.2922 17.9382C81.2768 17.9382 82.6502 16.3296 82.6502 13.3981C82.6502 10.4829 81.3147 8.87489 79.3949 8.87489C78.4325 8.87489 77.6428 9.32361 77.097 10.1711L76.9942 9.04439ZM71.4243 15.6847C71.1643 16.0672 70.6834 16.379 69.9643 16.379C69.1097 16.379 68.677 15.8925 68.677 15.1483C68.677 14.1586 69.38 13.7975 71.1322 13.7975H71.4243V15.6847ZM73.4629 11.8174C73.4629 9.70616 72.3977 8.90739 70.2398 8.90739C68.8882 8.90739 67.823 9.33986 67.206 9.70616V11.4238C67.7524 11.0024 68.953 10.5543 70.0022 10.5543C70.9755 10.5543 71.4243 10.8985 71.4243 11.8395V12.3207H71.0943C67.9739 12.3207 66.5896 13.3656 66.5896 15.1321C66.5896 16.8985 67.6497 17.8888 69.2291 17.8888C70.4292 17.8888 70.9428 17.4894 71.3377 17.0738H71.4243C71.4404 17.2979 71.5104 17.5934 71.5758 17.7681H73.5656C73.495 17.0576 73.4629 16.3464 73.4629 15.6353V11.8174ZM64.0862 17.7681H66.5035L62.2692 11.4401L66.1087 5.71873H63.9995L60.3115 11.2648V5.71873H58.2402V17.7681H60.3115V12.1129L64.0862 17.7681Z" fill="black" />
</svg>