<svg width="16" height="16" viewBox="0 0 16 16" fill="none" xmlns="http://www.w3.org/2000/svg">
<path d="M2 6V3C2 2.44772 2.44798 2 3.00027 2C4.00894 2 4.80297 2 6 2" stroke="#591A0B" stroke-width="0.6"/>
<path d="M14 6V3C14 2.44772 13.552 2 12.9997 2C11.9911 2 11.197 2 10 2" stroke="#591A0B" stroke-width="0.6"/>
<path d="M14 10V13C14 13.5523 13.552 14 12.9997 14C11.9911 14 11.197 14 10 14" stroke="#591A0B" stroke-width="0.6"/>
<path d="M2 10V13C2 13.5523 2.44798 14 3.00027 14C4.00894 14 4.80297 14 6 14" stroke="#591A0B" stroke-width="0.6"/>
</svg>
