<svg width="16" height="16" viewBox="0 0 16 16" fill="none" xmlns="http://www.w3.org/2000/svg">
<path d="M14.6138 9.25061L11.9337 9.97748L10.2456 9.0097V6.98971L11.8977 6.0426L14.6138 6.77891L14.7685 6.20911L12.2325 5.52181L12.9204 2.98574L12.3506 2.83104L11.6213 5.52062L9.99933 6.45061L8.1795 5.40017V3.39789L10.1599 1.41746L9.74247 1L7.88486 2.85761L6.02666 1.00059L5.60919 1.41805L7.58963 3.39848V5.40076L5.7698 6.4512L4.14779 5.52121L3.41797 2.83163L2.84817 2.98633L3.53606 5.5224L1 6.2097L1.1547 6.7795L3.87086 6.04319L5.52299 6.9903V8.98018L3.79941 9.96803L1.15529 9.25061L1.00059 9.82041L3.53665 10.5083L2.84876 13.0444L3.41856 13.1991L4.16727 10.438L5.81763 9.49211L7.58963 10.5148V12.6021L5.60919 14.5825L6.02666 15L7.88427 13.1424L9.74188 15L10.1593 14.5825L8.17891 12.6021V10.5148L9.92493 9.50688L11.6107 10.4735L12.35 13.1991L12.9198 13.0444L12.2319 10.5083L14.7679 9.82041L14.6138 9.25061ZM9.65567 8.98018L7.88427 10.0029L6.11286 8.98018V6.9348L7.88427 5.9121L9.65567 6.9348V8.98018Z" fill="#591A0B"/>
</svg>
