<svg width="16" height="16" viewBox="0 0 16 16" fill="none" xmlns="http://www.w3.org/2000/svg">
<path d="M7.66627 1.00118H8.24956V6.54238C8.24956 7.34673 7.5957 8.00059 6.79135 8.00059H5.91642V15H5.33314V8.00059H4.45821C4.07156 8.00028 3.70084 7.84655 3.42744 7.57315C3.15404 7.29975 3.00031 6.92902 3 6.54238V1.00118H3.58328V6.54238C3.58328 7.02475 3.97583 7.4173 4.45821 7.4173H5.33314V1.00118H5.91642V7.4173H6.79135C7.27372 7.4173 7.66627 7.02475 7.66627 6.54238V1.00118ZM13.4991 6.11483C13.4991 8.86618 11.0814 11.5435 10.5827 12.0661V15H9.99941V1.87669C9.99941 1.49288 10.2339 1.16683 10.5979 1.04609C10.7732 0.986541 10.963 0.984648 11.1396 1.04069C11.3161 1.09673 11.47 1.20776 11.5789 1.35756C12.455 2.5323 13.4991 4.31131 13.4991 6.11425V6.11483ZM10.5827 11.1865C11.3952 10.2229 12.9158 8.14699 12.9158 6.11483C12.9158 4.4723 11.9342 2.81052 11.1106 1.70578C11.085 1.66815 11.0505 1.63739 11.0103 1.61623C10.97 1.59507 10.9251 1.58416 10.8796 1.58446C10.8459 1.58468 10.8125 1.58999 10.7804 1.60021C10.7218 1.61846 10.6707 1.65532 10.6349 1.70521C10.5992 1.75511 10.5806 1.8153 10.5821 1.87669V11.1865H10.5827Z" fill="#591A0B"/>
</svg>
