<svg width="16" height="16" viewBox="0 0 16 16" fill="none" xmlns="http://www.w3.org/2000/svg">
<path d="M14.0393 2.73096L12.3054 0.99707L8.88452 4.41799L10.923 6.45648C10.0209 8.5887 8.52134 10.0883 6.45941 10.9259L4.42092 8.88745L1 12.3025L2.73389 14.0364C3.35481 14.6573 4.19833 15.0029 5.10628 15.0029C9.45272 15.0029 15 9.45565 15 5.1092C15 4.20125 14.6544 3.35774 14.0335 2.73096H14.0393ZM5.11213 14.4172C4.35649 14.4172 3.66527 14.136 3.14979 13.6205L1.8318 12.3025L4.42092 9.71339L6.31297 11.6054L6.4887 11.5351C8.85523 10.6331 10.554 8.93431 11.5322 6.49163L11.6025 6.31004L9.7046 4.41213L12.3054 1.82887L13.6234 3.14686C14.1389 3.65648 14.4201 4.35356 14.4201 5.1092C14.4201 9.11004 9.11297 14.4172 5.11213 14.4172Z" fill="#591A0B"/>
</svg>
