<svg width="32" height="32" viewBox="0 0 32 32" fill="none" xmlns="http://www.w3.org/2000/svg">
<g clip-path="url(#clip0_1120_17294)">
<path d="M32 11.3333C32 9.496 30.5053 8 28.6667 8H25.3333V0H6.66667V8H3.33333C2.4496 8.00106 1.60237 8.35259 0.97748 8.97748C0.352588 9.60237 0.00105857 10.4496 0 11.3333L0 28H6.66667V32H25.3333V28H32V11.3333ZM8 1.33333H24V8H8V1.33333ZM24 30.6667H8V20H24V30.6667ZM30.6667 26.6667H25.3333V18.6667H6.66667V26.6667H1.33333V11.3333C1.33333 10.2307 2.23067 9.33333 3.33333 9.33333H28.6667C29.7693 9.33333 30.6667 10.2307 30.6667 11.3333V26.6667ZM20 13.3333H25.3333V14.6667H20V13.3333Z" fill="#574030"/>
</g>
<defs>
<clipPath id="clip0_1120_17294">
<rect width="32" height="32" fill="white"/>
</clipPath>
</defs>
</svg>
