<svg width="16" height="16" viewBox="0 0 16 16" fill="none" xmlns="http://www.w3.org/2000/svg">
<path d="M14.7083 13.0833H14.4167V11.3333C14.4167 7.89283 11.6948 5.0765 8.29167 4.92367V4.29658C8.54195 4.23155 8.7636 4.08536 8.92193 3.8809C9.08026 3.67645 9.16633 3.42526 9.16667 3.16667C9.16667 2.52325 8.64342 2 8 2C7.35658 2 6.83333 2.52325 6.83333 3.16667C6.83333 3.70917 7.2055 4.1665 7.70833 4.29658V4.92367C4.30517 5.0765 1.58333 7.89283 1.58333 11.3333V13.0833H1.29167C1.21431 13.0833 1.14013 13.1141 1.08543 13.1688C1.03073 13.2235 1 13.2976 1 13.375C1 13.4524 1.03073 13.5265 1.08543 13.5812C1.14013 13.6359 1.21431 13.6667 1.29167 13.6667H14.7083C14.7857 13.6667 14.8599 13.6359 14.9146 13.5812C14.9693 13.5265 15 13.4524 15 13.375C15 13.2976 14.9693 13.2235 14.9146 13.1688C14.8599 13.1141 14.7857 13.0833 14.7083 13.0833ZM7.41667 3.16667C7.41667 3.01196 7.47812 2.86358 7.58752 2.75419C7.69692 2.64479 7.84529 2.58333 8 2.58333C8.15471 2.58333 8.30308 2.64479 8.41248 2.75419C8.52187 2.86358 8.58333 3.01196 8.58333 3.16667C8.58333 3.32138 8.52187 3.46975 8.41248 3.57915C8.30308 3.68854 8.15471 3.75 8 3.75C7.84529 3.75 7.69692 3.68854 7.58752 3.57915C7.47812 3.46975 7.41667 3.32138 7.41667 3.16667ZM2.16667 11.3333C2.16667 8.11683 4.7835 5.5 8 5.5C11.2165 5.5 13.8333 8.11683 13.8333 11.3333V13.0833H2.16667V11.3333Z" fill="#591A0B"/>
</svg>
