<svg width="16" height="16" viewBox="0 0 16 16" fill="none" xmlns="http://www.w3.org/2000/svg">
<path d="M11.2079 4.50211C10.4041 4.50211 9.74963 5.15599 9.74963 5.96037C9.74963 6.76475 10.4041 7.41864 11.2079 7.41864C12.0117 7.41864 12.6662 6.76475 12.6662 5.96037C12.6662 5.15599 12.0117 4.50211 11.2079 4.50211ZM11.2079 6.83533C10.7255 6.83533 10.3329 6.44277 10.3329 5.96037C10.3329 5.47798 10.7255 5.08541 11.2079 5.08541C11.6903 5.08541 12.0829 5.47798 12.0829 5.96037C12.0829 6.44277 11.6903 6.83533 11.2079 6.83533ZM14.3782 1.16443C14.1876 1.05447 13.971 0.997711 13.751 1.00007C13.531 1.00243 13.3157 1.06383 13.1276 1.17785C12.5069 1.54708 10.3032 2.75161 7.99971 2.75161C5.69623 2.75161 3.4925 1.54766 2.87128 1.17843C2.68313 1.06441 2.4678 1.00301 2.24781 1.00065C2.02782 0.998294 1.81123 1.05506 1.62067 1.16501C1.43105 1.27143 1.27344 1.42677 1.16428 1.61482C1.05512 1.80288 0.998402 2.01678 1.00003 2.23421V13.7673C1.00003 14.2165 1.23219 14.6161 1.62126 14.8371C1.81189 14.9468 2.02845 15.0035 2.24839 15.0011C2.46833 14.9987 2.68362 14.9375 2.87186 14.8237C3.49133 14.4551 5.69332 13.2517 7.99971 13.2517C10.3061 13.2517 12.5081 14.4551 13.1281 14.8237C13.327 14.9421 13.5464 15.0016 13.7657 15.0016C13.9757 15.0016 14.1863 14.9468 14.3787 14.8377C14.5686 14.7313 14.7263 14.5759 14.8356 14.3877C14.9449 14.1996 15.0016 13.9855 15 13.7679V2.23421C15 1.78507 14.7678 1.3855 14.3787 1.16443H14.3782ZM13.4262 14.3226C12.7735 13.9348 10.4548 12.6684 7.99971 12.6684C5.54457 12.6684 3.22593 13.9348 2.57379 14.3226C2.47402 14.3833 2.35978 14.4161 2.24301 14.4175C2.12624 14.419 2.01123 14.389 1.90999 14.3308C1.81013 14.2748 1.72714 14.1931 1.66968 14.094C1.61222 13.995 1.5824 13.8824 1.58334 13.7679V11.2731L5.01085 7.84562C5.56149 7.29439 6.52219 7.29439 7.07342 7.84562L13.6309 14.4031C13.5588 14.3875 13.4897 14.3603 13.4262 14.3226ZM14.4161 13.7679C14.4161 13.9324 14.3572 14.0841 14.2522 14.2002L7.48523 7.43322C6.7141 6.66209 5.369 6.66209 4.59787 7.43322L1.58276 10.4483V2.23421C1.58276 1.99797 1.70467 1.7874 1.90941 1.67132C2.01057 1.61289 2.12561 1.5828 2.24243 1.58424C2.35925 1.58568 2.47352 1.61858 2.57321 1.67949C3.22651 2.06797 5.54749 3.3355 7.99971 3.3355C10.4519 3.3355 12.7729 2.06797 13.4256 1.67949C13.5254 1.6187 13.6396 1.58587 13.7564 1.58443C13.8732 1.58299 13.9882 1.61301 14.0894 1.67132C14.2942 1.7874 14.4161 1.99797 14.4161 2.23421V13.7679Z" fill="#591A0B"/>
</svg>
