<svg width="32" height="32" viewBox="0 0 32 32" fill="none" xmlns="http://www.w3.org/2000/svg">
<path d="M15.9999 28C14.5333 28 13.3333 26.8 13.3333 25.3333C13.3333 23.8667 14.5333 22.6667 15.9999 22.6667C17.4666 22.6667 18.6666 23.8667 18.6666 25.3333C18.6666 26.8 17.4666 28 15.9999 28ZM15.9999 24C15.2666 24 14.6666 24.6 14.6666 25.3333C14.6666 26.0667 15.2666 26.6667 15.9999 26.6667C16.7333 26.6667 17.3333 26.0667 17.3333 25.3333C17.3333 24.6 16.7333 24 15.9999 24ZM24.4799 16.8533C22.2133 14.5867 19.1999 13.3333 15.9999 13.3333C12.7999 13.3333 9.78659 14.5867 7.51992 16.8533L8.46659 17.8C10.4799 15.7867 13.1599 14.68 16.0133 14.68C18.8666 14.68 21.5466 15.7867 23.5599 17.8L24.5066 16.8533H24.4799ZM31.0799 10.2533C27.0533 6.22667 21.6933 4 15.9999 4C10.3066 4 4.94659 6.21333 0.919922 10.2533L1.86659 11.2C5.63992 7.42667 10.6666 5.34667 16.0133 5.34667C21.3599 5.34667 26.3733 7.42667 30.1599 11.2L31.1066 10.2533H31.0799Z" fill="#574030"/>
</svg>
