<svg width="16" height="16" viewBox="0 0 16 16" fill="none" xmlns="http://www.w3.org/2000/svg">
<path d="M13.5417 2H2.45833C2.0717 2.00046 1.70104 2.15426 1.42765 2.42765C1.15426 2.70104 1.00046 3.0717 1 3.45833L1 13.6667H1.58333V11.9167H14.4167V13.6667H15V3.45833C15 2.6545 14.3461 2 13.5417 2ZM2.45833 2.58333H13.5417C14.0241 2.58333 14.4167 2.97592 14.4167 3.45833V8.41667H13.25V7.54167C13.25 6.73783 12.5961 6.08333 11.7917 6.08333H9.16667C8.69008 6.08333 8.266 6.31317 8 6.66783C7.86438 6.4864 7.68831 6.3391 7.48578 6.23763C7.28325 6.13617 7.05985 6.08333 6.83333 6.08333H4.20833C3.8217 6.0838 3.45104 6.23759 3.17765 6.51098C2.90426 6.78437 2.75046 7.15504 2.75 7.54167V8.41667H1.58333V3.45833C1.58333 2.97592 1.97592 2.58333 2.45833 2.58333ZM7.70833 8.41667H3.33333V7.54167C3.33333 7.05925 3.72592 6.66667 4.20833 6.66667H6.83333C7.31575 6.66667 7.70833 7.05925 7.70833 7.54167V8.41667ZM12.6667 8.41667H8.29167V7.54167C8.29167 7.05925 8.68425 6.66667 9.16667 6.66667H11.7917C12.2741 6.66667 12.6667 7.05925 12.6667 7.54167V8.41667ZM1.58333 11.3333V9H14.4167V11.3333H1.58333Z" fill="#591A0B"/>
</svg>
