<svg width="16" height="16" viewBox="0 0 16 16" fill="none" xmlns="http://www.w3.org/2000/svg">
<path d="M15.0003 8.69316V1.48884L11.1234 2.59253C9.2205 1.83477 6.86729 1 5.08342 1C2.8317 1 1 2.8317 1 5.08283C1 6.87254 2.15969 8.3939 3.76564 8.94341L5.80152 13.9217C6.14511 14.7973 7.22896 15.2435 8.08998 14.8638C8.51795 14.6847 8.85746 14.3433 9.03406 13.9143C9.21067 13.4853 9.20995 13.0038 9.03208 12.5753L7.43955 8.76783C8.58582 8.43999 9.83302 7.94939 11.1251 7.43022L15.0009 8.69258L15.0003 8.69316ZM14.4169 7.88931L11.5002 6.93962V3.09188L14.4169 2.26119V7.88931ZM1.58335 5.08283C1.58443 4.15494 1.95355 3.26537 2.60972 2.60931C3.2659 1.95325 4.15553 1.58427 5.08342 1.58335C6.77104 1.58335 9.06183 2.3977 10.9169 3.13679V6.88537C8.71824 7.76856 6.64912 8.58232 5.08342 8.58232C3.15313 8.58232 1.58335 7.01254 1.58335 5.08283ZM8.49366 12.7999C8.60899 13.0847 8.60732 13.4035 8.48901 13.6871C8.3707 13.9706 8.14531 14.1961 7.86177 14.3145C7.57823 14.4328 7.25943 14.4346 6.97461 14.3193C6.68979 14.2041 6.46194 13.9811 6.34053 13.6988L4.46566 9.11375C4.66749 9.14467 4.87283 9.16567 5.08342 9.16567C5.63293 9.16567 6.23494 9.06883 6.86904 8.91658L8.49366 12.7999Z" fill="#591A0B"/>
</svg>
