<svg width="32" height="32" viewBox="0 0 32 32" fill="none" xmlns="http://www.w3.org/2000/svg">
<g clip-path="url(#clip0_1120_17270)">
<path d="M18 6.66667H14C11.4267 6.66667 9.33333 8.76 9.33333 11.3333V24.6667C9.33333 24.8435 9.40357 25.013 9.5286 25.1381C9.65362 25.2631 9.82319 25.3333 10 25.3333C10.1768 25.3333 10.3464 25.2631 10.4714 25.1381C10.5964 25.013 10.6667 24.8435 10.6667 24.6667V18.6667H18C21.308 18.6667 24 15.9747 24 12.6667C24 9.35867 21.308 6.66667 18 6.66667ZM18 17.3333H10.6667V11.3333C10.6667 9.496 12.1613 8 14 8H18C20.5733 8 22.6667 10.0933 22.6667 12.6667C22.6667 15.24 20.5733 17.3333 18 17.3333ZM16 0C7.17733 0 0 7.17733 0 16C0 24.8227 7.17733 32 16 32C24.8227 32 32 24.8227 32 16C32 7.17733 24.8227 0 16 0ZM16 30.6667C7.91333 30.6667 1.33333 24.0867 1.33333 16C1.33333 7.91333 7.91333 1.33333 16 1.33333C24.0867 1.33333 30.6667 7.91333 30.6667 16C30.6667 24.0867 24.0867 30.6667 16 30.6667Z" fill="#574030"/>
</g>
<defs>
<clipPath id="clip0_1120_17270">
<rect width="32" height="32" fill="white"/>
</clipPath>
</defs>
</svg>
