<svg width="16" height="16" viewBox="0 0 16 16" fill="none" xmlns="http://www.w3.org/2000/svg">
<path d="M5.37482 8.58302C6.82201 8.58302 7.99971 7.40532 7.99971 5.95813C7.99971 4.51094 6.82201 3.33324 5.37482 3.33324C3.92763 3.33324 2.74993 4.51094 2.74993 5.95813C2.74993 7.40532 3.92763 8.58302 5.37482 8.58302ZM5.37482 3.91654C6.5006 3.91654 7.4164 4.83234 7.4164 5.95813C7.4164 7.08391 6.5006 7.99971 5.37482 7.99971C4.24903 7.99971 3.33324 7.08391 3.33324 5.95813C3.33324 4.83234 4.24903 3.91654 5.37482 3.91654ZM9.74964 12.3745V14.9994H9.16633V12.3745C9.16633 11.2487 8.25053 10.3329 7.12474 10.3329H3.62489C2.4991 10.3329 1.58331 11.2487 1.58331 12.3745V14.9994H1V12.3745C1 10.9273 2.1777 9.74963 3.62489 9.74963H7.12474C8.57193 9.74963 9.74964 10.9273 9.74964 12.3745ZM11.2079 6.24978C12.6551 6.24978 13.8328 5.07208 13.8328 3.62489C13.8328 2.1777 12.6551 1 11.2079 1C9.76072 1 8.58302 2.1777 8.58302 3.62489C8.58302 5.07208 9.76072 6.24978 11.2079 6.24978ZM11.2079 1.58331C12.3337 1.58331 13.2495 2.4991 13.2495 3.62489C13.2495 4.75068 12.3337 5.66647 11.2079 5.66647C10.0821 5.66647 9.16633 4.75068 9.16633 3.62489C9.16633 2.4991 10.0821 1.58331 11.2079 1.58331ZM14.9994 10.0413V12.6662H14.4161V10.0413C14.4161 8.9155 13.5003 7.99971 12.3745 7.99971H8.87467C8.76151 7.99971 8.65243 8.01546 8.54452 8.03296C8.67304 7.83798 8.78337 7.63159 8.87409 7.4164H12.3751C13.8223 7.4164 14.9994 8.5941 14.9994 10.0413Z" fill="#591A0B"/>
</svg>
