<svg width="32" height="32" viewBox="0 0 32 32" fill="none" xmlns="http://www.w3.org/2000/svg">
<g clip-path="url(#clip0_1120_17262)">
<path d="M29.4908 6.66667C28.8254 6.66667 28.2268 6.29733 27.9294 5.70133C27.675 5.18901 27.2823 4.75813 26.7957 4.45746C26.3091 4.15678 25.7481 3.99832 25.1761 4H24.0001V0H23.3334C22.4497 0.00105857 21.6025 0.352588 20.9776 0.97748C20.3527 1.60237 20.0012 2.4496 20.0001 3.33333V5.67467L18.1988 10.6667L7.32943 10.672C6.68711 10.6702 6.05143 10.8019 5.4627 11.0587C4.87396 11.3156 4.34503 11.692 3.90943 12.164C3.14409 11.6267 1.32943 10.0013 1.32943 6.66533H-0.00390625C-0.00390625 10.6013 2.14676 12.5613 3.14943 13.26C2.82783 13.9061 2.6612 14.6183 2.66276 15.34L2.66676 32.0053H9.32943V23.9987L18.6668 23.9947V32H25.3374L25.3268 24.12L27.0681 14.6667H28.6668C30.5041 14.6667 32.0001 13.1707 32.0001 11.3333V6.66667H29.4908ZM30.6668 11.3333C30.6668 12.436 29.7694 13.3333 28.6668 13.3333H25.9574L24.0041 24V30.6667H20.0001V22.66L7.99609 22.6667V30.672H4.00009L3.99609 15.34C3.99609 14.4493 4.34276 13.612 4.97209 12.9813C5.28118 12.6708 5.6488 12.4246 6.05366 12.2571C6.45853 12.0895 6.8926 12.004 7.33076 12.0053L19.1361 12L21.2948 6.01733L21.3348 3.33333C21.3348 2.464 21.8921 1.72267 22.6681 1.44667V5.33333H25.1774C25.8428 5.33333 26.4414 5.70267 26.7388 6.29867C26.9931 6.81099 27.3859 7.24187 27.8725 7.54254C28.3591 7.84322 28.9201 8.00168 29.4921 8H30.6681L30.6668 11.3333Z" fill="#574030"/>
</g>
<defs>
<clipPath id="clip0_1120_17262">
<rect width="32" height="32" fill="white"/>
</clipPath>
</defs>
</svg>
