<svg width="16" height="16" viewBox="0 0 16 16" fill="none" xmlns="http://www.w3.org/2000/svg">
<path d="M15 3.45833C15 3.26682 14.9623 3.07719 14.889 2.90025C14.8157 2.72332 14.7083 2.56255 14.5729 2.42714C14.4374 2.29172 14.2767 2.1843 14.0997 2.11101C13.9228 2.03772 13.7332 2 13.5417 2H2.45833C2.07156 2 1.70063 2.15365 1.42714 2.42714C1.15365 2.70063 1 3.07156 1 3.45833L1 13.6667H2.16667V14.8333H2.75V13.6667H13.25V14.8333H13.8333V13.6667H15V3.45833ZM14.4167 13.0833H1.58333V11.3333H3.33333V10.75H1.58333V4.91667H3.33333V4.33333H1.58333V3.45833C1.58333 2.97417 1.97417 2.58333 2.45833 2.58333H13.5417C14.0258 2.58333 14.4167 2.97417 14.4167 3.45833V13.0833ZM8.58333 4.33333C6.6525 4.33333 5.08333 5.9025 5.08333 7.83333C5.08333 9.76417 6.6525 11.3333 8.58333 11.3333C10.5142 11.3333 12.0833 9.76417 12.0833 7.83333C12.0833 5.9025 10.5142 4.33333 8.58333 4.33333ZM8.58333 10.75C6.97333 10.75 5.66667 9.44333 5.66667 7.83333C5.66667 6.22333 6.97333 4.91667 8.58333 4.91667C10.0942 4.91667 11.3367 6.07167 11.4883 7.54167H9.16667V8.125H11.4883C11.4145 8.84433 11.0766 9.51077 10.5401 9.99558C10.0036 10.4804 9.30645 10.7492 8.58333 10.75Z" fill="#591A0B"/>
</svg>
