<svg width="16" height="16" viewBox="0 0 16 16" fill="none" xmlns="http://www.w3.org/2000/svg">
<path d="M11.4673 2.16667C10.0492 2.16667 8.58333 3.69383 8.58333 6.25C8.58333 7.10808 8.99575 7.98833 9.43267 8.92167C9.87542 9.86725 10.3333 10.8449 10.3333 11.7917V12.9583C10.3333 14.0842 11.2492 15 12.375 15C13.5008 15 14.4167 14.0842 14.4167 12.9583V11.7917C14.4167 10.7813 14.5771 10.0492 14.7328 9.34108C14.8699 8.71575 15 8.12483 15 7.41667C15 2.31367 11.829 2.16667 11.4673 2.16667ZM13.8333 12.9583C13.8333 13.7622 13.1794 14.4167 12.375 14.4167C11.5706 14.4167 10.9167 13.7622 10.9167 12.9583V11.7917C10.9167 11.6942 10.8245 11.0135 10.8169 10.9167H13.873C13.8701 11.0117 13.8333 11.6919 13.8333 11.7917V12.9583ZM14.1629 9.21625C14.0538 9.71442 13.9337 10.2598 13.873 10.9167H10.8169C10.6512 10.1496 10.3012 9.40292 9.96 8.67375C9.55167 7.80167 9.16608 6.978 9.16608 6.25C9.16608 4.059 10.3363 2.75 11.4668 2.75C11.7689 2.75 14.4161 2.88125 14.4161 7.41667C14.4161 8.06183 14.2936 8.62242 14.1629 9.21625ZM4.53267 1C4.171 1 1 1.147 1 6.25C1 6.95817 1.13008 7.54908 1.26717 8.17442C1.42292 8.882 1.58333 9.61408 1.58333 10.625V11.7917C1.58333 12.9175 2.49917 13.8333 3.625 13.8333C4.75083 13.8333 5.66667 12.9175 5.66667 11.7917V10.625C5.66667 9.67825 6.12458 8.70058 6.56733 7.755C7.00425 6.82225 7.41667 5.94142 7.41667 5.08333C7.41667 2.52717 5.95017 1 4.53267 1ZM5.08333 11.7917C5.08333 12.5955 4.42942 13.25 3.625 13.25C2.82058 13.25 2.16667 12.5955 2.16667 11.7917V10.625C2.16667 10.5253 2.12933 9.84508 2.12642 9.75H5.1825C5.17492 9.84683 5.08333 10.5276 5.08333 10.625V11.7917ZM6.03942 7.50708C5.69817 8.23625 5.34817 8.98292 5.1825 9.75H2.12642C2.06575 9.09317 1.94617 8.54775 1.8365 8.04958C1.70583 7.45575 1.58275 6.89517 1.58275 6.25C1.58333 1.71458 4.2305 1.58333 4.53267 1.58333C5.66317 1.58333 6.83333 2.89233 6.83333 5.08333C6.83333 5.81133 6.44775 6.635 6.03942 7.50708Z" fill="#591A0B"/>
<path d="M1.5 6.50045C3.6107 6.07554 4.90418 6.18266 7 6.50045" stroke="#591A0B" stroke-width="0.6"/>
<path d="M9 6.99999C11.1749 6.56291 12.3684 6.5307 14.5 6.99999" stroke="#591A0B" stroke-width="0.6"/>
</svg>
