<svg width="32" height="32" viewBox="0 0 32 32" fill="none" xmlns="http://www.w3.org/2000/svg">
<path d="M32 16.4647C32 15.6193 31.8253 14.7993 31.4827 14.0273L27.3133 4.64468C27.051 4.05574 26.6237 3.55543 26.083 3.20427C25.5423 2.85311 24.9114 2.66615 24.2667 2.66602H3.33333C2.4496 2.66707 1.60237 3.0186 0.97748 3.6435C0.352588 4.26839 0.00105857 5.11562 0 5.99935L0 25.3327H2.66667V26.666C2.66667 28.8713 4.46133 30.666 6.66667 30.666C8.872 30.666 10.6667 28.8713 10.6667 26.666V25.3327H21.3333V26.666C21.3333 28.8713 23.128 30.666 25.3333 30.666C27.5387 30.666 29.3333 28.8713 29.3333 26.666V25.3327H32V16.4647ZM26.0947 5.18735L29.7147 13.3327H20V3.99935H24.2667C24.6536 3.9993 25.0323 4.11151 25.3568 4.32238C25.6812 4.53324 25.9376 4.83371 26.0947 5.18735ZM10.6667 13.3327V3.99935H18.6667V13.3327H10.6667ZM3.33333 3.99935H9.33333V13.3327H1.33333V5.99935C1.33333 4.89668 2.23067 3.99935 3.33333 3.99935ZM9.33333 26.666C9.33333 28.1367 8.13733 29.3327 6.66667 29.3327C5.196 29.3327 4 28.1367 4 26.666V25.3327H9.33333V26.666ZM28 26.666C28 28.1367 26.804 29.3327 25.3333 29.3327C23.8627 29.3327 22.6667 28.1367 22.6667 26.666V25.3327H28V26.666ZM30.6667 23.9993H1.33333V14.666H30.3053C30.544 15.238 30.6667 15.842 30.6667 16.4647V23.9993Z" fill="#574030"/>
</svg>
