<svg xmlns="http://www.w3.org/2000/svg" width="585" height="280" viewBox="0 0 585 280" fill="none">
    <path opacity="0.1" d="M541.6 234.6C541.6 242.867 542.133 248.867 543.2 252.6C544.533 256.333 546.8 258.867 550 260.2C553.2 261.533 558.4 262.2 565.6 262.2C566.133 262.2 566.4 263 566.4 264.6C566.4 266.2 566.133 267 565.6 267C557.6 267 551.333 266.867 546.8 266.6L520 266.2L488 266.6C482.667 266.867 475.067 267 465.2 267C464.667 267 464.4 266.2 464.4 264.6C464.4 263 464.667 262.2 465.2 262.2C476.133 262.2 483.733 261.667 488 260.6C492.533 259.267 495.6 256.867 497.2 253.4C498.8 249.667 499.6 243.4 499.6 234.6V71.4L518 57L428.4 179C426.8 180.867 427.467 181.8 430.4 181.8C475.733 181.8 520.8 181 565.6 179.4C566.667 179.4 567.2 182.2 567.2 187.8C567.2 193.4 566.667 196.2 565.6 196.2C526.4 194.333 473.6 193.4 407.2 193.4C405.867 193.4 404.8 193 404 192.2C403.467 191.133 403.6 190.067 404.4 189L535.6 15C536.133 14.4667 536.933 14.2 538 14.2C538.8 14.2 539.6 14.4667 540.4 15C541.2 15.2667 541.6 15.8 541.6 16.6V234.6Z" fill="#591A0B" />
    <path opacity="0.1" d="M153.6 234.6C153.6 242.867 154.133 248.867 155.2 252.6C156.533 256.333 158.8 258.867 162 260.2C165.2 261.533 170.4 262.2 177.6 262.2C178.133 262.2 178.4 263 178.4 264.6C178.4 266.2 178.133 267 177.6 267C169.6 267 163.333 266.867 158.8 266.6L132 266.2L100 266.6C94.6667 266.867 87.0667 267 77.2 267C76.6667 267 76.4 266.2 76.4 264.6C76.4 263 76.6667 262.2 77.2 262.2C88.1333 262.2 95.7333 261.667 100 260.6C104.533 259.267 107.6 256.867 109.2 253.4C110.8 249.667 111.6 243.4 111.6 234.6V71.4L130 57L40.4 179C38.8 180.867 39.4667 181.8 42.4 181.8C87.7333 181.8 132.8 181 177.6 179.4C178.667 179.4 179.2 182.2 179.2 187.8C179.2 193.4 178.667 196.2 177.6 196.2C138.4 194.333 85.6 193.4 19.2 193.4C17.8667 193.4 16.8 193 16 192.2C15.4667 191.133 15.6 190.067 16.4 189L147.6 15C148.133 14.4667 148.933 14.2 150 14.2C150.8 14.2 151.6 14.4667 152.4 15C153.2 15.2667 153.6 15.8 153.6 16.6V234.6Z" fill="#591A0B" />
    <g opacity="0.1" clip-path="url(#clip0_29_9202)">
        <path d="M374.101 53.7365C353.521 27.847 324.143 13 293.506 13C262.868 13 233.479 27.847 212.911 53.7365C194.267 77.1902 184 107.824 184 140C184 172.176 194.267 202.81 212.911 226.264C233.479 252.153 262.857 267 293.506 267C324.155 267 353.532 252.153 374.101 226.264C392.745 202.81 403.012 172.176 403.012 140C403.012 107.824 392.745 77.1902 374.101 53.7365Z" fill="#591A0B" />
        <path d="M354.57 49.8035C351.781 47.3097 345.516 44.8854 334.934 56.6007C327.199 65.1609 325.484 72.5032 330.233 76.7369C334.981 80.9706 342.133 78.5 349.868 69.9398C360.462 58.2245 357.358 52.2973 354.57 49.8035ZM333.616 73.002C330.874 70.5545 334.643 64.4533 338.703 59.9644C340.768 57.6794 347.756 50.4763 351.198 53.5385C354.64 56.6123 348.176 64.2909 346.111 66.576C342.051 71.0765 336.346 75.4494 333.616 73.002Z" fill="#CDBCAE" />
        <path d="M277.101 64.5361C276.296 64.9536 274.954 64.6984 273.974 63.2717L257.862 40.3401C256.766 38.7742 257.594 37.5214 258.411 37.1155C258.726 36.9531 258.516 36.5471 258.212 36.7095C257.407 37.1155 255.319 38.1826 253.931 38.8902L252.717 39.5049L251.947 39.8993L250.734 40.514C249.346 41.2216 247.245 42.2887 246.452 42.6947C246.149 42.8455 246.359 43.2515 246.674 43.0891C247.479 42.6715 249.007 42.7411 249.637 44.5506C249.637 44.5506 249.637 44.5506 249.637 44.5622L258.982 70.962C259.542 72.5743 258.982 73.7806 258.177 74.1866C257.862 74.349 258.072 74.755 258.376 74.5926C258.901 74.3258 259.484 74.0242 259.974 73.769L264.104 71.658C264.629 71.3912 265.679 70.8576 266.554 70.4053C266.858 70.2545 266.648 69.8485 266.333 70.0109C265.528 70.4285 263.696 70.4981 263.089 68.8046C263.019 68.5958 262.961 68.445 262.914 68.329L260.511 61.5551L265.399 59.0612L269.693 65.174C269.739 65.2436 269.774 65.29 269.833 65.3712C270.859 66.8443 269.739 68.2826 268.923 68.6886C268.608 68.851 268.818 69.2569 269.121 69.0946C270.008 68.6422 271.046 68.1086 271.571 67.8418L275.701 65.7308C276.203 65.4756 276.786 65.1856 277.311 64.9072C277.626 64.7796 277.416 64.3737 277.101 64.5361ZM258.971 57.1821L253.779 42.5091L262.739 55.2567L258.971 57.1821Z" fill="#CDBCAE" />
        <path d="M254.259 76.4939C253.699 77.2015 252.404 77.503 251.039 76.4359C250.875 76.3083 250.759 76.2271 250.654 76.1575L229.105 59.1299C227.775 58.0627 227.786 56.752 228.346 56.0561C228.568 55.7777 228.206 55.4993 227.996 55.7661C227.436 56.4736 226.783 57.2856 226.386 57.7843L224.03 60.7306C223.948 60.8349 223.936 60.9857 224.006 61.1017L232.033 73.8261L217.858 68.8036C217.73 68.8384 217.636 68.8732 217.496 68.908L215.14 71.8542C214.743 72.3414 214.089 73.1649 213.529 73.8609C213.319 74.1277 213.669 74.406 213.891 74.1393C214.451 73.4317 215.746 73.1301 217.111 74.1973C217.111 74.1973 217.123 74.1973 217.123 74.2089L238.555 91.1437C238.637 91.2365 238.765 91.3525 238.987 91.5265C240.352 92.6052 240.34 93.9276 239.768 94.6351C239.547 94.9135 239.908 95.1919 240.118 94.9251C240.527 94.4147 240.993 93.8348 241.367 93.3708L244.26 89.7634C244.634 89.2995 245.089 88.7311 245.497 88.2207C245.707 87.9539 245.357 87.6756 245.135 87.9424C244.575 88.6499 243.28 88.9515 241.915 87.8844C241.763 87.7684 241.647 87.6756 241.553 87.6176L227.378 76.4127L239.512 79.6373L233.62 68.6064L248.052 80.0085C248.087 80.0317 248.11 80.0549 248.145 80.0897C249.51 81.1684 249.499 82.4907 248.927 83.1983C248.705 83.4766 249.067 83.755 249.277 83.4882C249.685 82.9779 250.129 82.4211 250.502 81.9571L253.395 78.3498C253.769 77.8858 254.224 77.3175 254.632 76.8071C254.83 76.5055 254.48 76.2271 254.259 76.4939Z" fill="#CDBCAE" />
        <path d="M320.445 68.4904C319.57 68.2352 318.893 67.1797 319.302 65.4978C319.302 65.4862 319.302 65.4746 319.313 65.4746C321.834 55.6733 320.375 47.6234 319.535 44.2596C321.892 43.1345 324.097 41.325 325.614 38.4716C325.649 38.402 325.695 38.3556 325.742 38.2744C326.582 36.7665 327.574 36.2909 328.449 36.5577C328.787 36.6621 328.915 36.2213 328.589 36.1285C328.005 35.9546 327.352 35.769 326.804 35.6066C326.804 35.6066 326.804 35.6066 326.804 35.595L322.464 34.3075C322.3 34.2611 322.125 34.3539 322.079 34.5163C320.364 39.7707 316.058 40.8842 313.2 41.0118L314.892 35.3398C314.903 35.2934 314.927 35.2586 314.938 35.2006C315.428 33.5419 316.665 33.0547 317.54 33.3215C317.878 33.4259 318.007 32.9852 317.68 32.8924C316.817 32.6372 315.802 32.3356 315.207 32.1616L311.94 31.1989C311.333 31.0249 310.33 30.7233 309.467 30.4681C309.14 30.3753 309.012 30.8045 309.35 30.9089C310.225 31.1641 310.995 32.2428 310.493 33.9015C310.47 33.9943 310.458 34.0523 310.435 34.1219L302.548 60.4869C302.536 60.5101 302.536 60.5333 302.525 60.5565C302.035 62.2152 300.798 62.7024 299.923 62.4356C299.585 62.3312 299.456 62.772 299.783 62.8648C300.401 63.0504 301.101 63.2592 301.673 63.4215L306.118 64.7323C306.69 64.9062 307.378 65.1034 308.008 65.289C308.335 65.3818 308.463 64.9526 308.125 64.8482C307.25 64.5931 306.48 63.5143 306.982 61.8556C307.005 61.786 307.017 61.7397 307.028 61.6817L311.765 45.8371C312.733 45.8719 313.807 45.7907 314.915 45.6399C315.685 48.8993 317.038 57.1812 313.982 66.7041C313.923 66.8665 314.017 67.0521 314.192 67.0985L318.497 68.3744C319.057 68.5368 319.745 68.7456 320.352 68.9312C320.655 69.024 320.784 68.5832 320.445 68.4904Z" fill="#CDBCAE" />
        <path d="M293.343 31.4307C290.59 29.2964 284.885 30.0735 284.885 30.0735L280.895 30.5259C280.265 30.5955 279.226 30.7115 278.328 30.8159C277.99 30.8507 278.036 31.3031 278.386 31.2683C279.285 31.1639 280.405 31.8598 280.603 33.5417L283.742 61.1827C283.742 61.1943 283.742 61.1943 283.742 61.2059C283.94 62.9226 282.983 63.8505 282.085 63.9549C281.735 63.9897 281.782 64.4421 282.132 64.4073C282.773 64.3377 283.497 64.2565 284.08 64.1869L288.688 63.6649C289.283 63.5953 290.007 63.5141 290.66 63.4445C290.998 63.4097 290.952 62.9574 290.602 62.9922C289.703 63.0966 288.572 62.4006 288.373 60.6839C288.35 60.5099 288.338 60.3707 288.315 60.2663L286.973 48.4467C289.82 46.6604 296.062 42.1483 295.712 36.7199C295.572 34.3653 294.79 32.5558 293.343 31.4307ZM286.425 43.0183V42.9835C286.402 42.9951 286.39 43.0183 286.367 43.0299L285.445 34.922C285.468 34.922 285.48 34.922 285.503 34.9104C285.503 34.9104 287.977 34.4001 289.633 34.8524C289.715 34.8756 289.797 34.8988 289.867 34.922C289.89 34.9336 289.902 34.9336 289.925 34.9452C289.937 34.9452 289.948 34.9568 289.96 34.9568C290.392 35.1192 290.753 35.3744 290.94 35.7456C292.468 38.6454 288.712 41.4408 286.425 43.0183Z" fill="#CDBCAE" />
        <path d="M358.875 95.3431C361.605 93.1625 363.693 89.6247 364.696 86.5393C366.925 87.0845 369.235 87.1657 371.23 86.1334C373.33 85.043 374.672 83.6047 375.127 81.83C375.932 78.6867 372.933 73.5946 372.933 73.5946L370.903 70.1612C370.588 69.616 370.052 68.7229 369.597 67.9458C369.422 67.6558 369.025 67.8878 369.212 68.1777C369.655 68.9317 369.48 70.1844 368.092 71.066L343.941 85.1474C343.883 85.1822 343.848 85.1938 343.778 85.2402C342.273 86.1102 341.036 85.6346 340.581 84.8458C340.406 84.5443 340.009 84.7762 340.184 85.0662C340.884 86.261 341.783 87.7688 341.783 87.7688C342.109 88.314 342.506 88.9984 342.868 89.6015C344.559 92.4781 347.686 96.8626 352.318 97.431C354.546 97.721 356.81 96.9902 358.875 95.3431ZM368.722 76.0768C368.722 76.0768 369.935 77.7587 370.355 79.3362C370.507 79.8234 370.565 80.2525 370.483 80.5657V80.5773C370.448 80.8789 370.355 81.1457 370.168 81.3661C368.115 83.9295 364.02 81.6561 361.64 80.2061L368.722 76.0768ZM353.531 92.8261C349.961 93.1045 347.628 88.3836 347.628 88.3836L356.915 82.9668C357.078 83.0712 357.253 83.1872 357.428 83.3031C357.486 83.3495 357.556 83.3843 357.615 83.4191C358.315 83.8599 359.166 84.3471 360.135 84.8342C360.181 86.6321 357.241 92.5245 353.531 92.8261Z" fill="#CDBCAE" />
        <path d="M318.264 120.095V115.514C307.168 115.514 298.791 124.944 293.436 136.242C288.081 124.944 279.704 115.514 268.609 115.514V120.095C269.776 120.095 270.896 120.246 271.992 120.501V172.651H267.652V177.233H280.556V172.651H276.601V122.392C282.819 126.057 287.731 133.678 291.021 141.983C288.034 150.021 286.494 158.338 286.494 164.497C286.494 168 286.949 170.842 287.848 172.941C289.376 176.514 291.861 177.175 293.331 177.233V177.245C293.366 177.245 293.401 177.245 293.436 177.245C293.471 177.245 293.506 177.245 293.541 177.245V177.233C295.023 177.175 297.508 176.514 299.025 172.953C299.923 170.854 300.378 168.012 300.378 164.509C300.378 158.35 298.838 150.033 295.851 141.995C299.34 133.168 304.66 125.118 311.438 121.766V172.663H307.483V177.245H320.387V172.663H316.047V120.281C316.782 120.165 317.517 120.095 318.264 120.095ZM295.781 164.497C295.781 168.093 295.245 170.1 294.801 171.144C294.241 172.466 293.705 172.617 293.448 172.64C293.191 172.617 292.655 172.466 292.095 171.144C291.651 170.088 291.115 168.081 291.115 164.497C291.115 160.113 291.92 154.707 293.46 149.198C294.976 154.707 295.781 160.113 295.781 164.497Z" fill="#CDBCAE" />
        <path d="M293.088 88.8242C282.272 88.8242 272.554 95.6678 268.867 105.655H253.863V189.32H333.21V105.655H317.308C313.621 95.6562 303.903 88.8242 293.088 88.8242ZM328.602 184.738H258.46V110.236H272.262L272.74 108.589C275.354 99.6463 283.719 93.4059 293.076 93.4059C302.433 93.4059 310.798 99.6463 313.411 108.589L313.89 110.236H328.578V184.738H328.602Z" fill="#CDBCAE" />
        <path d="M337.35 193.554H249.93V101.862H266.31C271.269 91.6315 281.78 85.0315 293.191 85.0315C304.601 85.0315 315.113 91.6315 320.083 101.862H337.35V193.554ZM252.24 191.257H335.028V104.17H318.601L318.135 103.173C313.619 93.5453 303.831 87.3281 293.191 87.3281C282.55 87.3281 272.762 93.5453 268.247 103.173L267.78 104.17H252.24V191.257Z" fill="#CDBCAE" />
        <path d="M238.696 158.953H208.141V161.076H238.696V158.953Z" fill="#CDBCAE" />
        <path d="M380.274 158.953H349.719V161.076H380.274V158.953Z" fill="#CDBCAE" />
        <path d="M364.02 150.996V153.525H349.984V151.274L356.786 147.423C357.965 146.751 358.828 146.217 359.365 145.834C359.901 145.452 360.263 145.104 360.45 144.779C360.636 144.454 360.73 144.06 360.73 143.596V143.375C360.73 142.645 360.391 142.076 359.726 141.682C359.061 141.287 358.105 141.102 356.845 141.102C355.561 141.102 354.581 141.311 353.904 141.74C353.228 142.169 352.889 142.807 352.889 143.642V144.094H350.054V143.619C350.054 141.972 350.638 140.696 351.793 139.814C352.948 138.933 354.604 138.48 356.763 138.48C358.875 138.48 360.531 138.91 361.733 139.756C362.935 140.603 363.53 141.786 363.53 143.283V143.503C363.53 144.303 363.378 144.988 363.075 145.579C362.771 146.159 362.246 146.751 361.5 147.331C360.753 147.911 359.656 148.618 358.221 149.43L355.409 151.008H364.02V150.996Z" fill="#CDBCAE" />
        <path d="M378.616 145.312C379.853 146.089 380.471 147.203 380.471 148.653V148.92C380.471 150.451 379.818 151.645 378.523 152.504C377.228 153.362 375.431 153.791 373.156 153.791C371.511 153.791 370.088 153.559 368.898 153.107C367.708 152.655 366.798 151.993 366.168 151.124C365.538 150.265 365.223 149.244 365.223 148.073V144.582C365.223 142.656 365.911 141.16 367.288 140.081C368.664 139.002 370.589 138.469 373.063 138.469C375.28 138.469 377.03 138.886 378.313 139.733C379.585 140.58 380.226 141.74 380.226 143.224V143.387H377.415V143.224C377.415 142.528 377.03 142.007 376.271 141.635C375.513 141.264 374.44 141.079 373.063 141.079C371.406 141.079 370.146 141.369 369.294 141.949C368.443 142.528 368.023 143.387 368.023 144.524V145.475C369.283 144.593 371.056 144.141 373.366 144.141C375.63 144.141 377.38 144.535 378.616 145.312ZM377.636 148.769C377.636 147.412 376.201 146.739 373.331 146.739C372.071 146.739 370.998 146.867 370.076 147.133C369.166 147.4 368.478 147.771 368.023 148.247C368.069 149.175 368.536 149.894 369.423 150.416C370.309 150.938 371.569 151.182 373.191 151.182C374.591 151.182 375.688 150.996 376.47 150.636C377.251 150.277 377.636 149.743 377.636 149.036V148.769Z" fill="#CDBCAE" />
        <path d="M222.164 150.996V153.525H208.129V151.274L214.931 147.423C216.109 146.751 216.972 146.217 217.509 145.834C218.046 145.452 218.407 145.104 218.594 144.779C218.781 144.454 218.874 144.06 218.874 143.596V143.375C218.874 142.645 218.536 142.076 217.871 141.682C217.206 141.287 216.249 141.102 214.989 141.102C213.706 141.102 212.726 141.311 212.049 141.74C211.372 142.169 211.034 142.807 211.034 143.642V144.094H208.199V143.619C208.199 141.972 208.782 140.696 209.937 139.814C211.092 138.933 212.749 138.48 214.907 138.48C217.019 138.48 218.676 138.91 219.878 139.756C221.079 140.603 221.674 141.786 221.674 143.283V143.503C221.674 144.303 221.523 144.988 221.219 145.579C220.916 146.159 220.391 146.751 219.644 147.331C218.897 147.911 217.801 148.618 216.366 149.43L213.554 151.008H222.164V150.996Z" fill="#CDBCAE" />
        <path d="M227.124 152.956C225.934 152.399 225.001 151.622 224.347 150.625C223.694 149.627 223.355 148.467 223.355 147.168V145.115C223.355 143.804 223.682 142.656 224.347 141.647C225.001 140.638 225.934 139.861 227.124 139.304C228.314 138.747 229.691 138.469 231.254 138.469C232.794 138.469 234.159 138.747 235.349 139.304C236.539 139.861 237.449 140.638 238.102 141.647C238.756 142.656 239.082 143.816 239.082 145.115V147.168C239.082 148.49 238.756 149.65 238.102 150.648C237.449 151.645 236.539 152.423 235.361 152.968C234.182 153.513 232.817 153.791 231.254 153.791C229.691 153.791 228.326 153.513 227.124 152.956ZM234.952 150.138C235.827 149.442 236.271 148.467 236.271 147.203V145.08C236.271 143.828 235.827 142.853 234.929 142.134C234.031 141.415 232.806 141.067 231.231 141.067C229.644 141.067 228.407 141.415 227.509 142.123C226.622 142.83 226.167 143.816 226.167 145.069V147.191C226.167 148.444 226.611 149.407 227.509 150.114C228.396 150.81 229.644 151.158 231.254 151.158C232.841 151.17 234.066 150.834 234.952 150.138Z" fill="#CDBCAE" />
        <path d="M219.898 196.464L219.513 196.569L218.789 194.017L221.438 191.801L219.454 184.807L216.036 184.285L215.312 181.733L215.698 181.629L230.281 184.053L231.063 186.825L219.898 196.464ZM223.409 190.12L228.134 186.153L222.021 185.213L223.409 190.12Z" fill="#CDBCAE" />
        <path d="M241.015 208.134L229.022 214.873L227.727 212.6L237.667 207.009L233.747 200.119L223.807 205.71L222.512 203.436L234.505 196.697L241.015 208.134Z" fill="#CDBCAE" />
        <path d="M244.572 231.876L244.28 232.154L242.425 230.252L243.685 227.051L238.598 221.843L235.343 223.003L233.488 221.1L233.78 220.822L247.769 216.043L249.787 218.108L244.572 231.876ZM244.619 224.65L246.87 218.92L241.048 220.996L244.619 224.65Z" fill="#CDBCAE" />
        <path d="M264.944 229.267C266.321 230.044 267.208 230.995 267.628 232.108C268.048 233.222 267.919 234.347 267.266 235.484L267.149 235.681C266.496 236.818 265.574 237.491 264.408 237.688C263.229 237.897 261.957 237.607 260.581 236.818L255.389 233.86L252.892 238.186L250.617 236.887L257.477 225.01L264.944 229.267ZM263.567 235.252C264.104 235.182 264.536 234.881 264.839 234.347L264.956 234.15C265.259 233.616 265.306 233.106 265.096 232.607C264.886 232.108 264.419 231.656 263.719 231.262L258.586 228.327L256.567 231.819L261.701 234.753C262.412 235.159 263.031 235.321 263.567 235.252Z" fill="#CDBCAE" />
        <path d="M271.652 235.172L272.189 232.898L285.781 236.1L285.244 238.373L279.726 237.074L277.089 248.128L274.534 247.525L277.159 236.471L271.652 235.172Z" fill="#CDBCAE" />
        <path d="M294.589 242.885L294.542 245.136L287.355 244.996L287.402 242.746L294.589 242.885Z" fill="#CDBCAE" />
        <path d="M305.883 247.953C304.565 247.698 303.456 247.141 302.558 246.295C301.66 245.436 301.03 244.334 300.68 242.966L300.621 242.745C300.271 241.388 300.283 240.112 300.656 238.918C301.03 237.723 301.73 236.714 302.768 235.855C303.806 234.997 305.101 234.371 306.665 233.976C308.228 233.582 309.663 233.501 310.981 233.756C312.3 234.011 313.408 234.568 314.307 235.426C315.205 236.284 315.835 237.398 316.185 238.767L316.243 238.987C316.593 240.344 316.582 241.62 316.208 242.803C315.835 243.986 315.135 244.996 314.108 245.854C313.082 246.701 311.786 247.327 310.211 247.733C308.636 248.139 307.201 248.208 305.883 247.953ZM313.152 243.267C313.852 242.27 314.027 241.087 313.665 239.695L313.595 239.416C313.233 238.024 312.51 237.062 311.401 236.516C310.305 235.971 308.916 235.913 307.271 236.331C305.626 236.748 304.436 237.468 303.725 238.477C303.013 239.486 302.838 240.681 303.2 242.073L303.27 242.351C303.631 243.743 304.366 244.694 305.463 245.228C306.571 245.761 307.948 245.807 309.605 245.39C311.261 244.961 312.44 244.253 313.152 243.267Z" fill="#CDBCAE" />
        <path d="M318.178 233.003L316.953 231.008L328.877 223.781L330.102 225.776L325.26 228.711L331.198 238.408L328.958 239.765L323.02 230.068L318.178 233.003Z" fill="#CDBCAE" />
        <path d="M340.287 212.518L341.979 214.141L335.469 220.834L337.872 223.142L344.091 216.74L345.782 218.364L339.564 224.766L341.991 227.098L348.501 220.393L350.192 222.017L341.862 230.589L331.957 221.078L340.287 212.518Z" fill="#CDBCAE" />
        <path d="M361.929 203.807L360.622 206.069L350.705 200.443L347.439 206.185L352.432 209.108C354.089 210.082 355.127 211.103 355.547 212.182C355.979 213.26 355.804 214.467 355.057 215.789L354.555 216.659L352.514 215.499L352.77 215.047C353.085 214.502 353.237 214.026 353.225 213.597C353.214 213.179 353.039 212.773 352.689 212.39C352.339 212.008 351.779 211.59 351.02 211.149L344.172 207.124L349.97 197.021L361.929 203.807Z" fill="#CDBCAE" />
        <path d="M362.025 183.358C362.865 182.801 363.845 182.685 364.965 183.01L365.21 183.079C366.283 183.392 367.018 184.019 367.426 184.947C367.823 185.875 367.835 186.988 367.45 188.287L365.245 195.722L355.234 192.788L355.946 190.387L358.688 191.187L360.181 186.165C360.566 184.842 361.185 183.914 362.025 183.358ZM364.23 185.492C363.285 185.213 362.631 185.712 362.258 186.965L360.823 191.813L363.821 192.695L365.256 187.846C365.63 186.594 365.361 185.828 364.463 185.573L364.23 185.492Z" fill="#CDBCAE" />
    </g>
    <defs>
        <clipPath id="clip0_29_9202">
            <rect width="219" height="254" fill="white" transform="translate(184 13)" />
        </clipPath>
    </defs>
</svg>