<svg xmlns="http://www.w3.org/2000/svg" width="32" height="32" viewBox="0 0 32 32" fill="none">
    <g clip-path="url(#clip0_874_31535)">
        <path d="M32 16C32 19.1645 31.0616 22.2579 29.3035 24.8891C27.5454 27.5203 25.0466 29.5711 22.1229 30.7821C19.1993 31.9931 15.9823 32.3099 12.8786 31.6926C9.77487 31.0752 6.92394 29.5514 4.6863 27.3137C2.44866 25.0761 0.924806 22.2251 0.307443 19.1214C-0.309921 16.0177 0.00693258 12.8007 1.21793 9.87707C2.42894 6.95345 4.4797 4.45459 7.11088 2.69649C9.74207 0.938384 12.8355 0 16 0C20.2421 0.00458811 24.3091 1.69177 27.3087 4.69136C30.3082 7.69095 31.9954 11.7579 32 16ZM17.3333 6.66667H14.6667V20H17.3333V6.66667ZM17.3333 22.6667H14.6667V25.3333H17.3333V22.6667Z" fill="#F71D22" />
    </g>
    <defs>
        <clipPath id="clip0_874_31535">
            <rect width="32" height="32" fill="white" />
        </clipPath>
    </defs>
</svg>