<svg xmlns="http://www.w3.org/2000/svg" xmlns:xlink="http://www.w3.org/1999/xlink" viewBox="0 0 300 300">
    <style>:root>svg{display:none}:root>svg:target{display:block}</style>
    <svg id="btn-prev" xmlns="http://www.w3.org/2000/svg" viewBox="0 0 32 16">
        <path d="M0.610001 6.28933L6.89933 0L7.842 0.942666L1.68467 7.1H31.9993V8.43333H1.68733L7.84333 14.5893L6.90067 15.532L0.610001 9.24133C-0.203333 8.428 -0.203333 7.10267 0.610001 6.28933Z" />
    </svg>
    <svg id="btn-next" xmlns="http://www.w3.org/2000/svg" viewBox="0 0 32 16">
        <path d="M31.3893 6.28933L25.1 0L24.1573 0.942666L30.3147 7.1H0V8.43333H30.312L24.156 14.5893L25.0987 15.532L31.3893 9.24133C32.2027 8.428 32.2027 7.10267 31.3893 6.28933Z" />
    </svg>
    <svg id="telegram" xmlns="http://www.w3.org/2000/svg" viewBox="0 0 12 12">
        <path d="M11.7984 1.06055L9.99518 10.4746C9.99518 10.4746 9.74288 11.1273 9.04978 10.8143L4.88918 7.51076L4.86989 7.50103C5.43189 6.97846 9.78988 2.92082 9.98034 2.73689C10.2752 2.45204 10.0921 2.28246 9.7498 2.49763L3.31251 6.731L0.829021 5.86568C0.829021 5.86568 0.438192 5.72171 0.400593 5.40868C0.3625 5.09514 0.841883 4.92556 0.841883 4.92556L10.9663 0.812587C10.9663 0.812587 11.7984 0.433977 11.7984 1.06055V1.06055Z" />
    </svg>
    <svg id="whatsapp" xmlns="http://www.w3.org/2000/svg" viewBox="0 0 12 12">
        <path fill-rule="evenodd" clip-rule="evenodd" d="M9.70156 8.2666C9.56901 8.64181 9.0421 8.95222 8.6219 9.04299C8.33425 9.10406 7.95915 9.15237 6.69525 8.62861C5.2757 8.04049 3.3045 5.94553 3.3045 4.55142C3.3045 3.8417 3.7137 3.01528 4.42925 3.01528C4.77355 3.01528 4.84945 3.022 4.96275 3.29377C5.0953 3.61397 5.4187 4.40287 5.4572 4.48374C5.61615 4.81549 5.2955 5.0097 5.06285 5.29854C4.9886 5.38546 4.90445 5.47947 4.9985 5.64121C5.092 5.79966 5.4154 6.32673 5.8906 6.7498C6.5044 7.29667 7.00215 7.47126 7.18035 7.54553C7.3129 7.60055 7.4713 7.58774 7.5681 7.4843C7.69075 7.35171 7.8431 7.13173 7.9982 6.91497C8.10765 6.75982 8.24681 6.74044 8.39256 6.79546C8.49101 6.82957 9.74225 7.41066 9.79505 7.50364C9.8341 7.57131 9.83411 7.89139 9.70156 8.2666ZM6.5011 0.5H6.49835C3.4662 0.5 1 2.96694 1 6C1 7.20266 1.38775 8.31844 2.0472 9.22346L1.3619 11.2672L3.47555 10.5917C4.3451 11.1672 5.38295 11.5 6.5011 11.5C9.53325 11.5 12 9.03306 12 6C12 2.96694 9.53325 0.5 6.5011 0.5Z" />
    </svg>
    <svg id="chevron-r" xmlns="http://www.w3.org/2000/svg" viewBox="0 0 16 16">
        <path d="M6.61813 14L6 13.3311L10.6172 8.33491C10.6579 8.29097 10.6902 8.23877 10.7122 8.1813C10.7343 8.12383 10.7456 8.06222 10.7456 8C10.7456 7.93778 10.7343 7.87617 10.7122 7.8187C10.6902 7.76123 10.6579 7.70903 10.6172 7.66509L6 2.66887L6.61813 2L11.2353 6.99622C11.4828 7.26396 11.6191 7.62063 11.6191 8C11.6191 8.37938 11.4828 8.7351 11.2353 9.00378L6.61813 14Z" />
    </svg>
    <svg id="chevron-bot" xmlns="http://www.w3.org/2000/svg" viewBox="0 0 16 16">
        <path d="M2 6.66887L2.66887 6L7.66509 10.9962C7.70903 11.0403 7.76123 11.0752 7.8187 11.0991C7.87617 11.1229 7.93778 11.1352 8 11.1352C8.06222 11.1352 8.12383 11.1229 8.1813 11.0991C8.23877 11.0752 8.29097 11.0403 8.33491 10.9962L13.3311 6L14 6.66887L9.00378 11.6651C8.73604 11.9328 8.37937 12.0804 8 12.0804C7.62062 12.0804 7.2649 11.9328 6.99622 11.6651L2 6.66887Z" />
    </svg>
    <svg id="zoom" xmlns="http://www.w3.org/2000/svg" viewBox="0 0 20 20">
        <path d="M0.45 4.51875C0.69375 4.51875 0.9 4.3125 0.9 4.06875V1.5375L6.46875 7.10625C6.5625 7.2 6.675 7.2375 6.7875 7.2375C6.9 7.2375 7.0125 7.2 7.10625 7.10625C7.275 6.9375 7.275 6.6375 7.10625 6.46875L1.5375 0.9H4.06875C4.3125 0.9 4.51875 0.69375 4.51875 0.45C4.51875 0.20625 4.3125 0 4.06875 0H0.45C0.39375 0 0.3375 0.01875 0.28125 0.0375C0.16875 0.075 0.075 0.16875 0.0375 0.28125C0.01875 0.3375 0 0.39375 0 0.45V4.06875C0 4.33125 0.20625 4.51875 0.45 4.51875ZM19.0125 0.45C19.0125 0.39375 18.9937 0.3375 18.975 0.28125C18.9375 0.16875 18.8437 0.075 18.7312 0.0375C18.675 0.01875 18.6187 0 18.5625 0H14.9437C14.7 0 14.4937 0.20625 14.4937 0.45C14.4937 0.69375 14.7 0.9 14.9437 0.9H17.475L11.9063 6.46875C11.7375 6.6375 11.7375 6.9375 11.9063 7.10625C12 7.2 12.1125 7.2375 12.225 7.2375C12.3375 7.2375 12.45 7.2 12.5437 7.10625L18.1125 1.5375V4.06875C18.1125 4.3125 18.3188 4.51875 18.5625 4.51875C18.8062 4.51875 19.0125 4.3125 19.0125 4.06875V0.45ZM18.7312 18.975C18.8437 18.9375 18.9375 18.8437 18.975 18.7312C18.9937 18.675 19.0125 18.6187 19.0125 18.5625V14.9437C19.0125 14.7 18.8062 14.4937 18.5625 14.4937C18.3188 14.4937 18.1125 14.7 18.1125 14.9437V17.475L12.5437 11.9063C12.375 11.7375 12.075 11.7375 11.9063 11.9063C11.7375 12.075 11.7375 12.375 11.9063 12.5437L17.475 18.1125H14.9437C14.7 18.1125 14.4937 18.3188 14.4937 18.5625C14.4937 18.8062 14.7 19.0125 14.9437 19.0125H18.5625C18.6187 19.0125 18.675 18.9937 18.7312 18.975ZM0.28125 18.975C0.3375 18.9937 0.39375 19.0125 0.45 19.0125H4.06875C4.3125 19.0125 4.51875 18.8062 4.51875 18.5625C4.51875 18.3188 4.3125 18.1125 4.06875 18.1125H1.5375L7.10625 12.5437C7.275 12.375 7.275 12.075 7.10625 11.9063C6.9375 11.7375 6.6375 11.7375 6.46875 11.9063L0.9 17.475V14.9437C0.9 14.7 0.69375 14.4937 0.45 14.4937C0.20625 14.4937 0 14.7 0 14.9437V18.5625C0 18.6187 0.01875 18.675 0.0375 18.7312C0.075 18.8437 0.16875 18.9375 0.28125 18.975Z" />
    </svg>
    <svg id="play" xmlns="http://www.w3.org/2000/svg" viewBox="0 0 22 25">
        <path d="M20.852 10.9948L1.77641 0.154225C1.59513 0.0514962 1.39045 -0.00165094 1.18261 3.90826e-05C0.974768 0.0017291 0.770962 0.0581977 0.591343 0.163862C0.411273 0.269899 0.261893 0.421815 0.158125 0.604436C0.0543575 0.787056 -0.000166253 0.993988 3.80803e-07 1.20456V22.8858C-0.000166253 23.0964 0.0543575 23.3033 0.158125 23.4859C0.261893 23.6685 0.411273 23.8205 0.591343 23.9265C0.773945 24.0334 0.981174 24.0899 1.19222 24.0903C1.39252 24.0903 1.59519 24.0397 1.77641 23.9361L20.852 13.0955C21.2263 12.8811 21.46 12.4812 21.46 12.0452C21.46 11.6091 21.2263 11.2092 20.852 10.9948Z" />
    </svg>
    <svg id="rating" xmlns="http://www.w3.org/2000/svg" viewBox="0 0 116 20">
        <path fill-rule="evenodd" clip-rule="evenodd" d="M8.5065 2.72176C8.76772 2.26561 9.21406 1.66211 10.0007 1.66211C10.7873 1.66211 11.2337 2.26561 11.4949 2.72176C11.7686 3.19968 12.0428 3.88455 12.3639 4.68644L12.4202 4.82688C12.6197 5.32507 12.747 5.64027 12.8684 5.87155C12.9809 6.08588 13.0561 6.163 13.1176 6.2088C13.1791 6.25454 13.2742 6.30441 13.5112 6.3505C13.7671 6.40027 14.1049 6.4316 14.6388 6.47948L14.8905 6.50206C15.6809 6.57291 16.3647 6.63419 16.8689 6.75338C17.3646 6.87053 18.0218 7.11821 18.2601 7.8277C18.4981 8.53663 18.1243 9.13098 17.8003 9.52406C17.4705 9.92411 16.9629 10.3867 16.3758 10.9216L15.9083 11.3475C15.5798 11.6469 15.3728 11.8365 15.2253 11.9963C15.0883 12.1448 15.044 12.2248 15.021 12.2838C15.0066 12.3207 14.9946 12.3586 14.9851 12.3972C14.97 12.4588 14.9601 12.5499 14.9866 12.7505C15.0152 12.9662 15.0753 13.2408 15.1715 13.6751L15.2402 13.9855C15.4022 14.7166 15.5385 15.3315 15.5917 15.8038C15.6397 16.23 15.6687 16.8585 15.2509 17.3245C15.0323 17.5682 14.7481 17.7439 14.4321 17.8303C13.8275 17.9955 13.2786 17.6866 12.9199 17.4524C12.5223 17.1927 12.0347 16.7948 11.4552 16.3218L11.4164 16.2901C11.002 15.9519 10.7354 15.7354 10.5169 15.589C10.3107 15.451 10.2097 15.4193 10.1433 15.4087C10.0488 15.3936 9.95257 15.3936 9.8581 15.4087C9.79173 15.4193 9.69067 15.451 9.48452 15.589C9.266 15.7354 8.99943 15.9519 8.58496 16.2901L8.54618 16.3218C7.96667 16.7948 7.4791 17.1927 7.08153 17.4524C6.7228 17.6866 6.17388 17.9955 5.56926 17.8303C5.25331 17.7439 4.96908 17.5682 4.7505 17.3245C4.33267 16.8585 4.3617 16.23 4.40973 15.8038C4.46294 15.3315 4.59918 14.7166 4.76116 13.9855L4.82992 13.6751C4.92611 13.2408 4.9862 12.9662 5.01477 12.7505C5.04133 12.5499 5.03143 12.4588 5.01629 12.3972C5.0068 12.3586 4.9948 12.3207 4.98036 12.2838C4.95736 12.2248 4.9131 12.1448 4.77606 11.9963C4.62863 11.8365 4.42157 11.6469 4.09309 11.3475L3.62566 10.9216C3.03855 10.3867 2.53085 9.92411 2.20109 9.52406C1.87707 9.13098 1.50328 8.53663 1.74134 7.8277C1.97957 7.11821 2.63684 6.87053 3.13248 6.75338C3.63674 6.63419 4.32045 6.57291 5.11085 6.50206C5.1324 6.50013 5.15403 6.49819 5.17573 6.49625L5.36262 6.47948C5.89646 6.4316 6.23431 6.40027 6.49019 6.3505C6.72717 6.30441 6.82234 6.25454 6.88377 6.2088C6.94527 6.163 7.02055 6.08588 7.13303 5.87155C7.2544 5.64027 7.38173 5.32507 7.58124 4.82688L7.61309 4.74736C7.62125 4.72698 7.62938 4.70667 7.63748 4.68644C7.95858 3.88455 8.23281 3.19968 8.5065 2.72176Z" />
        <path fill-rule="evenodd" clip-rule="evenodd" d="M32.5065 2.72176C32.7677 2.26561 33.2141 1.66211 34.0007 1.66211C34.7873 1.66211 35.2337 2.26561 35.4949 2.72176C35.7686 3.19968 36.0428 3.88455 36.3639 4.68644L36.4202 4.82688C36.6197 5.32507 36.747 5.64027 36.8684 5.87155C36.9809 6.08588 37.0561 6.163 37.1176 6.2088C37.1791 6.25454 37.2742 6.30441 37.5112 6.3505C37.7671 6.40027 38.1049 6.4316 38.6388 6.47948L38.8905 6.50206C39.6809 6.57291 40.3647 6.63419 40.8689 6.75338C41.3646 6.87053 42.0218 7.11821 42.2601 7.8277C42.4981 8.53663 42.1243 9.13098 41.8003 9.52406C41.4705 9.92411 40.9629 10.3867 40.3758 10.9216L39.9083 11.3475C39.5798 11.6469 39.3728 11.8365 39.2253 11.9963C39.0883 12.1448 39.044 12.2248 39.021 12.2838C39.0066 12.3207 38.9946 12.3586 38.9851 12.3972C38.97 12.4588 38.9601 12.5499 38.9866 12.7505C39.0152 12.9662 39.0753 13.2408 39.1715 13.6751L39.2402 13.9855C39.4022 14.7166 39.5385 15.3315 39.5917 15.8038C39.6397 16.23 39.6687 16.8585 39.2509 17.3245C39.0323 17.5682 38.7481 17.7439 38.4321 17.8303C37.8275 17.9955 37.2786 17.6866 36.9199 17.4524C36.5223 17.1927 36.0347 16.7948 35.4552 16.3218L35.4164 16.2901C35.002 15.9519 34.7354 15.7354 34.5169 15.589C34.3107 15.451 34.2097 15.4193 34.1433 15.4087C34.0488 15.3936 33.9526 15.3936 33.8581 15.4087C33.7917 15.4193 33.6907 15.451 33.4845 15.589C33.266 15.7354 32.9994 15.9519 32.585 16.2901L32.5462 16.3218C31.9667 16.7948 31.4791 17.1927 31.0815 17.4524C30.7228 17.6866 30.1739 17.9955 29.5693 17.8303C29.2533 17.7439 28.9691 17.5682 28.7505 17.3245C28.3327 16.8585 28.3617 16.23 28.4097 15.8038C28.4629 15.3315 28.5992 14.7166 28.7612 13.9855L28.8299 13.6751C28.9261 13.2408 28.9862 12.9662 29.0148 12.7505C29.0413 12.5499 29.0314 12.4588 29.0163 12.3972C29.0068 12.3586 28.9948 12.3207 28.9804 12.2838C28.9574 12.2248 28.9131 12.1448 28.7761 11.9963C28.6286 11.8365 28.4216 11.6469 28.0931 11.3475L27.6257 10.9216C27.0386 10.3867 26.5309 9.92411 26.2011 9.52406C25.8771 9.13098 25.5033 8.53663 25.7413 7.8277C25.9796 7.11821 26.6368 6.87053 27.1325 6.75338C27.6367 6.63419 28.3205 6.57291 29.1109 6.50206C29.1324 6.50013 29.154 6.49819 29.1757 6.49625L29.3626 6.47948C29.8965 6.4316 30.2343 6.40027 30.4902 6.3505C30.7272 6.30441 30.8223 6.25454 30.8838 6.2088C30.9453 6.163 31.0205 6.08588 31.133 5.87155C31.2544 5.64027 31.3817 5.32507 31.5812 4.82688L31.6131 4.74736C31.6213 4.72698 31.6294 4.70667 31.6375 4.68644C31.9586 3.88455 32.2328 3.19968 32.5065 2.72176Z" />
        <path fill-rule="evenodd" clip-rule="evenodd" d="M56.5065 2.72176C56.7677 2.26561 57.2141 1.66211 58.0007 1.66211C58.7873 1.66211 59.2337 2.26561 59.4949 2.72176C59.7686 3.19968 60.0428 3.88455 60.3639 4.68644L60.4202 4.82688C60.6197 5.32507 60.747 5.64027 60.8684 5.87155C60.9809 6.08588 61.0561 6.163 61.1176 6.2088C61.1791 6.25454 61.2742 6.30441 61.5112 6.3505C61.7671 6.40027 62.1049 6.4316 62.6388 6.47948L62.8905 6.50206C63.6809 6.57291 64.3647 6.63419 64.8689 6.75338C65.3646 6.87053 66.0218 7.11821 66.2601 7.8277C66.4981 8.53663 66.1243 9.13098 65.8003 9.52406C65.4705 9.92411 64.9629 10.3867 64.3758 10.9216L63.9083 11.3475C63.5798 11.6469 63.3728 11.8365 63.2253 11.9963C63.0883 12.1448 63.044 12.2248 63.021 12.2838C63.0066 12.3207 62.9946 12.3586 62.9851 12.3972C62.97 12.4588 62.9601 12.5499 62.9866 12.7505C63.0152 12.9662 63.0753 13.2408 63.1715 13.6751L63.2402 13.9855C63.4022 14.7166 63.5385 15.3315 63.5917 15.8038C63.6397 16.23 63.6687 16.8585 63.2509 17.3245C63.0323 17.5682 62.7481 17.7439 62.4321 17.8303C61.8275 17.9955 61.2786 17.6866 60.9199 17.4524C60.5223 17.1927 60.0347 16.7948 59.4552 16.3218L59.4164 16.2901C59.002 15.9519 58.7354 15.7354 58.5169 15.589C58.3107 15.451 58.2097 15.4193 58.1433 15.4087C58.0488 15.3936 57.9526 15.3936 57.8581 15.4087C57.7917 15.4193 57.6907 15.451 57.4845 15.589C57.266 15.7354 56.9994 15.9519 56.585 16.2901L56.5462 16.3218C55.9667 16.7948 55.4791 17.1927 55.0815 17.4524C54.7228 17.6866 54.1739 17.9955 53.5693 17.8303C53.2533 17.7439 52.9691 17.5682 52.7505 17.3245C52.3327 16.8585 52.3617 16.23 52.4097 15.8038C52.4629 15.3315 52.5992 14.7166 52.7612 13.9855L52.8299 13.6751C52.9261 13.2408 52.9862 12.9662 53.0148 12.7505C53.0413 12.5499 53.0314 12.4588 53.0163 12.3972C53.0068 12.3586 52.9948 12.3207 52.9804 12.2838C52.9574 12.2248 52.9131 12.1448 52.7761 11.9963C52.6286 11.8365 52.4216 11.6469 52.0931 11.3475L51.6257 10.9216C51.0386 10.3867 50.5309 9.92411 50.2011 9.52406C49.8771 9.13098 49.5033 8.53663 49.7413 7.8277C49.9796 7.11821 50.6368 6.87053 51.1325 6.75338C51.6367 6.63419 52.3205 6.57291 53.1109 6.50206C53.1324 6.50013 53.154 6.49819 53.1757 6.49625L53.3626 6.47948C53.8965 6.4316 54.2343 6.40027 54.4902 6.3505C54.7272 6.30441 54.8223 6.25454 54.8838 6.2088C54.9453 6.163 55.0205 6.08588 55.133 5.87155C55.2544 5.64027 55.3817 5.32507 55.5812 4.82688L55.6131 4.74736C55.6213 4.72698 55.6294 4.70667 55.6375 4.68644C55.9586 3.88455 56.2328 3.19968 56.5065 2.72176Z" />
        <path fill-rule="evenodd" clip-rule="evenodd" d="M80.5065 2.72176C80.7677 2.26561 81.2141 1.66211 82.0007 1.66211C82.7873 1.66211 83.2337 2.26561 83.4949 2.72176C83.7686 3.19968 84.0428 3.88455 84.3639 4.68644L84.4202 4.82688C84.6197 5.32507 84.747 5.64027 84.8684 5.87155C84.9809 6.08588 85.0561 6.163 85.1176 6.2088C85.1791 6.25454 85.2742 6.30441 85.5112 6.3505C85.7671 6.40027 86.1049 6.4316 86.6388 6.47948L86.8905 6.50206C87.6809 6.57291 88.3647 6.63419 88.8689 6.75338C89.3646 6.87053 90.0218 7.11821 90.2601 7.8277C90.4981 8.53663 90.1243 9.13098 89.8003 9.52406C89.4705 9.92411 88.9629 10.3867 88.3758 10.9216L87.9083 11.3475C87.5798 11.6469 87.3728 11.8365 87.2253 11.9963C87.0883 12.1448 87.044 12.2248 87.021 12.2838C87.0066 12.3207 86.9946 12.3586 86.9851 12.3972C86.97 12.4588 86.9601 12.5499 86.9866 12.7505C87.0152 12.9662 87.0753 13.2408 87.1715 13.6751L87.2402 13.9855C87.4022 14.7166 87.5385 15.3315 87.5917 15.8038C87.6397 16.23 87.6687 16.8585 87.2509 17.3245C87.0323 17.5682 86.7481 17.7439 86.4321 17.8303C85.8275 17.9955 85.2786 17.6866 84.9199 17.4524C84.5223 17.1927 84.0347 16.7948 83.4552 16.3218L83.4164 16.2901C83.002 15.9519 82.7354 15.7354 82.5169 15.589C82.3107 15.451 82.2097 15.4193 82.1433 15.4087C82.0488 15.3936 81.9526 15.3936 81.8581 15.4087C81.7917 15.4193 81.6907 15.451 81.4845 15.589C81.266 15.7354 80.9994 15.9519 80.585 16.2901L80.5462 16.3218C79.9667 16.7948 79.4791 17.1927 79.0815 17.4524C78.7228 17.6866 78.1739 17.9955 77.5693 17.8303C77.2533 17.7439 76.9691 17.5682 76.7505 17.3245C76.3327 16.8585 76.3617 16.23 76.4097 15.8038C76.4629 15.3315 76.5992 14.7166 76.7612 13.9855L76.8299 13.6751C76.9261 13.2408 76.9862 12.9662 77.0148 12.7505C77.0413 12.5499 77.0314 12.4588 77.0163 12.3972C77.0068 12.3586 76.9948 12.3207 76.9804 12.2838C76.9574 12.2248 76.9131 12.1448 76.7761 11.9963C76.6286 11.8365 76.4216 11.6469 76.0931 11.3475L75.6257 10.9216C75.0386 10.3867 74.5309 9.92411 74.2011 9.52406C73.8771 9.13098 73.5033 8.53663 73.7413 7.8277C73.9796 7.11821 74.6368 6.87053 75.1325 6.75338C75.6367 6.63419 76.3205 6.57291 77.1109 6.50206C77.1324 6.50013 77.154 6.49819 77.1757 6.49625L77.3626 6.47948C77.8965 6.4316 78.2343 6.40027 78.4902 6.3505C78.7272 6.30441 78.8223 6.25454 78.8838 6.2088C78.9453 6.163 79.0205 6.08588 79.133 5.87155C79.2544 5.64027 79.3817 5.32507 79.5812 4.82688L79.6131 4.74736C79.6213 4.72698 79.6294 4.70667 79.6375 4.68644C79.9586 3.88455 80.2328 3.19968 80.5065 2.72176Z" />
        <path fill-rule="evenodd" clip-rule="evenodd" d="M104.506 2.72176C104.768 2.26561 105.214 1.66211 106.001 1.66211C106.787 1.66211 107.234 2.26561 107.495 2.72176C107.769 3.19968 108.043 3.88455 108.364 4.68644L108.42 4.82688C108.62 5.32507 108.747 5.64027 108.868 5.87155C108.981 6.08588 109.056 6.163 109.118 6.2088C109.179 6.25454 109.274 6.30441 109.511 6.3505C109.767 6.40027 110.105 6.4316 110.639 6.47948L110.891 6.50206C111.681 6.57291 112.365 6.63419 112.869 6.75338C113.365 6.87053 114.022 7.11821 114.26 7.8277C114.498 8.53663 114.124 9.13098 113.8 9.52406C113.471 9.92411 112.963 10.3867 112.376 10.9216L111.908 11.3475C111.58 11.6469 111.373 11.8365 111.225 11.9963C111.088 12.1448 111.044 12.2248 111.021 12.2838C111.007 12.3207 110.995 12.3586 110.985 12.3972C110.97 12.4588 110.96 12.5499 110.987 12.7505C111.015 12.9662 111.075 13.2408 111.171 13.6751L111.24 13.9855C111.402 14.7166 111.538 15.3315 111.592 15.8038C111.64 16.23 111.669 16.8585 111.251 17.3245C111.032 17.5682 110.748 17.7439 110.432 17.8303C109.828 17.9955 109.279 17.6866 108.92 17.4524C108.522 17.1927 108.035 16.7948 107.455 16.3218L107.416 16.2901C107.002 15.9519 106.735 15.7354 106.517 15.589C106.311 15.451 106.21 15.4193 106.143 15.4087C106.049 15.3936 105.953 15.3936 105.858 15.4087C105.792 15.4193 105.691 15.451 105.485 15.589C105.266 15.7354 104.999 15.9519 104.585 16.2901L104.546 16.3218C103.967 16.7948 103.479 17.1927 103.082 17.4524C102.723 17.6866 102.174 17.9955 101.569 17.8303C101.253 17.7439 100.969 17.5682 100.751 17.3245C100.333 16.8585 100.362 16.23 100.41 15.8038C100.463 15.3315 100.599 14.7166 100.761 13.9855L100.83 13.6751C100.926 13.2408 100.986 12.9662 101.015 12.7505C101.041 12.5499 101.031 12.4588 101.016 12.3972C101.007 12.3586 100.995 12.3207 100.98 12.2838C100.957 12.2248 100.913 12.1448 100.776 11.9963C100.629 11.8365 100.422 11.6469 100.093 11.3475L99.6257 10.9216C99.0386 10.3867 98.5309 9.92411 98.2011 9.52406C97.8771 9.13098 97.5033 8.53663 97.7413 7.8277C97.9796 7.11821 98.6368 6.87053 99.1325 6.75338C99.6367 6.63419 100.32 6.57291 101.111 6.50206C101.132 6.50013 101.154 6.49819 101.176 6.49625L101.363 6.47948C101.896 6.4316 102.234 6.40027 102.49 6.3505C102.727 6.30441 102.822 6.25454 102.884 6.2088C102.945 6.163 103.021 6.08588 103.133 5.87155C103.254 5.64027 103.382 5.32507 103.581 4.82688L103.613 4.74736C103.621 4.72698 103.629 4.70667 103.637 4.68644C103.959 3.88455 104.233 3.19968 104.506 2.72176Z" />
    </svg>
    <svg id="date" xmlns="http://www.w3.org/2000/svg" viewBox="0 0 16 16">
        <path d="M13.5417 2.16667H11.5V1H10.9167V2.16667H5.08333V1H4.5V2.16667H2.45833C2.0717 2.16713 1.70104 2.32092 1.42765 2.59431C1.15426 2.8677 1.00046 3.23837 1 3.625L1 15H15V3.625C15 2.82117 14.3455 2.16667 13.5417 2.16667ZM2.45833 2.75H13.5417C14.0241 2.75 14.4167 3.14258 14.4167 3.625V5.66667H1.58333V3.625C1.58333 3.14258 1.97592 2.75 2.45833 2.75ZM1.58333 14.4167V6.25H14.4167V14.4167H1.58333Z" />
        <path d="M6.24935 8.58301H7.41602V9.16634H6.24935V8.58301ZM8.58268 8.58301H9.74935V9.16634H8.58268V8.58301ZM10.916 8.58301H12.0827V9.16634H10.916V8.58301ZM6.24935 11.4997H7.41602V12.083H6.24935V11.4997ZM3.91602 8.58301H5.08268V9.16634H3.91602V8.58301ZM3.91602 11.4997H5.08268V12.083H3.91602V11.4997ZM8.58268 11.4997H9.74935V12.083H8.58268V11.4997ZM10.916 11.4997H12.0827V12.083H10.916V11.4997Z" />
    </svg>
    <svg id="time" xmlns="http://www.w3.org/2000/svg" viewBox="0 0 16 16">
        <path d="M8 15C4.14008 15 1 11.8599 1 8C1 4.14008 4.14008 1 8 1C11.8599 1 15 4.14008 15 8C15 11.8599 11.8599 15 8 15ZM8 1.58333C4.46208 1.58333 1.58333 4.46208 1.58333 8C1.58333 11.5379 4.46208 14.4167 8 14.4167C11.5379 14.4167 14.4167 11.5379 14.4167 8C14.4167 4.46208 11.5379 1.58333 8 1.58333ZM8.58333 3.91667H8V8H5.08333V8.58333H8.58333V3.91667Z" />
    </svg>
</svg>