<svg xmlns="http://www.w3.org/2000/svg" width="32" height="32" viewBox="0 0 32 32" fill="none">
    <path d="M8 11.0027H4C2.93913 11.0027 1.92172 11.4242 1.17157 12.1743C0.421427 12.9245 0 13.9419 0 15.0027L0 25.6694C0 26.7303 0.421427 27.7477 1.17157 28.4978C1.92172 29.248 2.93913 29.6694 4 29.6694H8V11.0027ZM18.6667 11.0027L19.4067 6.56541C19.5348 5.90414 19.4387 5.219 19.1334 4.61858C18.8281 4.01815 18.3312 3.53678 17.7213 3.25074C17.022 2.94542 16.2324 2.91848 15.5139 3.17543C14.7953 3.43237 14.2019 3.95384 13.8547 4.63341L10.6667 11.0027V29.6694H29.3333L32 15.0027V11.0027H18.6667Z" fill="#591A0B" />
</svg>