<svg xmlns="http://www.w3.org/2000/svg" width="32" height="32" viewBox="0 0 32 32" fill="none">
    <path d="M17.3333 24C17.3333 24.3536 17.1929 24.6928 16.9428 24.9428C16.6928 25.1929 16.3536 25.3333 16 25.3333C15.6464 25.3333 15.3072 25.1929 15.0572 24.9428C14.8071 24.6928 14.6667 24.3536 14.6667 24C14.6667 23.6464 14.8071 23.3072 15.0572 23.0572C15.3072 22.8071 15.6464 22.6667 16 22.6667C16.3536 22.6667 16.6928 22.8071 16.9428 23.0572C17.1929 23.3072 17.3333 23.6464 17.3333 24ZM16.6667 6.66667H15.3333V20H16.6667V6.66667ZM32 16C32 24.8227 24.8227 32 16 32C7.17733 32 0 24.8227 0 16C0 7.17733 7.17733 0 16 0C24.8227 0 32 7.17733 32 16ZM30.6667 16C30.6667 7.91333 24.0867 1.33333 16 1.33333C7.91333 1.33333 1.33333 7.91333 1.33333 16C1.33333 24.0867 7.91333 30.6667 16 30.6667C24.0867 30.6667 30.6667 24.0867 30.6667 16Z" fill="#574030" />
</svg>